<svg width="600" height="637" viewBox="0 0 600 637" fill="none" xmlns="http://www.w3.org/2000/svg">
<g opacity="0.2">
<path fill-rule="evenodd" clip-rule="evenodd" d="M250 478C377.025 478 480 375.025 480 248C480 120.975 377.025 18 250 18C122.975 18 20 120.975 20 248C20 375.025 122.975 478 250 478Z" fill="#FF9B21"/>
</g>
<path fill-rule="evenodd" clip-rule="evenodd" d="M473.396 289.53C465.854 290.068 459.329 288.86 457.018 286.818C451.221 281.698 463.046 256.973 473.113 249.98C483.179 242.987 511.86 252.317 503.482 272.067C500.575 278.921 494.787 283.411 488.225 286.139L478.104 324.202L456.72 313.306L473.396 289.53Z" fill="#B28B67"/>
<path fill-rule="evenodd" clip-rule="evenodd" d="M470.437 231.812C471.673 230.481 473.543 229.755 475.349 230.178C475.788 230.28 476.209 230.446 476.602 230.667C476.742 230.745 476.762 230.807 476.88 230.741C476.968 230.692 477.062 230.511 477.127 230.434C477.329 230.194 477.546 229.966 477.778 229.754C478.569 229.032 479.536 228.529 480.555 228.21C482.463 227.613 484.62 227.629 486.486 228.384C487.507 228.797 488.397 229.451 489.159 230.24C489.554 230.648 489.914 231.09 490.25 231.547C490.352 231.684 490.623 232.244 490.77 232.291C490.933 232.344 491.428 232.124 491.598 232.092C493.707 231.702 495.812 232.198 497.693 233.174C499.816 234.276 501.814 235.428 502.93 237.633C503.166 238.1 503.371 238.584 503.55 239.075C503.645 239.333 503.731 239.595 503.805 239.86C503.849 240.02 503.89 240.181 503.926 240.343C503.986 240.618 503.928 240.669 504.22 240.647C505.341 240.563 506.456 240.825 507.392 241.457C507.947 241.832 508.434 242.304 508.862 242.817C509.008 242.992 509.277 243.53 509.475 243.634C509.67 243.738 510.246 243.66 510.487 243.688C511.791 243.842 513.024 244.345 514.082 245.12C515.173 245.919 516.099 246.989 516.773 248.158C517.097 248.72 517.342 249.285 517.443 249.927C517.486 250.205 517.509 250.486 517.58 250.759C517.621 250.918 517.757 251.129 517.738 251.295C517.749 251.196 519.343 251.361 519.485 251.392C520.244 251.559 520.908 251.942 521.454 252.491C522.48 253.526 523.077 254.976 523.473 256.353C523.676 257.06 523.798 257.79 523.843 258.523C523.865 258.875 523.869 259.227 523.857 259.579C523.852 259.75 523.807 259.944 523.829 260.111C523.857 260.326 523.929 260.367 524.093 260.538C524.922 261.406 525.537 262.473 525.825 263.638C526.117 264.818 526.064 266.059 525.716 267.218C525.695 267.287 525.57 267.549 525.589 267.602C525.616 267.674 525.829 267.756 525.901 267.805C526.151 267.971 526.392 268.152 526.621 268.347C527.043 268.705 527.425 269.11 527.756 269.554C529.045 271.285 529.462 273.511 529.149 275.617C528.82 277.827 527.707 279.984 526.007 281.451C525.732 281.688 525.439 281.904 525.128 282.092C524.937 282.207 524.903 282.19 524.881 282.402C524.857 282.637 524.898 282.899 524.89 283.137C524.864 283.915 524.731 284.685 524.514 285.431C524.159 286.655 523.667 287.881 522.884 288.898C522.521 289.37 522.091 289.793 521.595 290.126C521.342 290.296 521.073 290.442 520.792 290.561C520.646 290.622 520.497 290.676 520.346 290.724C520.26 290.751 520.159 290.762 520.078 290.8C519.88 290.892 519.92 290.753 519.866 291.01C519.792 291.37 519.829 291.781 519.792 292.149C519.754 292.528 519.702 292.905 519.639 293.281C519.512 294.042 519.346 294.798 519.109 295.533C518.655 296.944 517.91 298.314 516.684 299.197C516.159 299.574 515.552 299.83 514.915 299.946C514.604 300.002 514.286 300.026 513.969 300.016C513.806 300.012 513.625 299.953 513.501 300.05C513.367 300.153 513.324 300.473 513.268 300.636C512.782 302.059 512.168 303.5 511.112 304.598C510.139 305.61 508.801 306.26 507.407 306.43C504.702 306.762 502.027 305.302 500.465 303.138C500.058 302.574 499.721 301.959 499.472 301.31C497.497 302.29 495.111 301.012 493.627 299.69C491.779 298.042 490.822 295.686 490.829 293.234C488.644 294.189 486.084 292.214 486.056 289.956C486.05 289.403 486.159 288.853 486.34 288.333C486.435 288.059 486.589 287.813 486.691 287.546C486.822 287.205 486.766 286.781 486.802 286.405C486.87 285.674 487.04 284.969 487.368 284.309C487.54 283.964 487.753 283.653 487.959 283.329C488.144 283.038 488.205 282.71 488.31 282.383C488.812 282.752 489.554 282.944 490.15 283.048C490.735 283.15 491.418 282.982 491.966 282.789C493.238 282.342 494.326 281.46 495.251 280.502C497.28 278.398 498.491 275.251 496.682 272.608C495.84 271.377 492.342 269.597 490.792 269.204C489.162 268.79 485.862 271.171 485.626 271.432C485.48 271.594 485.387 271.839 485.151 271.877C484.632 271.958 484.251 271.163 484.091 270.785C483.816 270.134 483.748 269.418 483.729 268.718C483.689 267.194 483.818 265.647 484.114 264.152C484.343 262.999 484.69 261.868 484.818 260.696C484.945 259.53 484.806 258.36 484.18 257.344C483.499 256.238 482.528 255.344 481.636 254.413C480.752 253.49 479.929 252.494 479.501 251.274C479.407 251.005 479.324 250.729 479.281 250.448C479.248 250.226 479.291 249.856 479.166 249.662C478.972 249.361 478.357 249.573 478.042 249.603C476.485 249.751 474.972 250.293 473.6 251.028C472.236 251.759 471.035 252.52 469.866 253.516C468.999 254.256 468.144 255.333 467.067 255.752C466.587 255.94 464.209 254.989 463.625 254.315C463.042 253.64 462.613 252.442 462.614 251.829C462.616 251.201 462.834 250.622 463.221 250.131C463.448 249.842 463.731 249.608 463.963 249.328C464.158 249.094 464.34 248.871 464.592 248.693C465.072 248.358 465.658 248.24 466.232 248.358C465.954 247.608 465.814 246.808 465.843 246.008C465.873 245.177 466.025 244.225 466.325 243.45C466.569 242.82 466.979 242.247 467.57 241.9C468.188 241.535 468.977 241.493 469.676 241.425C469.192 240.385 468.893 239.268 468.759 238.131C468.497 235.92 468.875 233.493 470.437 231.812Z" fill="#191847"/>
<path fill-rule="evenodd" clip-rule="evenodd" d="M459 398L409.918 522.227L376.999 627.25H364L414.326 398L459 398Z" fill="#997659"/>
<path fill-rule="evenodd" clip-rule="evenodd" d="M468.883 398C469.406 441.654 477.028 500.427 478.246 503.149C479.464 505.87 562.324 572.358 562.324 572.358L553.371 581.939C553.371 581.939 455.603 524.934 451.079 517.331C446.555 509.727 431.826 439.763 420 398H468.883Z" fill="#B28B67"/>
<path fill-rule="evenodd" clip-rule="evenodd" d="M560.884 570.564C561.212 569.44 562.396 568.771 563.496 569.173C565.502 569.906 568.436 571.092 569.736 572.183C571.808 573.922 575.204 577.948 575.204 577.948C573.187 580.351 538.95 621.154 538.95 621.154C538.95 621.154 531.969 618.166 534.569 614.165C537.17 610.164 538.826 607.464 538.826 607.464L546.724 579.87C546.879 579.328 547.451 579.021 547.988 579.192L552.202 580.528C552.202 580.528 556.588 578.484 558.351 576.384C559.423 575.106 560.335 572.448 560.884 570.564Z" fill="#D5C79E"/>
<path fill-rule="evenodd" clip-rule="evenodd" d="M379.55 621.284C380.622 620.812 381.896 621.29 382.295 622.391C383.023 624.398 384 627.409 384 629.106C384 631.81 383.099 637 383.099 637C379.961 637 326.697 637 326.697 637C326.697 637 324.498 629.732 329.235 629.152C333.972 628.573 337.105 628.106 337.105 628.106L363.32 616.419C363.835 616.189 364.437 616.43 364.652 616.951L366.337 621.039C366.337 621.039 370.722 623.085 373.463 623.085C375.132 623.085 377.754 622.074 379.55 621.284Z" fill="#D5C79E"/>
<path fill-rule="evenodd" clip-rule="evenodd" d="M426 616.433L364.196 609.725L410 398H465.356L426 616.433Z" fill="#69A1AC"/>
<path fill-rule="evenodd" clip-rule="evenodd" d="M549.54 556.9L509 604.886C509 604.886 444.95 534.932 434.317 513.596C423.685 492.26 415.201 398 415.201 398H477.522C477.522 398 482.156 480.926 483.769 484.785C485.383 488.644 549.54 556.9 549.54 556.9Z" fill="#89C5CC"/>
<path fill-rule="evenodd" clip-rule="evenodd" d="M357.325 334.141L388.633 358.347L373.821 369.93L352.523 343.176C339.974 337.481 334.391 333.885 335.777 332.388C336.945 331.125 338.461 331.416 339.857 331.683C340.945 331.891 341.96 332.086 342.682 331.522C344.33 330.233 342.479 324.52 340.492 319.175C338.504 313.829 341.393 314.725 342.972 315.698C347.912 320.32 352.696 326.468 357.325 334.141ZM508.847 397.027L529.713 398.039C534.336 436.943 537.52 458.424 539.263 462.482C540.541 465.458 550.665 474.826 557.747 480.247C560.589 482.423 559.234 484.945 558.084 485.573C550.833 489.538 545.827 486.267 540.377 482.706C538.8 481.675 537.185 480.619 535.468 479.708C531.023 477.35 528.974 479.427 527.037 481.39C525.323 483.128 523.696 484.776 520.574 483.178C520.887 482.565 521.254 481.883 521.65 481.146C524.21 476.383 527.985 469.36 526.244 464.298C525.35 461.701 519.551 439.277 508.847 397.027Z" fill="#B28B67"/>
<path fill-rule="evenodd" clip-rule="evenodd" d="M474.337 305.217L466.306 301.686C443.611 314.857 425.535 355.587 411.95 358.188C399.107 360.647 384.07 351.42 366.404 339.618L357.152 351.412C370.026 374.88 403.565 400.357 421.081 394.953C449.087 386.315 467.802 335.188 474.337 305.217Z" fill="#5C63AB"/>
<path fill-rule="evenodd" clip-rule="evenodd" d="M484.624 419.777C484.624 419.777 434.161 407.195 410.385 401.267C406.992 400.421 408.853 395.682 409.96 393.332C422.732 366.216 452.492 340.974 462.616 300.366L484.868 302.347C495.477 335.25 492.858 371.85 484.624 419.777Z" fill="#DDE3E9"/>
<path fill-rule="evenodd" clip-rule="evenodd" d="M486.005 302.631L486.249 302.692C526.901 344.266 544.488 397.385 539.013 462.049L522.692 461.217C515.378 446.638 507.557 423.812 499.229 392.74C499.772 410.342 498.957 428.053 496.038 444.265L429.212 427.604C424.426 391.684 477.77 300.578 477.77 300.578L482.384 301.728L486.005 302.631Z" fill="#8991DC"/>
<path fill-rule="evenodd" clip-rule="evenodd" d="M215.46 106.985C223.091 112.947 230.893 116.333 234.813 115.823C244.643 114.545 249.786 79.9029 244.095 65.2983C238.404 50.6936 201.232 40.0685 195.989 66.9767C194.169 76.3156 197.105 85.2099 202.126 92.7899L185.616 140.342L216.153 144.092L215.46 106.985Z" fill="#B28B67"/>
<path fill-rule="evenodd" clip-rule="evenodd" d="M221.169 73.1111C224.291 69.515 227.194 66.836 230.706 65.5044C244.105 67.3643 245.972 65.1582 246.965 57.0724C244.986 55.2595 237.655 51.7158 229.177 49.9312C224.959 48.1477 219.752 47.7464 214.509 49.2138C208.138 50.1992 202.464 53.3095 199.299 60.0482C189.207 73.3581 193.699 89.0548 201.595 95.198C204.193 92.7974 206.491 90.4442 208.563 88.1756C207.314 86.6196 206.67 84.5829 206.932 82.4493C207.448 78.2465 211.284 75.2591 215.5 75.7768C215.81 75.8148 216.114 75.8708 216.41 75.9434C215.954 81.2215 214.552 99.0952 215.845 105.522C217.369 113.1 231.259 116.62 236.18 117.224C240.43 117.746 240.778 113.716 241.027 110.828C241.063 110.412 241.097 110.02 241.14 109.668C241.23 108.934 240.271 108.818 239.188 108.687C237.782 108.517 236.165 108.322 236.363 106.714C236.578 104.961 239.173 103.914 241.496 102.978C242.945 102.394 244.288 101.853 244.88 101.209C246.748 99.1798 247.654 96.244 245.248 95.9485C243.932 95.787 242.035 96.3213 239.752 96.9641C236.306 97.9345 231.981 99.1522 227.456 98.5966C219.979 97.6786 221.154 73.4158 221.169 73.1111Z" fill="#191847"/>
<path fill-rule="evenodd" clip-rule="evenodd" d="M164.088 247.91L211.047 409.209L233.134 530.315H255.303L233.173 247.91H164.088Z" fill="#997659"/>
<path fill-rule="evenodd" clip-rule="evenodd" d="M142.985 247.91C146.261 331.704 144.969 377.407 144.236 385.021C143.502 392.634 139.339 443.621 110.969 532.87H134.027C171.598 447.251 184.713 396.263 189.023 385.021C193.332 373.778 206.058 328.074 224.639 247.91H142.985Z" fill="#B28B67"/>
<path fill-rule="evenodd" clip-rule="evenodd" d="M163.08 247.91C175.295 303.413 196.421 392.011 226.459 513.703H258.883C261.278 388.798 251.09 306.589 233.447 247.91H163.08Z" fill="#69A1AC"/>
<path fill-rule="evenodd" clip-rule="evenodd" d="M142.821 247.91C146.03 331.704 137.714 414.257 111.953 515.007H146.547C184.187 430.665 211.165 348.52 229.603 247.91H142.821Z" fill="#89C5CC"/>
<path fill-rule="evenodd" clip-rule="evenodd" d="M107.683 549.483L108.878 530.285C108.917 529.645 109.54 529.208 110.165 529.35C121.3 531.889 136.944 526.481 136.944 526.481C152.809 537.683 175.88 542.65 183.067 543.985C184.251 544.205 184.998 545.395 184.668 546.554L182.744 553.316H136.944H110.228L107.683 549.483Z" fill="#191847"/>
<path fill-rule="evenodd" clip-rule="evenodd" d="M228.186 549.483L229.38 530.285C229.42 529.645 230.042 529.208 230.667 529.35C241.803 531.889 257.447 526.481 257.447 526.481C273.311 537.683 296.382 542.65 303.57 543.985C304.754 544.205 305.5 545.395 305.171 546.554L303.247 553.316H257.447H230.73L228.186 549.483Z" fill="#191847"/>
<path fill-rule="evenodd" clip-rule="evenodd" d="M56.9571 296.428C62.4175 289.68 96.8087 216.016 96.8087 216.016L119.725 221.231C119.725 221.231 75.8614 298.863 72.7882 303.3C68.7959 309.064 71.0902 319.242 72.6459 326.143C72.8866 327.211 73.1096 328.2 73.2889 329.082C68.7731 329.996 67.2978 327.347 65.7425 324.554C63.9858 321.399 62.127 318.061 55.6696 319.467C53.1748 320.01 50.7585 320.771 48.3978 321.514C40.2436 324.082 32.7526 326.441 24.9793 318.893C23.7469 317.697 22.9232 314.042 27.2891 312.301C38.1661 307.965 54.2876 299.727 56.9571 296.428ZM311.409 281.348L274.59 244.823L262.007 265.974L300.451 289.092C309.99 304.406 315.617 311.039 317.333 308.991C318.78 307.264 318.145 305.347 317.561 303.582C317.106 302.207 316.681 300.923 317.294 299.893C318.695 297.539 326.447 298.978 333.746 300.657C341.044 302.336 339.39 298.741 337.855 296.857C331 291.229 322.185 286.059 311.409 281.348Z" fill="#B28B67"/>
<path fill-rule="evenodd" clip-rule="evenodd" d="M201.341 129.709L216.092 126.134C231.658 176.164 256.928 225.391 302.286 268.9L288.606 288.56C247.951 260.104 209.122 237.417 195.767 198.545C191.285 185.499 199.672 144.744 201.341 129.709Z" fill="#C5CFD6"/>
<path fill-rule="evenodd" clip-rule="evenodd" d="M140.948 262.143C140.948 262.143 202.157 273.618 238.135 269.95C241.106 269.647 241.963 264.805 240.874 261.384C223.904 208.111 213.048 161.945 215.948 126.122C209.892 128.576 195.507 125.361 195.507 125.361C166.447 160.183 151.034 201.577 140.948 262.143Z" fill="#323337"/>
<path fill-rule="evenodd" clip-rule="evenodd" d="M188.286 121.667C188.996 121.27 189.369 121.074 189.369 121.074L189.276 121.747L200.141 122.619C200.428 125.859 200.269 137.77 200.036 155.137C199.191 218.246 197.381 353.41 212.531 406.409L79.2525 395.702C86.8007 337.437 114.129 269.231 141.38 211.641C123.492 226.712 101.925 252.651 82.5888 297.161L58.1409 288.777C92.4181 181.696 171.513 131.405 186.789 122.522C186.957 122.209 187.123 121.897 187.289 121.587L188.286 121.667Z" fill="#DDE3E9"/>
</svg>
