<svg width="149" height="298" viewBox="0 0 149 298" fill="none" xmlns="http://www.w3.org/2000/svg">
<path fill-rule="evenodd" clip-rule="evenodd" d="M102.206 297.225C98.7219 297.983 94.8752 297.925 91.3265 297.863C72.2949 297.605 53.6062 288.631 41.4431 274.293C31.0886 262.086 28.2414 246.91 26.1958 231.569C25.993 230.046 25.906 228.532 25.7916 227.006C25.767 226.678 25.7303 226.386 25.6911 226.111C24.8866 225.395 24.4646 224.56 24.9408 223.642C23.1686 219.78 21.6694 215.82 20.383 211.735C16.597 199.712 12.7457 187.46 15.1181 174.817C15.6724 181.775 16.8383 188.889 18.2327 195.732C18.3129 196.125 18.3995 196.515 18.4896 196.903C18.4989 196.944 18.5075 196.985 18.5167 197.026C19.0104 199.122 19.652 201.155 20.4322 203.155C20.4404 203.177 20.4483 203.199 20.4568 203.22C20.5598 203.484 20.6693 203.746 20.7773 204.007C21.0007 204.55 21.2303 205.091 21.4737 205.629C21.5561 205.813 21.6352 205.998 21.7111 206.184C22.8471 208.957 23.3269 212.081 24.3445 214.95C24.5879 215.603 24.8424 216.253 25.109 216.899C25.1247 216.937 25.1408 216.975 25.1568 217.013C25.8775 218.752 26.6738 220.471 27.5157 222.171C27.9734 222.514 28.2179 223.363 28.6125 224.135C28.6941 224.288 29.3321 225.302 29.5221 225.887C30.0179 226.842 30.5119 227.798 31.0113 228.751C30.9963 228.746 30.9813 228.74 30.9664 228.735C31.4661 229.65 31.9672 230.562 32.4645 231.47C32.5739 231.669 32.6844 231.869 32.7945 232.069C32.9731 232.388 33.1517 232.706 33.3299 233.023C34.997 235.995 36.7645 238.906 38.6002 241.782C39.2553 242.808 40.8204 244.279 41.1206 245.431C41.1316 245.475 41.1341 245.514 41.1409 245.555C45.1241 251.127 49.7096 256.266 55.2087 260.338C54.544 259.622 53.1311 257.194 52.7575 256.713C51.6144 255.241 50.3733 253.87 49.1276 252.483C46.8966 249.999 44.7184 247.435 42.783 244.724C39.2436 239.767 36.19 234.549 33.3035 229.227C33.2761 229.195 33.2461 229.166 33.2201 229.134C31.7694 227.353 30.8562 224.661 29.8119 222.624C33.9448 224.53 38.5146 225.772 42.7562 227.465C46.9861 229.152 51.1008 231.032 55.0733 233.239C60.3532 236.171 65.8302 239.483 70.8189 243.23C76.5358 246.762 81.3398 251.623 85.5804 256.724C90.5976 262.76 95.1956 268.848 98.0393 276.176C99.4362 279.778 100.535 283.533 101.187 287.331C101.215 287.497 101.251 287.677 101.291 287.863C101.958 289.175 102.554 290.517 103.054 291.889C103.848 294.066 105.723 296.46 102.206 297.225Z" fill="#69A1AC"/>
<path fill-rule="evenodd" clip-rule="evenodd" d="M146.068 215.656C142.756 219.219 137.696 221.121 132.998 222.205C114.648 226.442 95.8316 223.629 78.5941 216.944C69.1488 213.282 60.2141 207.903 52.0677 202.036C47.3656 198.65 42.9864 194.823 39.4574 190.256C37.0759 187.174 35.1582 183.833 33.5651 180.298C31.6235 175.989 29.8457 171.546 28.4627 167.03C27.9181 165.251 24.6507 155.901 27.625 155.043C27.5532 154.81 27.4971 154.586 27.4688 154.38C18.5729 145.684 11.771 134.656 5.40613 124.181C-0.131981 115.066 -5.33431 105.785 -9.5769 96.0118C-15.1624 83.1448 -19.9427 69.879 -23.8657 56.4246C-24.7086 53.5331 -25.4996 50.6281 -26.2755 47.7169C-26.9366 45.2338 -27.5989 42.7509 -28.2589 40.2675C-28.9983 37.4843 -30.2384 34.3698 -30.4351 31.4787C-30.6068 28.961 -28.4164 28.8423 -27.7656 31.237C-26.9795 34.1289 -26.323 37.0566 -25.521 39.9471C-24.4561 43.783 -23.3861 47.6178 -22.3017 51.4481C-14.7657 78.0556 -3.68142 103.427 11.3456 126.735C17.4268 136.167 23.9219 144.925 31.577 153.182C38.3075 160.441 45.9499 167.209 53.5919 173.391C61.0193 179.399 68.6351 185.184 77.0958 189.774C83.9617 193.498 91.2476 196.441 98.6383 199.038C108.026 202.337 117.368 205.514 127.158 207.449C132.247 208.455 137.373 209.225 142.479 210.139C143.397 210.303 144.374 210.443 145.273 210.671C148.275 211.432 147.872 213.716 146.068 215.656Z" fill="#C1DEE2"/>
<path fill-rule="evenodd" clip-rule="evenodd" d="M55.2123 148.906C62.8696 148.906 69.6833 147.909 76.7386 144.862C82.8288 142.231 88.3789 138.749 93.7675 134.958C101.347 129.626 107.318 123.42 111.497 115.198C113.993 110.286 115.825 103.335 114.148 97.9771C112.173 91.6668 106.75 86.4039 99.6072 87.5158C95.1906 88.2027 91.1417 91.1309 87.7848 93.8868C83.7691 97.1839 80.5545 101.148 77.9002 105.551C73.5703 112.734 71.0259 120.853 67.3478 128.359C65.6025 131.921 63.9158 135.508 61.8254 138.893C60.7905 140.57 59.6887 142.23 58.1188 143.476C57.2789 144.142 53.7373 145.296 55.0917 146.792C35.2345 146.531 17.6432 131.257 13.8313 112.351C13.4762 110.589 13.1988 108.812 12.9056 107.039C12.7206 105.92 12.7953 101.791 11.796 101.076C9.59211 99.498 10.5185 104.291 10.6131 104.981C10.8575 106.764 11.1183 108.547 11.3919 110.325C12.8804 120.002 17.1814 128.997 24.3541 135.897C32.5564 143.788 43.6232 148.906 55.2123 148.906Z" fill="#89C5CC"/>
</svg>
