<svg width="294" height="309" viewBox="0 0 294 309" fill="none" xmlns="http://www.w3.org/2000/svg">
<path fill-rule="evenodd" clip-rule="evenodd" d="M83.4524 262.16C80.4664 254.362 76.1803 247.035 72.1292 239.762C65.6224 228.079 58.1476 218.452 46.3482 212.068C27.159 201.684 6.44661 198.23 -14.9186 199.411C-26.0552 200.026 -37.433 201.721 -47.8934 205.69C-52.5488 207.457 -57.0804 209.535 -61.5596 211.709C-64.3272 213.052 -67.0469 214.487 -69.7543 215.947C-71.384 216.827 -74.3035 217.725 -75.3412 219.354C-76.588 221.312 -75.2914 224.107 -72.9249 224.172C-70.9095 224.229 -68.4875 222.213 -66.7248 221.306C-62.6686 219.219 -58.5171 217.35 -54.3172 215.577C-47.7598 212.811 -41.178 210.7 -34.1967 209.397C-20.0482 206.757 -5.09193 206.59 9.19645 208.458C4.13424 220.489 5.75791 232.509 12.1987 243.727C21.3676 259.697 32.844 271.758 49.4047 279.759C60.1598 284.955 71.2109 285.165 82.6044 282.609C84.7589 282.126 87.6973 281.147 88.3689 278.675C89.0158 276.295 87.2798 273.115 86.5533 270.876C85.5995 267.939 84.5564 265.043 83.4524 262.16Z" fill="#DDE3E9"/>
<path fill-rule="evenodd" clip-rule="evenodd" d="M-21.403 113.16C-2.11526 107.673 17.1248 102.366 36.9717 99.1917C48.6675 97.3218 60.4545 96.2878 72.2132 94.9019C70.7847 95.1855 69.3611 95.5043 67.9476 95.8567C71.5191 95.5955 75.4465 96.553 79.0979 96.5111C83.1704 96.4646 87.2585 96.0812 91.3009 95.6491C99.1906 94.8067 107.041 93.839 114.964 93.2977C123.791 92.6954 132.662 92.5521 141.505 92.1737C149.009 91.8527 156.772 91.2396 164.291 91.779C168.39 92.0728 172.663 92.0819 176.813 92.3163C178.202 92.3949 193.095 91.8031 193.08 91.7664C192.739 90.9614 185.757 90.3696 184.707 90.2261C181.641 89.8059 178.568 89.6478 175.485 89.4785C178.285 87.6472 180.888 85.5269 183.101 82.9901C183.785 82.2072 188.886 76.5814 188.483 75.6281C188.281 75.1519 178.17 84.6478 177.354 85.6513C176.691 86.4664 175.967 87.7733 175.183 88.4546C173.917 89.5552 174.18 89.1539 172.69 89.3241C169.959 89.6361 166.908 89.0529 164.154 89.041C162.677 89.0196 157.792 89.4967 155.303 88.9978C147.234 88.4188 138.128 89.4424 129.884 89.896C133.16 87.8447 136.139 85.4412 138.879 82.7017C139.53 82.0517 145.747 76.4374 145.441 75.713C145.095 74.8978 134.754 82.9825 133.926 83.8354C132.388 85.4193 131.101 87.4284 129.474 88.894C127.688 90.5025 125.271 90.0404 122.792 90.1459C113.673 90.534 104.629 91.3206 95.5729 92.3764C95.7583 76.0495 112.301 65.7789 124.975 59.3256C134.11 54.6749 144.309 52.058 154.405 50.4633C167.879 48.3348 181.815 48.4701 195.445 49.1052C211.328 49.8453 226.81 53.569 241.599 59.7093C249.334 62.9206 256.672 67.2036 263.758 71.7105C267.219 73.9119 270.353 76.3534 273.084 79.4804C274.315 80.8905 275.415 82.407 276.433 83.9805C277.206 85.1761 279.517 87.3034 279.666 88.5041C280.956 98.2775 279.725 106.56 274.42 114.833C269.398 122.665 262.221 129.254 254.641 134.445C246.199 140.224 237.086 144.63 227.128 146.99C219.529 148.791 211.697 149.652 203.932 150.482C176.315 153.433 144.557 151.521 121.208 133.776C113.649 128.032 107.544 120.688 102.536 112.613C101.356 110.71 100.192 108.803 99.2034 106.79C98.5362 105.433 97.522 100.471 96.4982 99.7195C95.0947 98.6893 90.1094 99.8757 88.1689 99.9921C73.4209 100.878 58.7322 102.309 44.0878 104.167C28.5073 106.144 13.1348 108.99 -2.17283 112.425C-8.68362 113.886 -15.1724 115.372 -21.6359 117.036C-23.1399 117.423 -27.4905 119.536 -29.324 118.685C-30.4835 118.146 -30.6832 116.773 -29.9371 115.842C-28.6401 114.222 -23.3778 113.722 -21.403 113.16Z" fill="#C1DEE2"/>
<path fill-rule="evenodd" clip-rule="evenodd" d="M58.2613 154.314C58.9958 154.06 70.9996 155.291 70.9588 154.085C70.9413 153.567 66.2939 153.198 65.655 153.175C63.1275 153.083 60.649 153.568 58.2613 154.314ZM47.1239 133.693C47.0971 133.767 44.5918 135.187 43.8661 135.65C42.3222 136.632 40.8187 137.675 39.3538 138.743C41.7595 136.751 44.0849 134.958 47.1239 133.693ZM125.406 202.224C126.397 203.32 128.754 202.616 127.396 201.323C126.295 200.279 126.399 200.243 126.421 198.88C126.439 197.773 126.742 196.586 126.841 195.471C127.05 193.105 127.094 190.759 126.848 188.396C126.323 183.33 124.948 178.432 122.91 173.797C119.353 165.708 114.822 157.577 108.683 151.261C98.9219 141.219 85.7587 133.347 72.7481 128.89C64.6904 126.13 56.6511 124.778 48.4713 127.845C44.3832 129.378 40.5226 131.71 37.5235 135.001C36.7399 135.862 36.148 136.98 35.3222 137.788C34.0526 139.031 34.463 138.742 32.5674 138.032C30.4976 137.257 28.4257 136.489 26.351 135.727C20.9186 133.732 15.4269 131.774 9.81297 130.386C7.96549 129.928 6.09409 129.593 4.20626 129.369C2.77876 129.199 -2.66715 128.108 -4.08108 129.279C-6.43445 131.226 -2.69742 131.885 -1.42612 131.899C-0.3124 131.911 0.805317 131.968 1.9154 132.068C4.71043 132.318 7.46397 132.853 10.1761 133.579C13.1072 134.364 15.9906 135.351 18.8644 136.332C21.5442 137.247 24.2083 138.21 26.8644 139.194C28.3401 139.74 29.8131 140.294 31.2862 140.847C31.7894 141.036 32.8296 141.106 32.4227 141.669C35.5647 142.755 38.5761 144.598 41.5424 146.11C45.1755 147.962 48.8024 149.854 52.277 152.008C54.7829 153.561 57.2403 155.203 59.5809 157.013C60.9485 158.071 62.2388 159.207 63.4797 160.42C64.1611 161.086 67.0639 163.34 67.096 164.29C67.0822 163.882 63.4343 162.164 63.0012 161.891C61.268 160.802 59.6118 159.611 57.9609 158.394C54.8972 156.137 51.7309 154.053 48.4293 152.184C48.108 152.769 49.7577 155.095 50.0844 155.795C50.8165 157.363 51.4517 158.98 51.9557 160.642C52.8439 163.569 53.8638 167.15 53.9624 170.068C53.9333 169.208 52.464 167.262 52.0528 166.381C51.3944 164.968 50.7882 163.517 50.2733 162.042C49.798 160.681 49.4236 159.291 49.0749 157.89C48.7265 156.489 48.6287 153.938 47.8341 152.68C47.7862 152.604 47.0616 152.711 46.8565 152.414C46.6497 152.115 46.6843 151.235 46.628 151.166C45.8033 150.142 43.492 149.489 42.3458 148.896C39.3741 147.359 36.3811 145.864 33.3963 144.354C32.4717 143.885 31.8281 143.242 31.107 143.709C30.3384 144.207 29.9267 146.447 29.6702 147.325C28.717 150.587 28.4757 153.865 29.1469 157.206C30.4033 163.463 33.3093 168.829 37.3282 173.616C52.7212 191.952 71.8115 206.758 95.546 210.632C105.372 212.236 120.665 213.794 125.406 202.224Z" fill="#89C5CC"/>
</svg>
