<svg width="114" height="264" viewBox="0 0 114 264" fill="none" xmlns="http://www.w3.org/2000/svg">
<path fill-rule="evenodd" clip-rule="evenodd" d="M27.4287 79.9797C24.3707 79.9797 21.322 80.0409 18.2679 80.1993C15.9398 80.3207 12.3822 79.8396 10.4122 81.286C8.36553 82.7882 8.50648 85.8634 8.82621 88.0351C10.5164 99.5195 14.6417 109.703 23.2717 117.839C36.5594 130.368 51.7925 136.734 69.818 139.569C82.48 141.56 94.1691 138.795 103.49 129.82C110.3 142.419 115.467 156.361 118.06 170.433C119.338 177.376 119.729 184.236 119.504 191.306C119.359 195.835 119.109 200.352 118.622 204.86C118.411 206.818 117.409 209.783 118.178 211.633C119.081 213.807 122.125 214.017 123.492 212.164C124.629 210.621 124.42 207.592 124.654 205.767C125.041 202.735 125.4 199.7 125.656 196.654C126.073 191.723 126.381 186.779 126.359 181.829C126.307 170.709 123.826 159.545 120.433 148.989C113.924 128.737 103.362 110.739 86.9365 96.6171C76.8368 87.9336 65.2776 84.417 52.1632 82.5294C43.9983 81.3541 35.7001 79.9797 27.4287 79.9797Z" fill="#89C5CC"/>
<path fill-rule="evenodd" clip-rule="evenodd" d="M74.9139 159.614C42.0265 159.614 19.8767 186.347 9.40397 214.131C5.45616 224.603 4.53087 236.103 3.00938 247.1C2.52088 250.629 2.70185 256.006 1.2816 259.15C0.766181 260.29 -0.415469 260.7 0.149504 262.253C0.491504 263.194 1.16258 263.77 2.17027 263.957C4.23896 264.341 7.164 262.069 8.93756 261.172C23.6484 253.731 33.3138 242.226 41.1987 228.149C46.0863 219.424 51.0456 210.367 53.9491 200.788C55.7226 194.937 56.7551 188.775 57.3615 182.704C57.6001 180.314 57.8312 177.867 57.8172 175.461C57.8032 173.075 56.7023 171.814 55.9111 169.737C66.8847 165.547 79.271 164.406 90.3869 168.747C100.668 172.762 109.208 180.522 113.99 190.27C115.233 192.804 116.191 195.477 116.889 198.204C117.346 199.99 117.368 202.307 118.214 203.921C120.267 207.835 124.587 205.218 124.172 201.575C123.016 191.411 117.251 181.208 109.882 174.141C100.589 165.23 87.9923 159.614 74.9139 159.614Z" fill="#89C5CC"/>
<path fill-rule="evenodd" clip-rule="evenodd" d="M120.973 94.5365C121.121 93.8936 120.75 92.6757 120.626 92.0886C120.108 89.6485 119.312 87.2475 118.332 84.953C115.3 77.8824 111.535 70.989 107.362 64.5446C104.713 60.453 99.8642 56.2093 99.3823 51.2194C98.5431 42.5261 95.1198 34.8398 88.5492 29.0579C82.5414 23.7719 74.3642 21.3034 66.5983 21.1413C65.426 21.1171 61.0404 20.8608 58.3846 21.3922C57.7931 21.3871 57.2017 21.3922 56.6117 21.4209C54.9366 21.5028 53.2596 21.651 51.5944 21.8343C50.8838 21.9122 49.29 22.0256 49.2647 22.7099C47.1964 22.5171 45.1208 22.4496 43.0466 22.5407C37.0145 22.8059 30.4006 23.1039 24.5984 24.7695C22.4499 25.3862 20.3941 26.2527 18.4511 27.3617C17.4909 27.9098 15.4388 28.729 14.9632 29.7418C13.954 31.8912 16.5543 31.6632 17.5711 31.0353C25.3196 26.2471 34.1294 25.3417 43.1381 24.8804C48.9634 24.5821 54.8685 25.6576 60.4952 27.2845C65.0495 28.6008 68.9719 30.4242 72.8251 33.2491C77.5369 36.7037 81.8609 40.7019 86.1723 44.6517C89.0085 47.2492 91.8071 49.8673 94.4794 52.641C95.074 53.2578 96.2865 54.1097 96.6379 54.9248C97.3814 56.6486 97.1521 59.6391 97.3903 61.5091C98.1731 67.66 98.5487 74.0676 100.173 80.0763C101.214 83.9306 103.244 87.0914 105.908 89.9746C106.18 90.2694 106.747 90.716 107.506 91.2356C109.555 93.3455 111.797 95.2118 114.448 96.5383C115.976 97.3025 117.753 97.8289 119.378 98.3072C119.864 98.4504 120.332 98.4057 120.725 98.2431C120.938 98.4176 121.139 98.5082 121.314 98.4734C122.602 98.2157 121.661 95.9506 120.973 94.5365Z" fill="#89C5CC"/>
</svg>
