<svg width="210" height="397" viewBox="0 0 210 397" fill="none" xmlns="http://www.w3.org/2000/svg">
<path fill-rule="evenodd" clip-rule="evenodd" d="M62.0904 395.673C66.7282 396.683 71.8489 396.605 76.573 396.522C101.908 396.179 126.787 384.233 142.979 365.146C156.763 348.896 160.554 328.693 163.277 308.271C163.547 306.243 163.662 304.228 163.815 302.196C163.847 301.76 163.896 301.371 163.949 301.005C165.019 300.051 165.581 298.94 164.947 297.718C167.307 292.577 169.302 287.305 171.015 281.867C176.055 265.861 181.182 249.552 178.024 232.721C177.286 241.983 175.734 251.454 173.877 260.564C173.771 261.087 173.655 261.606 173.535 262.123C173.523 262.177 173.512 262.232 173.499 262.286C172.842 265.076 171.988 267.782 170.949 270.446C170.938 270.475 170.928 270.503 170.917 270.532C170.779 270.882 170.634 271.231 170.49 271.58C170.192 272.302 169.887 273.022 169.563 273.739C169.453 273.983 169.348 274.23 169.247 274.478C167.735 278.169 167.096 282.328 165.741 286.147C165.417 287.016 165.078 287.881 164.723 288.741C164.703 288.792 164.681 288.842 164.66 288.893C163.7 291.208 162.64 293.496 161.52 295.76C160.91 296.216 160.585 297.347 160.06 298.375C159.951 298.577 159.102 299.928 158.849 300.706C158.189 301.978 157.531 303.25 156.866 304.519C156.886 304.512 156.906 304.505 156.926 304.497C156.261 305.716 155.594 306.93 154.932 308.139C154.786 308.404 154.639 308.67 154.492 308.936C154.255 309.36 154.017 309.784 153.78 310.207C151.56 314.162 149.207 318.038 146.764 321.866C145.892 323.232 143.808 325.191 143.408 326.725C143.394 326.782 143.39 326.835 143.381 326.89C138.079 334.306 131.974 341.148 124.654 346.568C125.539 345.616 127.42 342.383 127.917 341.743C129.439 339.783 131.091 337.959 132.749 336.112C135.719 332.804 138.619 329.392 141.195 325.783C145.907 319.183 149.972 312.238 153.815 305.152C153.851 305.111 153.891 305.071 153.926 305.029C155.857 302.658 157.073 299.075 158.463 296.363C152.961 298.9 146.878 300.554 141.231 302.807C135.6 305.053 130.123 307.555 124.834 310.493C117.806 314.397 110.514 318.805 103.873 323.794C96.2628 328.496 89.8675 334.967 84.2224 341.757C77.5434 349.792 71.4224 357.897 67.6368 367.653C65.7773 372.447 64.3144 377.446 63.447 382.503C63.409 382.723 63.3606 382.962 63.308 383.211C62.4207 384.957 61.6273 386.743 60.9616 388.57C59.9044 391.468 57.4076 394.655 62.0904 395.673Z" fill="#69A1AC"/>
<path fill-rule="evenodd" clip-rule="evenodd" d="M3.69973 287.087C8.10936 291.83 14.8452 294.362 21.0994 295.805C45.5269 301.445 70.5759 297.7 93.5229 288.802C106.097 283.926 117.991 276.766 128.835 268.956C135.095 264.448 140.925 259.353 145.623 253.274C148.793 249.171 151.346 244.723 153.467 240.017C156.051 234.281 158.418 228.367 160.259 222.354C160.984 219.987 165.334 207.539 161.374 206.397C161.47 206.088 161.545 205.789 161.582 205.514C173.425 193.938 182.479 179.257 190.953 165.313C198.325 153.178 205.25 140.824 210.898 127.813C218.334 110.685 224.697 93.0247 229.92 75.114C231.042 71.2647 232.095 67.3975 233.128 63.5221C234.008 60.2165 234.89 56.9112 235.768 53.6052C236.753 49.9002 238.403 45.7541 238.665 41.9054C238.894 38.5536 235.978 38.3957 235.112 41.5836C234.065 45.4333 233.191 49.3308 232.123 53.1786C230.706 58.2852 229.281 63.3901 227.838 68.4891C217.806 103.91 203.05 137.685 183.046 168.713C174.95 181.269 166.304 192.928 156.113 203.919C147.153 213.583 136.98 222.593 126.806 230.823C116.919 238.82 106.781 246.522 95.5174 252.631C86.3774 257.589 76.6782 261.507 66.8395 264.965C54.343 269.356 41.9063 273.585 28.8733 276.162C22.0987 277.501 15.2749 278.525 8.47812 279.742C7.25521 279.961 5.95536 280.147 4.75764 280.451C0.762235 281.464 1.29881 284.504 3.69973 287.087Z" fill="#C1DEE2"/>
<path fill-rule="evenodd" clip-rule="evenodd" d="M124.649 198.227C114.456 198.227 105.385 196.901 95.9928 192.844C87.8855 189.342 80.497 184.706 73.3235 179.659C63.2332 172.561 55.2855 164.3 49.7222 153.354C46.3986 146.815 43.9605 137.562 46.1926 130.43C48.8219 122.029 56.0413 115.023 65.5496 116.503C71.4292 117.418 76.8191 121.316 81.2879 124.985C86.6338 129.374 90.9131 134.651 94.4466 140.513C100.211 150.074 103.598 160.883 108.494 170.874C110.818 175.616 113.063 180.392 115.846 184.899C117.223 187.13 118.69 189.341 120.78 190.999C121.898 191.886 126.613 193.422 124.81 195.414C151.244 195.066 174.662 174.733 179.737 149.564C180.209 147.219 180.579 144.854 180.969 142.493C181.215 141.003 181.116 135.507 182.446 134.555C185.38 132.454 184.147 138.835 184.021 139.753C183.695 142.128 183.348 144.5 182.984 146.868C181.003 159.749 175.277 171.724 165.728 180.91C154.809 191.414 140.077 198.227 124.649 198.227Z" fill="#89C5CC"/>
</svg>
