<svg width="198" height="198" viewBox="0 0 198 198" fill="none" xmlns="http://www.w3.org/2000/svg">
<path fill-rule="evenodd" clip-rule="evenodd" d="M86.9971 0.740581C83.1532 -0.0958369 78.909 -0.0318215 74.9935 0.0371772C53.9948 0.321605 33.3745 10.2241 19.9543 26.0466C8.52957 39.5167 5.38806 56.2638 3.13104 73.1931C2.90727 74.8739 2.81131 76.5441 2.68507 78.2284C2.65793 78.5899 2.61742 78.9123 2.57416 79.2159C1.68653 80.0063 1.22089 80.9278 1.74631 81.9402C-0.209064 86.2024 -1.86319 90.5727 -3.28253 95.0802C-7.45992 108.348 -11.7093 121.868 -9.09163 135.819C-8.48009 128.142 -7.19368 120.291 -5.65517 112.739C-5.56669 112.306 -5.47112 111.876 -5.37162 111.447C-5.36139 111.402 -5.35196 111.357 -5.34173 111.312C-4.79704 108.999 -4.08914 106.756 -3.22826 104.548C-3.21921 104.524 -3.21056 104.5 -3.20112 104.476C-3.08746 104.186 -2.96673 103.897 -2.84756 103.608C-2.60098 103.009 -2.34771 102.412 -2.0791 101.818C-1.98825 101.616 -1.90095 101.411 -1.81718 101.205C-0.563801 98.1457 -0.0344496 94.6981 1.08836 91.5322C1.35697 90.8123 1.63777 90.0951 1.93194 89.3817C1.94924 89.3399 1.96694 89.2981 1.98464 89.2564C2.77985 87.3367 3.65843 85.4403 4.58735 83.564C5.09232 83.186 5.36211 82.2484 5.79747 81.3962C5.88753 81.2283 6.59149 80.1087 6.80111 79.4635C7.34816 78.4094 7.89324 77.3548 8.44422 76.3026C8.42771 76.3087 8.41119 76.3149 8.39467 76.321C8.94605 75.3106 9.49899 74.3043 10.0476 73.3023C10.1684 73.0823 10.2903 72.8619 10.4118 72.6411C10.6088 72.2896 10.8059 71.9384 11.0025 71.5881C12.8419 68.3095 14.7921 65.0965 16.8175 61.9233C17.5403 60.7909 19.2672 59.1672 19.5984 57.8957C19.6106 57.8481 19.6133 57.8044 19.6208 57.7588C24.0157 51.6107 29.0752 45.9397 35.1427 41.4464C34.4092 42.236 32.8502 44.9159 32.4381 45.4464C31.1768 47.0709 29.8075 48.5831 28.433 50.1138C25.9714 52.8557 23.5681 55.6846 21.4326 58.6761C17.5274 64.147 14.1582 69.9045 10.9734 75.7778C10.9431 75.8123 10.9101 75.8449 10.8814 75.8802C9.28073 77.8455 8.27315 80.8159 7.12084 83.0641C11.6809 80.9604 16.7231 79.59 21.4031 77.7221C26.0701 75.8599 30.6101 73.7861 34.9932 71.3508C40.8188 68.1144 46.8619 64.4601 52.3663 60.3248C58.674 56.4275 63.9746 51.0633 68.6535 45.4341C74.1892 38.7738 79.2625 32.0553 82.4001 23.9682C83.9413 19.9943 85.1538 15.8505 85.8727 11.6585C85.9042 11.4756 85.9443 11.2775 85.988 11.0716C86.7234 9.62378 87.381 8.14338 87.9327 6.62885C88.8089 4.22693 90.8784 1.58467 86.9971 0.740581Z" fill="#69A1AC"/>
<path fill-rule="evenodd" clip-rule="evenodd" d="M196.925 97.1173C197.773 99.9148 197.065 102.377 193.718 101.683C192.715 101.475 191.678 101.142 190.687 100.861C185.177 99.3022 179.718 97.5896 174.181 96.13C163.528 93.3225 152.717 91.9632 141.803 90.7037C133.21 89.7123 124.553 89.1147 115.934 89.4955C105.312 89.9649 94.9494 92.03 84.6654 94.4066C74.0839 96.853 63.2179 99.8805 53.0182 103.837C41.4174 108.336 30.7241 113.894 20.1148 120.321C-6.10192 136.203 -29.4077 156.039 -49.7925 178.815C-52.7266 182.094 -55.6485 185.385 -58.5659 188.679C-60.7638 191.161 -62.8355 193.751 -65.0184 196.242C-66.8258 198.306 -68.9415 197.13 -67.5498 194.713C-65.9521 191.938 -63.2108 189.444 -61.1271 187.038C-59.2675 184.891 -57.4059 182.746 -55.5453 180.6C-53.3633 178.085 -51.1692 175.583 -48.9301 173.119C-38.5109 161.656 -27.3326 150.794 -15.5487 140.717C-6.59813 133.063 3.06579 126.362 12.9827 119.987C24.3794 112.662 36.478 104.999 49.523 100.663C49.6512 100.471 49.8158 100.276 49.9999 100.08C47.4648 97.7911 55.2428 90.0858 56.6459 88.583C60.2091 84.7668 64.1284 81.2146 68.1449 77.8748C71.4407 75.1343 74.9643 72.7432 78.8224 70.8337C84.539 68.005 90.7406 66.3207 97.0491 65.2297C107.978 63.3401 119.452 62.3164 130.601 63.2427C150.947 64.933 170.981 71.2302 187.133 84.3006C191.269 87.647 195.367 91.9793 196.925 97.1173Z" fill="#C1DEE2"/>
<path fill-rule="evenodd" clip-rule="evenodd" d="M35.3394 118.573C43.7945 118.573 51.3182 119.672 59.1087 123.035C65.8334 125.938 71.9618 129.781 77.9119 133.964C86.2814 139.848 92.8737 146.696 97.4882 155.77C100.245 161.191 102.267 168.861 100.416 174.773C98.2349 181.737 92.2468 187.545 84.3601 186.318C79.4832 185.56 75.0125 182.328 71.3058 179.287C66.8716 175.649 63.3221 171.274 60.3912 166.415C55.6102 158.489 52.8007 149.529 48.7394 141.247C46.8122 137.316 44.9498 133.357 42.6416 129.622C41.4989 127.772 40.2823 125.939 38.5488 124.565C37.6213 123.829 33.7108 122.556 35.2062 120.905C13.2801 121.193 -6.14418 138.048 -10.3533 158.912C-10.7453 160.856 -11.0517 162.817 -11.3754 164.773C-11.5797 166.009 -11.4972 170.565 -12.6006 171.354C-15.0341 173.095 -14.0112 167.806 -13.9067 167.044C-13.6369 165.076 -13.3489 163.11 -13.0469 161.147C-11.4033 150.469 -6.65406 140.543 1.26602 132.928C10.3229 124.22 22.5428 118.573 35.3394 118.573Z" fill="#89C5CC"/>
</svg>
