<svg width="291" height="286" viewBox="0 0 291 286" fill="none" xmlns="http://www.w3.org/2000/svg">
<path fill-rule="evenodd" clip-rule="evenodd" d="M194.527 243.206C197.297 235.972 201.273 229.175 205.031 222.427C211.068 211.59 218.002 202.659 228.948 196.736C246.75 187.103 265.965 183.898 285.786 184.994C296.117 185.565 306.672 187.137 316.376 190.819C320.695 192.459 324.899 194.386 329.055 196.403C331.622 197.649 334.145 198.98 336.657 200.335C338.169 201.151 340.877 201.984 341.84 203.495C342.997 205.312 341.794 207.904 339.598 207.965C337.729 208.018 335.482 206.148 333.846 205.306C330.084 203.37 326.232 201.636 322.336 199.991C316.253 197.425 310.147 195.467 303.67 194.258C290.544 191.808 276.669 191.654 263.414 193.387C268.11 204.548 266.604 215.699 260.629 226.106C252.123 240.921 241.476 252.111 226.113 259.533C216.135 264.354 205.883 264.548 195.313 262.177C193.315 261.729 190.589 260.821 189.966 258.527C189.365 256.32 190.976 253.369 191.65 251.292C192.535 248.568 193.502 245.881 194.527 243.206Z" fill="#69A1AC"/>
<path fill-rule="evenodd" clip-rule="evenodd" d="M291.801 104.979C273.908 99.8887 256.059 94.9652 237.647 92.0204C226.797 90.2856 215.862 89.3264 204.953 88.0406C206.278 88.3037 207.599 88.5995 208.91 88.9264C205.597 88.6842 201.954 89.5724 198.566 89.5336C194.788 89.4905 190.996 89.1347 187.245 88.7339C179.926 87.9524 172.643 87.0546 165.293 86.5525C157.104 85.9937 148.874 85.8608 140.671 85.5098C133.709 85.2119 126.508 84.6432 119.532 85.1436C115.73 85.4161 111.766 85.4246 107.916 85.642C106.627 85.715 92.8104 85.1659 92.8248 85.1318C93.141 84.3851 99.6186 83.836 100.592 83.7029C103.437 83.3131 106.288 83.1664 109.148 83.0094C106.55 81.3105 104.135 79.3435 102.082 76.9901C101.448 76.2638 96.7151 71.0447 97.0895 70.1603C97.2766 69.7186 106.657 78.5279 107.414 79.4589C108.029 80.215 108.701 81.4275 109.428 82.0596C110.602 83.0805 110.358 82.7082 111.74 82.8661C114.274 83.1556 117.104 82.6146 119.66 82.6035C121.03 82.5836 125.561 83.0262 127.871 82.5634C135.356 82.0263 143.804 82.9759 151.452 83.3967C148.413 81.4937 145.649 79.264 143.107 76.7226C142.503 76.1195 136.735 70.9112 137.02 70.2391C137.34 69.4828 146.934 76.983 147.702 77.7742C149.129 79.2437 150.323 81.1075 151.832 82.4672C153.489 83.9593 155.731 83.5307 158.031 83.6285C166.491 83.9886 174.881 84.7183 183.282 85.6978C183.11 70.5513 167.763 61.0232 156.006 55.0364C147.531 50.722 138.069 48.2943 128.703 46.8148C116.204 44.8402 103.275 44.9657 90.6303 45.555C75.8962 46.2415 61.5334 49.6961 47.8138 55.3924C40.6381 58.3716 33.8299 62.3449 27.2566 66.526C24.0453 68.5682 21.1386 70.8332 18.6048 73.7342C17.4632 75.0423 16.4419 76.4491 15.4979 77.9089C14.7806 79.0181 12.6368 80.9915 12.4987 82.1055C11.3023 91.1723 12.4441 98.8563 17.3656 106.531C22.0239 113.796 28.6825 119.909 35.7147 124.725C43.5457 130.086 51.9998 134.173 61.2387 136.363C68.2878 138.034 75.5533 138.833 82.7568 139.603C108.378 142.34 137.84 140.566 159.501 124.104C166.513 118.775 172.177 111.963 176.823 104.471C177.917 102.706 178.997 100.937 179.914 99.0694C180.533 97.8107 181.474 93.2071 182.424 92.51C183.726 91.5542 188.351 92.6549 190.151 92.7628C203.833 93.5848 217.46 94.912 231.045 96.6359C245.499 98.4703 259.76 101.11 273.961 104.297C280.001 105.653 286.021 107.031 292.017 108.575C293.412 108.934 297.449 110.894 299.15 110.104C300.225 109.605 300.41 108.33 299.718 107.467C298.515 105.964 293.633 105.5 291.801 104.979Z" fill="#C1DEE2"/>
<path fill-rule="evenodd" clip-rule="evenodd" d="M217.896 143.157C217.215 142.922 206.079 144.064 206.117 142.945C206.133 142.464 210.444 142.122 211.037 142.101C213.382 142.015 215.681 142.466 217.896 143.157ZM228.229 124.027C228.253 124.096 230.578 125.414 231.251 125.843C232.683 126.754 234.078 127.721 235.437 128.712C233.205 126.865 231.048 125.201 228.229 124.027ZM155.606 187.604C154.687 188.621 152.5 187.967 153.76 186.768C154.781 185.799 154.684 185.766 154.664 184.502C154.648 183.475 154.367 182.373 154.275 181.339C154.08 179.145 154.04 176.968 154.268 174.776C154.755 170.076 156.031 165.532 157.922 161.232C161.222 153.728 165.424 146.184 171.12 140.325C180.175 131.009 192.387 123.706 204.457 119.572C211.932 117.011 219.39 115.757 226.979 118.603C230.771 120.025 234.353 122.188 237.135 125.241C237.862 126.039 238.411 127.076 239.177 127.826C240.355 128.98 239.974 128.711 241.733 128.053C243.653 127.333 245.575 126.621 247.5 125.914C252.539 124.064 257.634 122.247 262.842 120.959C264.556 120.535 266.292 120.224 268.043 120.016C269.368 119.858 274.42 118.847 275.732 119.932C277.915 121.739 274.448 122.35 273.269 122.363C272.235 122.375 271.198 122.427 270.169 122.52C267.576 122.751 265.021 123.248 262.505 123.922C259.786 124.65 257.111 125.566 254.445 126.475C251.959 127.324 249.487 128.218 247.023 129.131C245.654 129.637 244.288 130.151 242.921 130.665C242.454 130.84 241.489 130.904 241.867 131.427C238.952 132.434 236.158 134.144 233.407 135.547C230.036 137.265 226.671 139.02 223.448 141.018C221.123 142.459 218.844 143.983 216.672 145.662C215.403 146.643 214.206 147.697 213.055 148.822C212.423 149.44 209.73 151.531 209.7 152.413C209.713 152.034 213.097 150.44 213.499 150.187C215.107 149.176 216.644 148.072 218.175 146.943C221.017 144.848 223.955 142.915 227.018 141.182C227.316 141.725 225.785 143.882 225.482 144.531C224.803 145.986 224.214 147.486 223.746 149.028C222.922 151.744 221.976 155.065 221.885 157.772C221.911 156.975 223.275 155.17 223.656 154.352C224.267 153.041 224.829 151.695 225.307 150.327C225.748 149.064 226.095 147.774 226.419 146.475C226.742 145.175 226.833 142.808 227.57 141.642C227.614 141.571 228.286 141.67 228.477 141.395C228.668 141.117 228.636 140.301 228.689 140.237C229.454 139.287 231.598 138.681 232.661 138.132C235.418 136.705 238.195 135.319 240.964 133.917C241.822 133.483 242.419 132.886 243.088 133.319C243.801 133.782 244.183 135.859 244.42 136.674C245.305 139.7 245.529 142.741 244.906 145.841C243.74 151.645 241.044 156.623 237.316 161.064C223.036 178.074 205.326 191.81 183.307 195.404C174.191 196.892 160.004 198.337 155.606 187.604Z" fill="#89C5CC"/>
</svg>
