<svg width="353" height="110" viewBox="0 0 353 110" fill="none" xmlns="http://www.w3.org/2000/svg">
<path d="M2.46484 71V53.9375H7.50391C9.33203 53.9375 10.7188 54.3164 11.6641 55.0742C12.6094 55.8242 13.082 56.9336 13.082 58.4023C13.082 59.2852 12.8398 60.0547 12.3555 60.7109C11.8789 61.3594 11.2227 61.8242 10.3867 62.1055C11.3789 62.3242 12.1758 62.8125 12.7773 63.5703C13.3867 64.3281 13.6914 65.2031 13.6914 66.1953C13.6914 67.7031 13.2031 68.8828 12.2266 69.7344C11.2578 70.5781 9.90625 71 8.17188 71H2.46484ZM3.90625 62.7969V69.7812H8.23047C9.46484 69.7812 10.4414 69.4688 11.1602 68.8438C11.8867 68.2109 12.25 67.3359 12.25 66.2188C12.25 65.1641 11.9023 64.332 11.207 63.7227C10.5195 63.1055 9.56641 62.7969 8.34766 62.7969H3.90625ZM3.90625 61.5898H7.84375C9.04688 61.5664 9.97656 61.2852 10.6328 60.7461C11.2969 60.1992 11.6289 59.4062 11.6289 58.3672C11.6289 57.2734 11.2852 56.4688 10.5977 55.9531C9.91797 55.4297 8.88672 55.168 7.50391 55.168H3.90625V61.5898ZM18.6367 69.7812H27.0625V71H17.1836V53.9375H18.6367V69.7812ZM40.9609 53.9375V65.5859C40.9531 66.7344 40.6992 67.7344 40.1992 68.5859C39.6992 69.4375 38.9922 70.0938 38.0781 70.5547C37.1719 71.0078 36.1289 71.2344 34.9492 71.2344C33.1523 71.2344 31.7109 70.7461 30.625 69.7695C29.5469 68.7852 28.9883 67.4258 28.9492 65.6914V53.9375H30.3789V65.4805C30.3789 66.918 30.7891 68.0352 31.6094 68.832C32.4297 69.6211 33.543 70.0156 34.9492 70.0156C36.3555 70.0156 37.4648 69.6172 38.2773 68.8203C39.0977 68.0234 39.5078 66.9141 39.5078 65.4922V53.9375H40.9609ZM54.4023 62.8203H46.4219V69.7812H55.5977V71H44.9805V53.9375H55.5391V55.168H46.4219V61.6016H54.4023V62.8203ZM58.6445 71V53.9375H63.6836C65.5117 53.9375 66.8984 54.3164 67.8438 55.0742C68.7891 55.8242 69.2617 56.9336 69.2617 58.4023C69.2617 59.2852 69.0195 60.0547 68.5352 60.7109C68.0586 61.3594 67.4023 61.8242 66.5664 62.1055C67.5586 62.3242 68.3555 62.8125 68.957 63.5703C69.5664 64.3281 69.8711 65.2031 69.8711 66.1953C69.8711 67.7031 69.3828 68.8828 68.4062 69.7344C67.4375 70.5781 66.0859 71 64.3516 71H58.6445ZM60.0859 62.7969V69.7812H64.4102C65.6445 69.7812 66.6211 69.4688 67.3398 68.8438C68.0664 68.2109 68.4297 67.3359 68.4297 66.2188C68.4297 65.1641 68.082 64.332 67.3867 63.7227C66.6992 63.1055 65.7461 62.7969 64.5273 62.7969H60.0859ZM60.0859 61.5898H64.0234C65.2266 61.5664 66.1562 61.2852 66.8125 60.7461C67.4766 60.1992 67.8086 59.4062 67.8086 58.3672C67.8086 57.2734 67.4648 56.4688 66.7773 55.9531C66.0977 55.4297 65.0664 55.168 63.6836 55.168H60.0859V61.5898ZM85.9727 63.3945C85.9727 64.9648 85.6992 66.3438 85.1523 67.5312C84.6133 68.7188 83.8398 69.6328 82.832 70.2734C81.8242 70.9141 80.6602 71.2344 79.3398 71.2344C77.3477 71.2344 75.7383 70.5234 74.5117 69.1016C73.2852 67.6719 72.6719 65.7461 72.6719 63.3242V61.5664C72.6719 60.0117 72.9453 58.6367 73.4922 57.4414C74.0469 56.2383 74.8281 55.3164 75.8359 54.6758C76.8438 54.0273 78.0039 53.7031 79.3164 53.7031C80.6289 53.7031 81.7852 54.0195 82.7852 54.6523C83.793 55.2852 84.5703 56.1797 85.1172 57.3359C85.6641 58.4922 85.9492 59.832 85.9727 61.3555V63.3945ZM84.5312 61.543C84.5312 59.4883 84.0664 57.8789 83.1367 56.7148C82.207 55.5508 80.9336 54.9688 79.3164 54.9688C77.7305 54.9688 76.4648 55.5547 75.5195 56.7266C74.582 57.8906 74.1133 59.5195 74.1133 61.6133V63.3945C74.1133 65.418 74.582 67.0234 75.5195 68.2109C76.457 69.3906 77.7305 69.9805 79.3398 69.9805C80.9727 69.9805 82.2461 69.3984 83.1602 68.2344C84.0742 67.0625 84.5312 65.4336 84.5312 63.3477V61.543ZM102.309 71H100.867L91.0586 56.3984V71H89.6055V53.9375H91.0586L100.879 68.5508V53.9375H102.309V71ZM119.348 71H117.906L108.098 56.3984V71H106.645V53.9375H108.098L117.918 68.5508V53.9375H119.348V71ZM133.105 62.8203H125.125V69.7812H134.301V71H123.684V53.9375H134.242V55.168H125.125V61.6016H133.105V62.8203ZM149.16 55.168H143.312V71H141.871V55.168H136.035V53.9375H149.16V55.168ZM221.898 65.6797C221.703 67.4766 221.059 68.8516 219.965 69.8047C218.879 70.7578 217.43 71.2344 215.617 71.2344C214.352 71.2344 213.23 70.918 212.254 70.2852C211.285 69.6523 210.535 68.7578 210.004 67.6016C209.473 66.4375 209.203 65.1094 209.195 63.6172V61.4023C209.195 59.8867 209.461 58.543 209.992 57.3711C210.523 56.1992 211.285 55.2969 212.277 54.6641C213.277 54.0234 214.426 53.7031 215.723 53.7031C217.551 53.7031 218.992 54.1992 220.047 55.1914C221.109 56.1758 221.727 57.5391 221.898 59.2812H220.445C220.086 56.3828 218.512 54.9336 215.723 54.9336C214.176 54.9336 212.941 55.5117 212.02 56.668C211.105 57.8242 210.648 59.4219 210.648 61.4609V63.5469C210.648 65.5156 211.094 67.0859 211.984 68.2578C212.883 69.4297 214.094 70.0156 215.617 70.0156C217.125 70.0156 218.262 69.6562 219.027 68.9375C219.793 68.2109 220.266 67.125 220.445 65.6797H221.898ZM238.012 63.3945C238.012 64.9648 237.738 66.3438 237.191 67.5312C236.652 68.7188 235.879 69.6328 234.871 70.2734C233.863 70.9141 232.699 71.2344 231.379 71.2344C229.387 71.2344 227.777 70.5234 226.551 69.1016C225.324 67.6719 224.711 65.7461 224.711 63.3242V61.5664C224.711 60.0117 224.984 58.6367 225.531 57.4414C226.086 56.2383 226.867 55.3164 227.875 54.6758C228.883 54.0273 230.043 53.7031 231.355 53.7031C232.668 53.7031 233.824 54.0195 234.824 54.6523C235.832 55.2852 236.609 56.1797 237.156 57.3359C237.703 58.4922 237.988 59.832 238.012 61.3555V63.3945ZM236.57 61.543C236.57 59.4883 236.105 57.8789 235.176 56.7148C234.246 55.5508 232.973 54.9688 231.355 54.9688C229.77 54.9688 228.504 55.5547 227.559 56.7266C226.621 57.8906 226.152 59.5195 226.152 61.6133V63.3945C226.152 65.418 226.621 67.0234 227.559 68.2109C228.496 69.3906 229.77 69.9805 231.379 69.9805C233.012 69.9805 234.285 69.3984 235.199 68.2344C236.113 67.0625 236.57 65.4336 236.57 63.3477V61.543ZM253.398 53.9375V65.5859C253.391 66.7344 253.137 67.7344 252.637 68.5859C252.137 69.4375 251.43 70.0938 250.516 70.5547C249.609 71.0078 248.566 71.2344 247.387 71.2344C245.59 71.2344 244.148 70.7461 243.062 69.7695C241.984 68.7852 241.426 67.4258 241.387 65.6914V53.9375H242.816V65.4805C242.816 66.918 243.227 68.0352 244.047 68.832C244.867 69.6211 245.98 70.0156 247.387 70.0156C248.793 70.0156 249.902 69.6172 250.715 68.8203C251.535 68.0234 251.945 66.9141 251.945 65.4922V53.9375H253.398ZM270.121 71H268.68L258.871 56.3984V71H257.418V53.9375H258.871L268.691 68.5508V53.9375H270.121V71ZM284.113 66.8047C284.113 65.8594 283.781 65.1133 283.117 64.5664C282.453 64.0117 281.238 63.4883 279.473 62.9961C277.707 62.4961 276.418 61.9531 275.605 61.3672C274.449 60.5391 273.871 59.4531 273.871 58.1094C273.871 56.8047 274.406 55.7461 275.477 54.9336C276.555 54.1133 277.93 53.7031 279.602 53.7031C280.734 53.7031 281.746 53.9219 282.637 54.3594C283.535 54.7969 284.23 55.4062 284.723 56.1875C285.215 56.9688 285.461 57.8398 285.461 58.8008H284.008C284.008 57.6367 283.609 56.7031 282.812 56C282.016 55.2891 280.945 54.9336 279.602 54.9336C278.297 54.9336 277.258 55.2266 276.484 55.8125C275.711 56.3906 275.324 57.1484 275.324 58.0859C275.324 58.9531 275.672 59.6602 276.367 60.207C277.062 60.7539 278.176 61.2383 279.707 61.6602C281.238 62.0742 282.398 62.5078 283.188 62.9609C283.977 63.4062 284.57 63.9414 284.969 64.5664C285.367 65.1914 285.566 65.9297 285.566 66.7812C285.566 68.125 285.027 69.2031 283.949 70.0156C282.879 70.8281 281.465 71.2344 279.707 71.2344C278.504 71.2344 277.398 71.0195 276.391 70.5898C275.391 70.1602 274.629 69.5586 274.105 68.7852C273.59 68.0117 273.332 67.125 273.332 66.125H274.773C274.773 67.3281 275.223 68.2773 276.121 68.9727C277.02 69.668 278.215 70.0156 279.707 70.0156C281.035 70.0156 282.102 69.7227 282.906 69.1367C283.711 68.5508 284.113 67.7734 284.113 66.8047ZM298.105 62.8203H290.125V69.7812H299.301V71H288.684V53.9375H299.242V55.168H290.125V61.6016H298.105V62.8203ZM303.801 69.7812H312.227V71H302.348V53.9375H303.801V69.7812ZM316.762 71H315.32V53.9375H316.762V71ZM334.105 71H332.664L322.855 56.3984V71H321.402V53.9375H322.855L332.676 68.5508V53.9375H334.105V71ZM350.758 68.9727C350.258 69.6836 349.473 70.2383 348.402 70.6367C347.34 71.0352 346.148 71.2344 344.828 71.2344C343.492 71.2344 342.305 70.9141 341.266 70.2734C340.227 69.6328 339.422 68.7266 338.852 67.5547C338.281 66.3828 337.992 65.0391 337.984 63.5234V61.3672C337.984 59 338.582 57.1328 339.777 55.7656C340.973 54.3906 342.578 53.7031 344.594 53.7031C346.352 53.7031 347.766 54.1523 348.836 55.0508C349.906 55.9414 350.543 57.1719 350.746 58.7422H349.305C349.094 57.4922 348.582 56.5469 347.77 55.9062C346.965 55.2578 345.91 54.9336 344.605 54.9336C343.012 54.9336 341.75 55.5 340.82 56.6328C339.891 57.7656 339.426 59.3633 339.426 61.4258V63.4414C339.426 64.7383 339.645 65.8867 340.082 66.8867C340.527 67.8789 341.16 68.6484 341.98 69.1953C342.809 69.7422 343.758 70.0156 344.828 70.0156C346.07 70.0156 347.137 69.8203 348.027 69.4297C348.605 69.1719 349.035 68.8711 349.316 68.5273V64.1211H344.734V62.9023H350.758V68.9727Z" fill="white"/>
<path d="M161.172 65.0748C161.172 65.0748 160.453 66.774 161.172 67.1335C161.891 67.4931 161.842 66.9537 162.201 67.1335C162.92 67.4931 161.944 68.4306 162.201 69.1923C162.476 70.0051 163.325 70.0868 163.574 70.9079C163.768 71.5491 163.362 71.9879 163.574 72.6235C163.785 73.2591 164.603 73.996 164.603 73.996L163.574 75.3685C163.574 75.3685 159.234 82.7755 158.427 88.0642C157.901 91.5083 157.498 93.6275 158.427 96.9854C158.811 98.3764 159.439 100.392 159.799 101.789C160.501 104.514 157.035 108.468 159.799 108.995C160.326 109.095 160.66 107.781 161.172 107.622C162.631 107.17 161.86 105.337 162.201 103.848C162.784 101.303 163.23 97.2428 163.23 97.2428M161.172 65.0748C161.172 65.0748 161.172 63.6109 161.172 62.6729M161.172 65.0748L165.632 65.761M161.172 62.6729C161.172 62.1369 161.172 61.8364 161.172 61.3004M161.172 62.6729C161.172 62.6729 161.806 62.5988 162.201 62.6729C162.79 62.7833 163.008 63.1608 163.574 63.3591C164.343 63.6289 164.817 63.708 165.632 63.7023M159.799 58.2122C159.799 58.6142 159.693 58.8538 159.799 59.2416C159.999 59.9729 161.172 60.6141 161.172 60.6141C161.172 60.6141 161.224 61.0376 161.172 61.3004M159.799 58.2122C157.915 57.7822 156.727 55.9993 157.054 54.0947C157.126 53.6771 157.397 53.0654 157.397 53.0654C158.328 51.4365 162.201 53.0654 162.201 53.0654L163.284 53.8776M159.799 58.2122C161.273 58.2122 162.1 58.2122 163.574 58.2122M163.574 58.2122C163.038 57.8102 162.501 57.7821 162.201 57.1829C161.901 56.5836 162.201 55.4672 162.201 55.4672C162.201 55.4672 164.085 54.6545 163.574 54.0947L163.284 53.8776M163.574 58.2122C164.466 58.1007 165.186 58.4612 165.632 59.2416C166.031 59.9397 165.632 61.3004 165.632 61.3004M165.632 61.3004C165.632 61.3004 162.914 61.3004 161.172 61.3004M165.632 61.3004C165.632 61.3004 165.632 62.7643 165.632 63.7023M165.632 61.3004C166.57 61.3004 168.72 60.271 168.72 60.271M165.632 65.0748C165.632 65.0748 165.632 64.2383 165.632 63.7023M165.632 65.0748V65.761M165.632 65.0748C165.632 65.0748 166.151 65.872 166.319 66.4473C166.581 67.3477 166.319 68.8491 166.319 68.8491C166.319 68.8491 166.081 70.5844 165.632 71.5941C165.315 72.3081 165.181 72.7835 164.603 73.3098C163.117 74.6635 166.51 68.7985 164.603 68.1629C163.967 67.951 162.887 68.8329 162.887 68.1629C162.887 67.5636 163.748 67.7891 164.26 67.4766C164.832 67.1273 165.465 67.096 165.632 66.4473C165.699 66.1878 165.632 65.761 165.632 65.761M165.632 65.0748C165.632 65.0748 167.889 66.0293 168.377 65.0748C168.591 64.6561 168.72 62.6805 168.72 62.6805M164.603 77.9431C167.17 78.0651 168.53 68.3613 168.53 68.3613C168.53 68.3613 164.082 75.1191 164.603 74.3391C164.966 73.796 162.036 77.8211 164.603 77.9431ZM164.603 77.9431C162.25 77.5474 161.657 78.8389 162.598 81.0312M164.603 77.9431C167.246 78.3876 164.853 82.6408 164.946 85.3191C165.02 87.466 164.935 88.6903 165.289 90.8092C165.562 92.444 165.8 93.3523 166.319 94.9267C166.863 96.5813 168.086 98.7945 168.72 100.417C169.138 101.483 169.75 103.848 169.75 103.848M168.72 60.271C168.72 60.271 169.125 58.8146 169.064 57.8691C169 56.8956 168.377 55.4672 168.377 55.4672M168.72 60.271C168.72 60.271 168.616 61.7349 168.549 62.6729M168.377 55.4672H167.005M168.377 55.4672C168.377 55.4672 168.623 54.4476 168.377 53.8776C168.1 53.2344 167.219 53.3894 167.005 52.7222C166.882 52.3394 167.005 51.6928 167.005 51.6928V49.9772M167.005 55.4672C167.005 55.4672 166.168 55.4672 165.632 55.4672C164.56 55.4672 163.255 56.4741 162.887 55.4672C162.668 54.8663 163.284 53.8776 163.284 53.8776M167.005 55.4672L164.603 51.6928M160.485 47.9185C160.595 48.9331 160.856 49.5411 161.515 50.3204C162.139 51.0582 162.621 51.5296 163.574 51.6928C163.97 51.7608 164.603 51.6928 164.603 51.6928M160.485 47.9185C160.485 46.9805 159.722 46.0618 160.485 45.5166C161.031 45.1272 161.588 44.7992 162.133 45.1886M160.485 47.9185C162.093 47.9185 164.603 47.9185 164.603 47.9185M162.133 45.1886C162.133 43.8486 158.221 47.1995 158.221 45.8596M162.133 45.1886C162.937 45.5906 163.479 46.9919 164.26 46.546C165.074 46.0806 165.289 44.8302 165.289 44.8302L166.319 44.1441C166.319 44.1441 165.889 42.6846 165.289 42.0853C164.342 41.1378 159.561 45.8596 158.221 45.8596M158.221 45.8596C158.923 45.1183 161.163 38.3141 160.142 38.3108C159.472 38.3086 158.245 38.6539 158.084 39.3403M158.084 39.3403C157.548 40.8143 157.581 41.9004 157.397 43.458C157.303 44.2564 158.332 45.7475 158.427 46.546M158.084 39.3403C157.548 41.6183 158.963 44.268 158.427 46.546M158.427 46.546C158.427 48.958 158.427 50.3102 158.427 52.7222M164.26 46.8891C164.528 47.2911 164.655 47.5329 164.946 47.9185C165.631 48.8259 167.005 49.9772 167.005 49.9772M167.005 49.9772L166.319 50.3204C166.319 50.3204 165.021 49.7972 164.603 50.3204C164.268 50.7389 164.603 51.6928 164.603 51.6928M170.436 53.0654C170.436 53.0654 169.74 48.0766 169.064 46.8891C168.359 45.6513 166.319 44.4872 166.319 44.4872V42.7716C166.319 42.7716 166.972 41.6388 167.691 41.3991C168.2 41.2296 168.598 41.1332 169.064 41.3991C169.584 41.6964 169.55 42.2065 169.75 42.7716C170.285 44.2879 168.224 46.3806 169.75 46.8891C170.258 47.0586 170.657 46.6232 171.122 46.8891C171.542 47.1288 171.98 48.9478 171.98 48.9478C171.98 48.9478 171.364 46.3425 171.809 45.5166C172.078 45.016 172.31 44.6984 172.838 44.4872C173.336 44.2882 173.745 44.2213 174.21 44.4872C174.63 44.7269 174.77 45.0505 174.897 45.5166C175.002 45.9044 174.897 46.546 174.897 46.546L174.382 46.8891M170.436 53.0654C170.436 53.0654 169.866 54.4987 169.75 55.4672C169.589 56.8042 169.493 57.6931 170.093 58.8985C171.754 62.2333 182.797 55.1706 179.989 52.7221M170.436 53.0654V52.3791M179.989 52.7221C179.646 54.7808 169.996 54.9612 170.436 52.7222C170.587 51.9556 171.277 51.9219 171.809 51.3496C172.265 50.8588 173.337 50.3864 173.867 49.9771C174.547 49.4529 175.121 48.9013 175.926 48.6047C176.806 48.2805 178.328 48.6047 178.328 48.6047C178.328 48.6047 179.061 48.9096 179.357 49.291C179.933 50.0314 179.782 50.8563 179.357 51.6928C178.969 52.458 180.821 52.5114 179.989 52.7221ZM179.989 52.7221C180.793 52.9901 181.535 52.7341 182.048 53.4083C182.848 54.4582 179.643 56.7298 178.328 56.8397M170.436 52.3791V51.6928L171.122 49.9772L172.838 47.9185L174.382 46.8891M170.436 52.3791C170.436 52.3791 174.016 49.4956 175.583 48.6047C177.167 47.7041 179.406 48.9398 180.044 47.2322C180.325 46.479 178.851 46.4702 178.328 45.8597C177.718 45.1475 176.813 45.5533 175.926 45.8597C175.241 46.0965 174.382 46.8891 174.382 46.8891M178.328 56.8397C177.802 54.8951 173.444 55.1856 173.181 57.1829C173.146 57.4486 173.165 57.6016 173.181 57.8691C173.239 58.8429 173.31 59.4701 173.867 60.271C174.357 60.9754 174.769 61.3707 175.583 61.6435C176.607 61.987 177.278 61.5552 178.328 61.3004C179.441 61.0303 180.539 61.2836 181.073 60.271C181.448 59.5599 182.532 57.6437 182.532 56.8397M178.328 56.8397C178.194 57.2188 178.194 57.49 178.328 57.8691C178.688 58.8879 181.932 57.7386 182.532 56.8397M182.532 56.8397C187.249 56.1535 189.835 51.6703 195.227 51.3497C196.164 51.2941 195.705 51.9078 196.171 52.7222C196.436 53.1876 196.266 53.5674 196.171 54.0947C195.931 55.4131 194.921 55.7715 194.112 56.8397C192.785 58.5918 192.52 60.0979 190.68 61.3004C189.262 62.2278 188.126 62.0174 186.563 62.6729C185.181 63.2523 184.458 63.6909 183.132 64.3885C177.188 67.5156 169.696 72.6233 168.593 73.3098C167.491 73.9962 167.302 73.9221 167.634 72.8027M167.634 72.8027C167.907 72.6235 168.452 72.1139 168.72 70.9079M167.634 72.8027L168.72 62.6805M168.72 70.9079C168.72 70.9079 173.086 65.2653 176.955 63.7023C178.492 63.0815 179.425 62.8484 181.073 62.6729M168.72 70.9079C168.428 70.2904 168.688 69.8747 168.72 69.1923C168.815 67.2189 172.438 65.761 172.438 65.761M181.073 62.6729C182.413 61.7349 183.107 61.1208 184.504 60.271C186.296 59.1813 187.553 59.0173 189.308 57.8691C191.06 56.7232 191.901 55.8717 193.425 54.4379C197.649 50.4662 185.897 59.4569 181.073 62.6729ZM168.549 62.6729C168.549 62.6729 169.283 62.7133 169.75 62.6729C171.016 62.5634 171.612 61.309 172.838 61.6435C173.537 61.8342 173.955 61.7151 174.382 62.6729C174.809 63.6307 173.878 64.2913 173.181 65.0748C172.918 65.3699 172.438 65.761 172.438 65.761M168.549 62.6729C168.515 63.1419 168.72 62.6805 168.72 62.6805M168.187 66.7904C168.968 67.0584 172.438 65.761 172.438 65.761M169.051 73.3098C169.051 73.3098 178.15 68.9121 184.504 67.1335C186.884 66.4675 188.242 66.1589 190.68 65.761C193.339 65.3273 194.87 65.4091 197.543 65.0748C199.423 64.8395 200.549 63.7892 202.347 64.3885C202.915 64.578 203.472 64.5288 203.719 65.0748C204.041 65.7866 203.138 66.1505 202.69 66.7904C200.996 69.2071 198.197 71.1921 196.857 71.5941C195.517 71.9961 194.765 72.2215 193.425 72.6235C192.086 73.0255 190.11 73.5098 187.935 73.7726C186.071 73.9979 185.009 73.9643 183.132 73.996C182.06 74.0141 181.454 73.8932 180.387 73.996C178.737 74.155 177.892 74.6884 176.269 75.0254C174.673 75.3568 173.778 75.5973 172.152 75.7116C170.949 75.7962 169.064 75.7116 169.064 75.7116C169.064 75.7116 173.101 76.5507 175.583 77.4273C177.79 78.2065 179.195 78.4331 181.073 79.8292C182.29 80.7336 182.6 81.6708 183.818 82.5742C185.262 83.6454 186.375 83.7405 187.935 84.6329C189.033 85.2604 189.609 85.6785 190.68 86.3485C192.824 87.6885 194.279 88.1017 196.171 89.7798C198.096 91.4883 198.76 92.8553 200.288 94.9267C201.259 96.2429 203.581 96.9864 202.69 98.3579C202.017 99.3938 200.827 99.2017 199.602 99.0442C198.413 98.8913 197.987 98.0706 196.857 97.6717C195.07 97.041 193.866 97.5373 192.053 96.9854C190.504 96.5139 189.702 96.0417 188.279 95.2698C185.169 93.5832 183.83 91.9961 181.073 89.7798C176.632 86.2103 173.91 84.4024 170.093 80.1723C169.265 79.2551 165.289 78.0642 165.289 78.0642M165.289 78.0642C165.289 78.0642 169.963 78.0297 171.122 78.4567C172.259 78.8753 173.867 79.9014 173.867 79.9014M165.289 78.0642C165.289 78.0642 167.926 80.7013 168.034 82.5742C168.159 84.7312 168.429 85.9232 168.72 88.0642C169.086 90.7494 169.384 92.2414 169.75 94.9267C170.041 97.0676 169.834 98.3415 170.436 100.417C170.968 102.25 174.286 104.399 172.438 104.877C171.35 105.159 170.743 104.375 169.75 103.848M179.7 84.2898C177.623 82.6818 174.382 80.1723 174.382 80.1723L173.867 79.9014M179.7 84.2898C182.112 86.1658 183.317 87.4243 185.877 89.0935C187.687 90.2738 188.793 90.7875 190.68 91.8385C192.147 92.6553 192.974 93.1061 194.455 93.8973M179.7 84.2898C177.422 82.576 173.867 79.9014 173.867 79.9014M194.455 93.8973C195.929 94.4333 196.898 94.4412 198.229 95.2698C199.118 95.8227 199.584 96.2111 200.288 96.9854C202.022 98.8924 196.733 95.1033 194.455 93.8973ZM169.75 103.848C168.234 103.044 166.319 101.103 166.319 101.103C166.319 101.103 164.646 99.0117 163.574 97.6717C163.44 97.5042 163.23 97.2428 163.23 97.2428M162.598 81.0312C162.732 85.0512 162.65 86.8632 163.455 91.8385C164.26 96.8139 162.601 96.75 162.372 95.956C162.252 95.5439 162.887 96.8139 162.887 96.8139M162.598 81.0312C162.598 81.0312 159.761 89.7899 161.172 93.5542C161.677 94.9012 162.887 96.8139 162.887 96.8139M162.887 96.8139L163.23 97.2428" stroke="white" stroke-width="0.686251"/>
<path d="M167.637 74.3387L169.696 72.9662C169.696 72.9662 185.007 68.6193 195.087 67.4762C196.425 67.3244 198.838 65.8249 198.518 67.133C198.289 68.0717 197.336 68.0993 196.46 68.5055C195.575 68.9157 195.002 68.9484 194.058 69.1918C192.073 69.7033 190.957 70.0944 188.911 70.2212C187.975 70.2792 187.441 70.1119 186.509 70.2212C185.12 70.3842 184.435 70.9127 183.078 71.2506C181.752 71.5805 180.982 71.6486 179.647 71.9368C175.993 72.7249 170.382 74.3387 170.382 74.3387L167.637 74.6818C167.125 74.8415 169.615 76.1908 169.696 75.7112" stroke="white" stroke-width="0.686251"/>
<path d="M171.411 46.8887L173.47 40.3694M173.47 40.3694H176.215M173.47 40.3694C173.47 40.3694 175.909 36.7686 178.274 35.5656C179.407 34.9892 180.204 34.011 181.362 34.5362C183.061 35.3074 180.965 37.6766 179.646 38.9969C177.9 40.7447 173.47 40.3694 173.47 40.3694ZM173.47 40.3694C173.47 40.3694 172.097 38.9969 171.411 38.9969C170.725 38.9969 169.695 37.6244 169.695 37.6244M176.215 40.3694C176.215 40.3694 176.92 43.0197 178.274 43.8006C179.666 44.6042 180.888 44.3715 182.391 43.8006C183.469 43.3914 184.793 43.2377 184.793 42.085C184.793 40.9323 183.442 40.8424 182.391 40.3694C180.192 39.3796 176.215 40.3694 176.215 40.3694ZM169.695 37.6244C169.695 37.6244 168.534 38.638 167.637 38.9969C166.019 39.6438 164.485 40.1465 163.176 38.9969C162.125 38.0736 161.052 36.4365 162.147 35.5656C162.881 34.9817 163.611 35.5656 164.549 35.5656C165.755 35.5656 166.528 35.0905 167.637 35.5656C168.682 36.0135 169.695 37.6244 169.695 37.6244ZM169.009 36.2519C168.756 36.4049 166.654 32.7721 166.95 31.7912M169.009 36.2519C169.009 36.2519 167.37 35.5532 166.607 34.5362C165.803 33.4642 165.324 31.49 166.607 31.105C166.992 30.9895 166.548 31.7912 166.95 31.7912M169.009 36.2519C170.039 36.2519 170.741 35.5656 171.411 35.5656M169.009 36.2519C169.009 36.2519 169.834 32.7761 168.666 31.7912C168.435 31.5966 168.023 31.3623 168.023 31.3623M166.95 31.7912C167.101 31.8917 168.023 31.3623 168.023 31.3623M171.411 35.5656C172.115 37.3751 173.214 40.199 173.214 40.199L173.47 33.85M171.411 35.5656C170.919 31.711 171.327 29.143 171.411 29.3893M171.411 29.3893L168.666 28.7031M171.411 29.3893L173.214 30.8921M168.666 28.7031C168.666 28.7031 166.934 27.3143 166.264 26.6443M168.666 28.7031L168.023 31.3623M168.666 28.7031L172.097 29.3893M166.264 26.6443C165.798 25.6697 166.395 25.3018 166.607 24.2425C166.69 23.827 166.651 23.5127 166.95 23.2131C167.424 22.7393 168.009 23.0817 168.666 23.2131C169.547 23.3894 170.003 23.7069 170.725 24.2425C171.334 24.6941 172.097 25.615 172.097 25.615M166.264 26.6443C166.264 25.5723 166.95 24.5855 166.95 24.5855C169.429 26.0199 170.594 26.8126 172.097 29.3893M172.097 25.615V27.6737V29.3893M172.097 25.615L172.784 24.2425L173.127 23.5562M172.097 29.3893C171.068 29.3893 173.611 27.1538 174.842 25.9581C175.593 25.2288 175.855 24.2279 176.901 24.2425C178.509 24.2648 176.901 28.36 176.901 28.36M172.784 28.7031C173.238 30.5903 173.47 27.6737 173.47 27.6737M173.47 27.6737L173.214 30.8921M173.47 27.6737C175.529 26.6443 176.901 28.7031 176.901 28.7031V29.3893M173.214 30.8921C173.214 30.8921 172.784 30.4187 173.47 31.105C174.156 31.7912 173.47 33.85 173.47 33.85M173.47 33.85C173.47 33.85 176.561 33.3165 176.901 31.7912C177.003 31.3335 176.901 30.5903 176.901 30.5903M176.901 28.36V29.3893M176.901 28.36L178.715 27.7555M178.96 25.615C178.96 25.615 179.689 27.3343 178.96 27.6737C178.868 27.7163 178.715 27.7555 178.715 27.7555M178.96 25.615C178.96 25.615 180.194 23.9264 181.019 22.87C181.546 22.1935 181.548 20.9941 182.391 21.1543C183.224 21.3126 182.926 22.3793 183.077 23.2131C183.269 24.2678 183.319 24.9138 183.077 25.9581C182.914 26.661 182.659 27.0037 182.391 27.6737M178.96 25.615C178.864 26.4509 178.81 26.9195 178.715 27.7555M178.96 25.615L178.715 21.1543M182.391 27.6737C181.051 28.3437 178.96 29.3893 178.96 29.3893M182.391 27.6737C182.486 26.821 183.254 26.2065 184.107 26.3012C185.313 26.4352 184.746 28.6773 183.764 29.3893C183.21 29.7903 182.048 29.7325 182.048 29.7325M178.96 29.3893H176.901M178.96 29.3893L182.048 29.7325M176.901 29.3893V30.5903M176.901 30.5903C176.901 30.5903 176.898 32.8799 177.93 33.5069C178.293 33.7268 178.539 33.8032 178.96 33.85C179.802 33.9436 180.206 33.4048 181.019 33.1637C182.078 32.8494 182.717 32.8324 183.764 32.4775C184.447 32.2457 185.406 32.5091 185.479 31.7912C185.556 31.0387 184.414 31.2788 183.764 30.8921C183.069 30.4786 182.048 29.7325 182.048 29.7325M178.715 21.1543H176.215L173.47 22.87L173.127 23.5562M178.715 21.1543C178.932 18.928 176.455 18.7152 175.872 20.8112C175.676 21.5135 176.607 19.0956 176.607 19.0956M173.127 23.5562C173.127 23.5562 171.624 23.824 170.725 23.5562C169.799 23.2804 169.316 22.8987 168.666 22.1837C168.14 21.6056 167.889 21.2074 167.637 20.4681C167.247 19.3269 167.319 18.5434 167.637 17.38C168.018 15.9816 168.274 14.5761 169.695 14.2918C170.09 14.213 170.358 14.1278 170.725 14.2918C171.59 14.6784 170.382 15.7462 170.382 16.6937C170.382 17.6412 170.223 18.2918 170.725 19.0956C171.236 19.9153 171.754 20.4681 172.784 20.4681C173.813 20.4681 172.784 22.87 172.784 22.87C172.784 22.87 171.065 18.8901 172.097 16.6937C172.623 15.5756 174.156 14.2918 174.156 14.2918M174.156 14.2918C174.156 14.2918 175.411 14.2918 176.215 14.2918M174.156 14.2918C174.156 14.2918 171.759 8.38192 174.156 8.11556C174.422 8.08597 174.582 8.05056 174.842 8.11556C175.394 8.25345 175.47 8.74294 175.872 9.14494M176.215 14.2918C176.483 14.8278 176.901 15.6643 176.901 15.6643M176.215 14.2918C176.081 12.2818 176.006 11.1549 175.872 9.14494M176.901 15.6643V18.4093L176.607 19.0956M176.901 15.6643C176.901 15.6643 178.328 13.8453 179.646 13.6056C180.173 13.5097 181.019 13.6056 181.019 13.6056L180.332 14.9781M176.901 15.6643L179.303 11.5468M176.901 15.6643L178.96 10.8606M176.607 19.0956L176.901 19.1288M180.332 14.9781C180.332 14.9781 181.054 15.2921 181.362 15.6643C182.045 16.4902 181.97 17.5269 181.362 18.4093C180.918 19.0525 180.4 19.2317 179.646 19.4387C178.606 19.7245 176.901 19.1288 176.901 19.1288M180.332 14.9781C180.332 14.9781 179.634 15.0562 179.303 15.3212C178.667 15.831 179.328 16.6529 178.96 17.38C178.483 18.321 176.901 19.1288 176.901 19.1288M179.303 11.5468C179.303 11.5468 180.393 11.7873 181.019 11.5468C181.726 11.2747 181.904 10.7547 182.391 10.1743C183.013 9.43443 183.612 9.06995 183.764 8.11556C183.916 7.15204 183.345 6.65168 183.077 5.71369M179.303 11.5468C179.303 11.5468 181.603 7.99167 183.077 5.71369M183.077 5.71369C183.479 4.90969 184.107 3.65493 184.107 3.65493C184.107 3.65493 184.841 1.83718 184.107 1.25305C183.343 0.645549 182.379 1.2344 181.705 1.9393C181.206 2.46073 181.15 2.94539 181.019 3.65493C180.897 4.31373 181.181 4.72057 181.019 5.37056C180.873 5.95193 180.332 6.74306 180.332 6.74306M180.332 6.74306C180.332 6.74306 179.625 6.98426 179.303 6.74306C178.874 6.42146 179.732 5.69216 179.303 5.37056C178.981 5.12936 178.618 5.16373 178.274 5.37056C177.8 5.65481 178.064 6.20707 177.93 6.74306C177.796 7.27906 177.817 7.61293 177.587 8.11556C177.387 8.55511 176.901 9.14494 176.901 9.14494M180.332 6.74306L179.646 8.11556L178.96 10.8606M176.901 9.14494C176.901 9.14494 176.274 9.14494 175.872 9.14494M176.901 9.14494L178.96 10.8606" stroke="white" stroke-width="0.686251"/>
</svg>
