<svg width="1072" height="704" viewBox="0 0 1072 704" fill="none" xmlns="http://www.w3.org/2000/svg">
<g opacity="0.504511">
<path fill-rule="evenodd" clip-rule="evenodd" d="M960.555 399.987C973.748 484.12 653.784 538.997 378.384 500.699C102.983 462.402 -23.3573 312.847 108.059 233.158C239.476 153.469 947.361 315.854 960.555 399.987Z" fill="#E7E7E7"/>
</g>
<g opacity="0.7">
<path fill-rule="evenodd" clip-rule="evenodd" d="M829.406 257.216C843.753 256.472 861.495 264.846 863.026 280.441C864.138 291.772 863.794 303.07 865.514 314.384C866.89 323.426 869.8 332.107 873.769 340.343C877.585 348.263 885.502 355.006 887.561 363.467C888.873 368.858 888.138 376.442 886.329 381.716C884.128 388.128 885.297 387.621 889.683 393.001C898.276 403.545 906.014 414.357 911.486 426.949C919.367 445.087 924.535 466.288 921.61 486.142C921.237 488.663 920.796 497.711 917.324 498.343C913.447 499.05 915.26 493.876 915.467 492.204C916.786 481.539 917.959 472.216 916.367 461.384C910.227 419.592 880.245 392.056 860.723 356.586C859.65 354.756 857.384 350.401 855.809 347.527C853.322 342.99 850.822 334.358 847.455 330.994C841.114 324.656 846.943 337.397 848.179 339.829C849.741 342.906 851.46 346.176 853.06 348.871C860.385 361.368 868.56 375.009 876.125 387.89C843.409 395.344 820.368 356.012 811.588 330.154C804.354 308.849 795.7 259.039 829.406 257.216Z" fill="#69A1AC"/>
<path fill-rule="evenodd" clip-rule="evenodd" d="M1021.69 217.653C997.712 219.556 982.315 235.382 975.148 257.517C971.285 269.445 970.842 281.699 968.695 293.958C965.466 312.401 958.518 326.378 944.939 339.517C940.734 343.587 937.634 347.765 935.431 352.235C931.057 356.698 927.25 361.749 924.453 367.923C920.88 375.809 919.869 385.271 923.994 393.132C925.104 395.246 927.871 399.489 930.738 401.416C920.002 424.283 914.098 449.326 914.764 474.338C915.166 489.436 915.903 504.541 916.763 519.621C916.994 523.67 918.313 530.356 920.293 523.565C922.106 517.354 919.833 507.604 919.623 501.115C918.599 469.504 917.724 440.763 930.737 411.23C932.101 408.134 933.548 405.064 935.055 402.018C935.143 401.967 935.225 401.905 935.308 401.845C935.366 401.889 935.418 401.937 935.475 401.98C935.572 401.808 935.703 401.604 935.857 401.376C936.289 400.93 936.667 400.366 937.025 399.737C938.18 398.138 939.486 396.259 939.493 395.23C939.493 395.222 939.488 395.21 939.488 395.202C947.544 382.052 956.77 369.627 966.194 357.446C966.124 357.534 976.417 343.52 974.825 351.27C974.058 355.005 966.487 362.118 963.429 366.074C956.665 374.875 948.722 386.027 942.121 396.811C941.233 397.321 939.978 399.828 939.07 401.694C938.569 402.64 938.102 403.593 937.642 404.424C961.031 412.152 979.224 396.586 991.631 378.482C991.646 378.461 991.659 378.438 991.673 378.417C995.448 373.415 999.316 368.447 1004.15 364.493C1012.21 357.894 1020.84 356.73 1030.34 353.482C1056.26 344.627 1067.28 311.038 1070.78 286.115C1074.73 257.997 1055.42 214.881 1021.69 217.653Z" fill="#89C5CC"/>
<path fill-rule="evenodd" clip-rule="evenodd" d="M974.319 138.913C949.705 164.531 937.813 200.064 928.396 233.469C917.879 270.779 910.933 308.664 910.666 347.455C910.491 372.941 909.798 398.586 911.286 424.042C911.813 433.083 912.715 442.139 914.147 451.083C914.266 451.818 917.472 471.787 920.539 467.134C922.284 464.487 917.253 446.418 916.873 443.409C914.734 426.458 914.237 409.382 914.342 392.309C914.513 364.198 913.684 336.231 916.533 308.224C916.958 304.042 917.294 299.65 918.288 295.56C919.342 291.211 917.999 293.109 921.434 291.387C924.772 289.713 928.897 289.952 932.36 287.853C946.097 279.523 953.125 258.126 958.594 244.087C964.85 228.032 968.652 210.912 971.688 194.017C973.918 181.604 975.512 169.266 976.414 156.693C976.699 152.73 976.716 148.586 977.494 144.69C977.704 143.639 978.757 141.779 978.719 140.849C978.638 138.879 977.449 137.72 977.351 136.065C976.321 136.992 975.309 137.942 974.319 138.913Z" fill="#89C5CC"/>
<path fill-rule="evenodd" clip-rule="evenodd" d="M840.103 480.238C840.103 522.605 874.448 556.95 916.815 556.95C959.182 556.95 993.527 522.605 993.527 480.238" fill="#89C5CC"/>
<path fill-rule="evenodd" clip-rule="evenodd" d="M969.386 413.073C988.372 411.673 1009.57 426.99 1018.73 442.929C1026.12 455.781 1024.87 472.656 1020.31 486.309C1017.26 495.45 1010.59 508.483 999.48 508.61C985.575 508.769 984.904 491.583 984.635 481.537C984.278 468.18 982.59 456.544 972.066 447.44C970.766 446.317 969.403 445.265 968.039 444.213C966.829 443.279 965.619 442.345 964.454 441.362C964.268 441.205 964.08 441.047 963.893 440.889C960.171 437.761 956.262 434.476 955.787 429.32C955.097 421.848 959.314 420.504 965.754 421.892C965.962 421.937 966.526 422.151 967.294 422.442C970.582 423.688 977.6 426.348 976.273 423.168C975.773 421.97 973.947 421.021 971.643 420.309C965.68 419.661 958.569 418.909 956.523 419.358C934.46 424.198 925.87 454.76 923.589 474.177C923.343 476.273 923.144 478.376 922.97 480.482H918.917C919.198 475.396 919.569 470.32 920.419 465.291C923.671 446.057 933.838 417.808 956.138 414.686C956.96 414.57 959.987 414.551 963.652 414.766C965.39 413.795 967.336 413.208 969.386 413.073Z" fill="#69A1AC"/>
</g>
<g opacity="0.5">
<path fill-rule="evenodd" clip-rule="evenodd" d="M187.286 117.111C191.702 110.815 199.897 94.8231 206.112 92.5731C210.116 91.1239 208.948 106.115 208.998 108.973C209.19 120.032 208.114 131.021 206.784 141.987C204.389 161.764 196.557 179.377 185.814 196.209C180.286 204.871 173.802 213.637 164.821 219.041C160.688 221.53 155.714 221.947 151.632 224.091C146.877 226.587 149.466 224.569 147.324 229.524C144.348 236.402 143.396 245.276 142.02 252.616C135.698 286.308 120.395 464.416 123.048 498.688C123.283 501.726 119.048 502.452 118.836 498.744C117.712 479.081 127.438 342.915 132.344 298.385C137.251 253.855 142.216 214.514 147.194 199.108C153.234 180.417 164.142 157.94 173.223 140.51C177.44 132.413 182.038 124.594 187.286 117.111Z" fill="#69A1AC"/>
<path fill-rule="evenodd" clip-rule="evenodd" d="M220.062 335.512C231.553 327.076 243.991 342.998 233.593 351.435C227.845 356.099 221.835 354.44 218.452 350.554C216.256 353.231 214.2 356.03 212.225 358.394C206.207 365.599 200.519 372.976 195.083 380.524C183.791 396.206 174.113 412.774 163.995 429.039C154.01 445.091 144.104 461.226 135.054 477.685C127.386 491.63 117.167 508.035 114.542 523.322C118.525 490.9 133.638 459.736 151.635 431.153C169.485 402.805 189.971 371.845 217.61 349.474C214.797 345.337 214.719 339.432 220.062 335.512Z" fill="#C1DEE2"/>
<path fill-rule="evenodd" clip-rule="evenodd" d="M2.01048 256.439C8.44087 257.697 18.9481 272.243 24.2486 277.786C30.548 284.372 36.2631 291.392 41.6502 298.747C53.2476 314.579 63.6194 331.412 72.439 348.965C86.8173 377.581 98.3361 406.956 106.696 438.117C111.813 457.192 115.126 476.962 117.09 496.594C117.461 500.297 121.343 528.842 115.749 529.612C110.718 530.304 112.272 507.936 112.03 504.894C109.286 470.567 101.068 437.168 89.6357 404.814C87.1457 397.766 84.8324 389.133 80.8503 382.791C77.9826 378.222 80.8297 379.815 75.7901 378.087C71.4628 376.601 66.5324 376.964 62.1012 375.146C52.4747 371.198 44.7667 363.534 38.0101 355.825C24.8796 340.844 14.4744 324.636 9.05057 305.44C6.04181 294.796 3.27692 284.09 1.74258 273.117C1.34567 270.281 -2.13129 255.629 2.01048 256.439Z" fill="#69A1AC"/>
<path fill-rule="evenodd" clip-rule="evenodd" d="M27.3862 14.4136C51.6082 56.4206 71.5128 102.564 84.3653 149.301C92.1525 177.618 97.5982 206.675 103.009 235.523C111.387 280.19 119.311 324.853 121.565 370.314C123.833 416.037 128.317 468.774 113.345 512.814C120.824 468.102 113.703 420.51 112.443 375.52C111.84 354.043 110.095 332.776 107.804 311.424C105.582 290.712 101.951 270.098 98.5702 249.549C96.9232 239.541 95.1935 229.548 93.4324 219.561C92.9067 216.581 92.6846 207.739 90.7944 205.703C88.892 203.654 79.1856 202.819 76.1382 201.315C70.0018 198.287 64.2298 193.986 59.1213 189.441C49.3284 180.729 40.809 169.345 34.0848 158.124C18.5269 132.159 12.3068 100.472 12.6212 70.4008C12.6816 64.5623 22.0711 1.69194 18.3001 0.826158C18.5271 0.560255 18.7419 0.285702 18.9444 0.00012207C21.7994 4.7802 24.6009 9.59267 27.3862 14.4136Z" fill="#89C5CC"/>
<path fill-rule="evenodd" clip-rule="evenodd" d="M288.821 165.916C289.195 165.377 291.628 161.627 290.403 161.867C292.897 161.379 286.972 166.002 293.186 163.165C290.236 165.952 291.939 169.572 291.978 173.322C292.042 179.411 291.024 185.45 289.877 191.408C288.065 200.826 285.365 209.984 281.447 218.744C272.907 237.834 258.405 256.212 241.189 268.147C232.69 274.039 224.36 276.046 214.667 278.759C208.544 280.472 208.059 283.64 204.809 289.581C198.042 301.956 191.397 314.286 185.43 327.078C178.305 342.353 171.388 357.645 164.863 373.189C142.883 425.549 124.993 479.794 115.598 535.932C115.368 502.85 123.021 468.778 132.675 437.245C139.707 414.271 148.861 392.125 158.625 370.203C160.991 364.892 164.577 358.06 165.582 352.197C166.285 348.088 164.134 344.137 163.149 339.81C159.31 322.957 159.585 304.076 162.956 287.133C166.674 268.45 177.424 259.779 195.61 257.133C202.261 256.165 210.715 256.519 216.813 253.684C223.458 250.595 226.198 240.445 229.977 233.929C240.125 216.426 252.182 199.639 266.027 184.891C269.861 180.807 273.984 177.04 278.357 173.548C281.115 171.344 286.942 168.63 288.821 165.916Z" fill="#89C5CC"/>
<path fill-rule="evenodd" clip-rule="evenodd" d="M79.7019 506.225C79.234 503.052 81.6929 500.204 84.8999 500.204H149.44C152.647 500.204 155.106 503.052 154.638 506.225L149.65 540.05C148.129 550.361 139.28 558 128.857 558H105.482C95.0593 558 86.2109 550.361 84.6902 540.05L79.7019 506.225Z" fill="#C1DEE2"/>
</g>
<path fill-rule="evenodd" clip-rule="evenodd" d="M26.7095 517.496C26.7095 539.866 28.4748 558 52.1692 558C75.8637 558 77.629 539.866 77.629 517.496" fill="#F2F2F2"/>
<path fill-rule="evenodd" clip-rule="evenodd" d="M59.2182 503.539C58.3497 505.041 57.5752 506.573 56.8912 508.127C56.867 504.925 57.0441 501.7 57.5276 498.43C58.354 492.83 59.6162 487.259 60.8023 481.696C61.6548 477.699 61.6009 470.519 64.836 467.334C65.7231 466.645 65.9367 467.996 65.9367 468.582C65.9479 468.706 65.9342 466.189 65.0731 466.628C59.9549 469.271 58.2964 477.583 56.6578 481.745C54.267 487.819 52.2329 494.029 51.3953 500.348C51.1836 501.945 51.0684 503.541 51.0418 505.134C50.8679 504.708 50.7044 504.279 50.5237 503.854C47.5696 496.925 43.5829 490.165 38.6107 483.93C37.3869 482.396 21.998 467.259 20.7933 469.576C20.9121 469.912 21.161 470.191 21.5405 470.413C21.5628 470.439 21.5634 470.425 21.5504 470.387C22.4542 471.847 25.0239 474.102 25.8243 475.381C27.8387 478.601 29.4042 482.017 30.9952 485.368C34.3566 492.45 37.4748 499.603 40.4976 506.771C41.2014 508.441 41.935 510.102 42.6834 511.757C34.9682 500.629 24.676 490.526 10.5078 484.742C15.3469 487.204 18.5195 491.836 21.7875 495.382C25.729 499.66 29.8803 503.823 33.8292 508.095C38.4869 513.136 43.9673 518.444 48.4474 524.022C52.7869 533.132 57.0039 542.253 59.6069 551.83C58.5403 548.521 59.5234 543.948 59.3408 540.476C59.1959 537.712 58.8728 534.97 58.4301 532.234C58.9774 533.468 59.4491 534.703 59.6627 535.852C59.4677 533.925 59.243 532.01 59.0015 530.106C59.6212 528.322 60.2297 526.658 60.6408 525.287C62.7474 518.256 65.2558 511.345 68.6717 504.61C71.8325 498.379 75.4583 492.228 79.409 486.264C81.2519 483.483 83.1202 480.713 84.9768 477.938C86.1919 476.122 87.3489 473.213 89.0408 471.473C78.1047 481.471 66.1565 491.542 59.2182 503.539Z" fill="#F2F2F2"/>
<path fill-rule="evenodd" clip-rule="evenodd" d="M284.071 326.125C290.618 330.074 297.051 331.982 300.07 331.203C307.642 329.25 308.338 301.531 302.48 290.604C296.621 279.676 266.503 274.913 264.985 296.564C264.458 304.079 267.611 310.785 272.27 316.257L263.917 355.218H288.181L284.071 326.125Z" fill="#B28B67"/>
<path fill-rule="evenodd" clip-rule="evenodd" d="M304.77 295.51C304.53 294.094 303.942 292.521 303.468 291.181C302.857 289.453 301.933 287.896 300.915 286.428C298.999 283.664 296.701 281.168 294.163 279.097C289.528 275.313 283.628 273.131 277.825 273.84C274.896 274.197 272.052 275.316 269.631 277.177C267.444 278.859 265.341 281.334 262.509 281.512C259.428 281.705 256.603 278.984 254.132 277.303C251.346 275.408 248.382 274.027 245.125 273.491C239.67 272.592 234.545 274.436 230.785 278.915C226.785 283.681 223.876 290.671 226.504 296.986C226.992 298.16 227.62 299.15 228.522 299.97C229.349 300.722 230.612 301.523 230.947 302.724C231.303 304.002 230.24 305.65 229.827 306.803C229.236 308.454 228.751 310.188 228.923 311.983C229.207 314.931 231.058 317.745 233.013 319.683C235.002 321.655 237.451 322.785 240.066 323.307C241.812 323.655 243.597 323.847 245.371 323.716C246.252 323.651 247.03 323.406 247.883 323.212C248.714 323.022 249.178 323.243 249.882 323.698C253.153 325.815 256.671 326.634 260.449 326.319C263.637 326.053 267.312 325.28 269.913 323.094C272.801 320.666 272.744 317.318 272.064 313.741C272.784 314.098 274.776 314.32 273.586 312.896C273.114 312.332 272.223 312.103 271.618 311.771C270.914 311.385 270.198 310.886 269.651 310.256C267.442 307.713 269.673 302.538 272.45 301.685C276.575 300.418 277.499 306.257 280.444 307.767C282.137 308.635 283.908 307.448 285.177 306.236C286.876 304.613 288.034 302.462 289.034 300.274C289.858 298.471 290.624 296.644 291.464 294.85C291.856 294.013 293.213 291.645 292.532 290.698C295.486 290.109 298.777 291.337 301.322 292.949C302.374 293.615 303.176 294.349 303.737 295.525C303.857 295.777 304.119 296.526 304.447 296.557C305.059 296.614 304.83 295.866 304.77 295.51Z" fill="#191847"/>
<path fill-rule="evenodd" clip-rule="evenodd" d="M204.905 482.693C195.619 482.693 188.092 490.221 188.092 499.507V591.332C188.092 600.618 195.619 608.145 204.905 608.145H319.895C329.181 608.145 336.709 600.618 336.709 591.332V499.507C336.709 490.221 329.181 482.693 319.895 482.693H204.905ZM220.602 511.021C218.281 511.021 216.399 512.903 216.399 515.225V575.614C216.399 577.935 218.281 579.817 220.602 579.817H304.196C306.518 579.817 308.4 577.935 308.4 575.614V515.225C308.4 512.903 306.518 511.021 304.196 511.021H220.602Z" fill="#C5CFD6"/>
<path fill-rule="evenodd" clip-rule="evenodd" d="M436.959 603.087C417.026 578.729 403.539 560.671 396.498 548.914C384.442 528.781 374.574 510.868 371.46 504.025C364.035 487.707 388.555 480.066 394.105 487.677C402.504 499.197 420.442 535.447 447.919 596.427L436.959 603.087Z" fill="#B28B67"/>
<path fill-rule="evenodd" clip-rule="evenodd" d="M396.113 596.005L359.017 502.56C351.083 485.526 389.398 474.329 395.229 482.256C408.468 500.254 439.931 571.252 443.875 576.614L396.113 596.005Z" fill="#2F3676"/>
<path fill-rule="evenodd" clip-rule="evenodd" d="M297.314 577.265C304.54 566.717 330.824 531.229 345.14 516.546C349.254 512.327 353.268 508.277 357.065 504.503C368.35 493.286 390.822 512.14 379.558 522.357C351.506 547.802 310.576 582.151 307.157 585.214C302.364 589.507 292.772 583.894 297.314 577.265Z" fill="#B28B67"/>
<path fill-rule="evenodd" clip-rule="evenodd" d="M302.047 572.993C301.318 572.002 299.908 571.765 298.967 572.559C297.318 573.951 294.992 576.057 294.146 577.525C292.778 579.895 290.944 584.897 290.944 584.897C293.691 586.485 340.327 613.428 340.327 613.428C340.327 613.428 345.926 608.172 342.071 605.269C338.217 602.365 335.71 600.371 335.71 600.371L318.689 576.903C318.342 576.424 317.667 576.326 317.198 576.688L313.689 579.392C313.689 579.392 308.815 578.966 306.415 577.579C304.975 576.747 303.22 574.588 302.047 572.993Z" fill="#E4E4E4"/>
<path fill-rule="evenodd" clip-rule="evenodd" d="M431.267 598.351C430.14 597.857 428.8 598.358 428.383 599.516C427.65 601.547 426.688 604.535 426.688 606.229C426.688 608.965 427.599 614.216 427.599 614.216C430.772 614.216 484.621 614.216 484.621 614.216C484.621 614.216 486.844 606.862 482.055 606.276C477.266 605.69 474.099 605.217 474.099 605.217L447.633 593.41C447.092 593.169 446.459 593.422 446.234 593.97L444.546 598.067C444.546 598.067 440.112 600.137 437.341 600.137C435.678 600.137 433.08 599.145 431.267 598.351Z" fill="#E4E4E4"/>
<path fill-rule="evenodd" clip-rule="evenodd" d="M345.669 507.227C345.669 507.227 299.42 499.688 283.713 496.916C253.865 491.649 245.161 475.576 250.307 440.507L305.302 440.507C316.218 443.662 396.527 479.528 396.527 479.528C406.16 484.314 404.366 498.423 402.606 503.071C402.498 503.356 353.888 586.609 353.888 586.609L308.901 557.93L345.753 510.607C345.753 510.607 347.213 507.664 345.669 507.227Z" fill="#5D74B9"/>
<path fill-rule="evenodd" clip-rule="evenodd" d="M198.604 484.624C201.567 478.609 216.369 401.2 216.369 401.2L238.507 401.283C238.507 401.283 213.216 483.283 211.656 487.15C209.63 492.175 213.071 499.475 215.405 504.425C215.766 505.191 216.101 505.9 216.384 506.536C213.146 507.986 211.591 506.234 209.951 504.386C208.099 502.299 206.139 500.091 201.526 502.239C199.743 503.069 198.057 504.05 196.409 505.008C190.717 508.319 185.488 511.361 178.375 506.969C177.247 506.272 176.012 503.651 178.997 501.602C186.436 496.498 197.156 487.564 198.604 484.624ZM385.056 454.462L356.417 426.503L346.904 442.974L376.686 460.544C384.153 472.316 388.539 477.402 389.843 475.803C390.942 474.455 390.438 472.977 389.974 471.616C389.613 470.556 389.275 469.566 389.739 468.763C390.797 466.931 396.776 467.98 402.408 469.219C408.039 470.458 406.736 467.69 405.539 466.245C400.217 461.946 393.389 458.019 385.056 454.462Z" fill="#B28B67"/>
<path fill-rule="evenodd" clip-rule="evenodd" d="M283.828 338.355L292.571 336.854C306.342 385.57 377.101 418.776 381.445 436.988C383.038 443.666 378.234 447.042 380.715 449.076L369.352 457.401C367.428 455.154 363.322 459.264 354.746 456.389C346.171 453.514 283.828 396.038 283.828 338.355Z" fill="#AF9957"/>
<path fill-rule="evenodd" clip-rule="evenodd" d="M268.438 328.195C266.122 328.033 264.113 329.779 263.952 332.095L263.548 337.865C247.096 350.535 206.319 388.396 195.693 458.874C194.577 466.278 196.595 470.243 198.208 473.412C199.312 475.579 200.225 477.374 199.815 479.641L214.687 483.749C214.687 482.075 216.561 480.802 218.979 479.159C222.495 476.77 227.161 473.601 228.886 467.282C230.521 461.293 232.916 453.813 235.777 445.492C236.047 456.513 238.135 466.648 242.685 475.042C254.036 495.986 319.631 473.018 326.484 451.652C330.141 440.251 324.952 430.679 318.089 418.02C309.377 401.95 297.968 380.905 298.533 344.826L299.25 334.565C299.412 332.249 297.666 330.24 295.35 330.078L268.438 328.195Z" fill="#B9A25D"/>
<path fill-rule="evenodd" clip-rule="evenodd" d="M745.573 643.377C795.772 643.377 836.467 604.505 836.467 556.553C836.467 508.601 795.772 469.729 745.573 469.729C695.373 469.729 654.678 508.601 654.678 556.553C654.678 604.505 695.373 643.377 745.573 643.377Z" fill="#C5CFD6"/>
<path fill-rule="evenodd" clip-rule="evenodd" d="M733.946 346.523C727.341 350.492 720.851 352.41 717.804 351.627C710.165 349.664 709.463 321.801 715.374 310.816C721.284 299.831 751.67 295.043 753.202 316.808C753.733 324.361 750.553 331.102 745.853 336.603L754.28 375.767H729.8L733.946 346.523Z" fill="#B28B67"/>
<path fill-rule="evenodd" clip-rule="evenodd" d="M704.528 295.588C705.035 293.811 706.398 292.29 708.236 291.839C708.682 291.73 709.142 291.685 709.6 291.704C709.765 291.71 709.811 291.758 709.888 291.643C709.945 291.558 709.946 291.35 709.97 291.25C710.043 290.94 710.134 290.633 710.247 290.334C710.631 289.314 711.277 288.412 712.056 287.652C713.513 286.231 715.482 285.249 717.527 285.072C718.646 284.975 719.757 285.156 720.816 285.519C721.364 285.707 721.895 285.941 722.412 286.2C722.568 286.278 723.073 286.659 723.23 286.634C723.402 286.607 723.75 286.179 723.89 286.072C725.625 284.744 727.768 284.222 729.93 284.238C732.37 284.256 734.719 284.378 736.754 285.861C737.185 286.175 737.595 286.519 737.986 286.88C738.191 287.071 738.391 287.269 738.581 287.475C738.695 287.599 738.807 287.726 738.914 287.856C739.097 288.078 739.067 288.15 739.323 287.996C740.302 287.403 741.437 287.125 742.58 287.265C743.259 287.349 743.919 287.552 744.546 287.819C744.759 287.91 745.254 288.273 745.481 288.277C745.707 288.28 746.194 287.944 746.427 287.858C747.682 287.396 749.036 287.282 750.356 287.496C751.718 287.716 753.055 288.258 754.209 289.006C754.764 289.366 755.248 289.765 755.637 290.3C755.805 290.532 755.956 290.776 756.147 290.99C756.258 291.116 756.479 291.245 756.539 291.404C756.503 291.308 758.028 290.722 758.172 290.685C758.938 290.485 759.719 290.526 760.469 290.772C761.881 291.235 763.095 292.274 764.093 293.339C764.605 293.886 765.054 294.49 765.434 295.135C765.617 295.443 765.784 295.761 765.936 296.085C766.01 296.242 766.059 296.438 766.157 296.58C766.282 296.762 766.367 296.765 766.594 296.845C767.749 297.248 768.802 297.931 769.604 298.854C770.416 299.788 770.942 300.938 771.163 302.149C771.176 302.22 771.183 302.516 771.225 302.554C771.283 302.608 771.515 302.584 771.603 302.594C771.907 302.63 772.209 302.683 772.508 302.753C773.057 302.883 773.592 303.074 774.098 303.324C776.071 304.297 777.482 306.121 778.172 308.174C778.897 310.329 778.884 312.797 778.018 314.911C777.878 315.253 777.712 315.584 777.516 315.898C777.396 316.09 777.357 316.091 777.435 316.293C777.522 316.517 777.681 316.736 777.784 316.955C778.121 317.672 778.356 318.431 778.504 319.207C778.748 320.48 778.869 321.818 778.629 323.101C778.517 323.697 778.322 324.279 778.025 324.809C777.874 325.08 777.697 325.336 777.497 325.574C777.393 325.697 777.283 325.815 777.168 325.927C777.102 325.992 777.015 326.048 776.959 326.12C776.822 326.295 776.793 326.151 776.864 326.409C776.963 326.769 777.186 327.124 777.323 327.474C777.465 327.836 777.592 328.202 777.709 328.571C777.945 329.32 778.145 330.082 778.27 330.857C778.51 332.345 778.468 333.93 777.762 335.296C777.46 335.88 777.027 336.393 776.502 336.791C776.245 336.986 775.967 337.155 775.675 337.293C775.524 337.364 775.333 337.394 775.264 337.539C775.191 337.694 775.3 338.003 775.325 338.177C775.542 339.691 775.651 341.28 775.2 342.763C774.784 344.13 773.869 345.336 772.681 346.134C770.376 347.684 767.269 347.596 764.848 346.356C764.216 346.033 763.626 345.631 763.099 345.158C761.757 346.958 758.997 346.901 757.036 346.388C754.593 345.749 752.633 344.056 751.504 341.831C749.96 343.705 746.719 343.097 745.648 341.063C745.386 340.566 745.231 340.017 745.154 339.462C745.114 339.17 745.14 338.876 745.109 338.586C745.071 338.218 744.824 337.859 744.681 337.502C744.405 336.808 744.233 336.09 744.226 335.341C744.222 334.95 744.271 334.568 744.309 334.18C744.342 333.831 744.245 333.506 744.19 333.161C744.816 333.264 745.58 333.095 746.17 332.914C746.749 332.736 747.292 332.268 747.7 331.841C748.65 330.848 749.23 329.547 749.626 328.251C750.497 325.409 750.14 321.998 747.272 320.438C745.936 319.711 741.934 319.713 740.343 320.073C738.67 320.45 736.773 324.131 736.68 324.477C736.622 324.691 736.651 324.956 736.454 325.099C736.02 325.413 735.305 324.868 734.985 324.599C734.433 324.136 734.04 323.519 733.699 322.893C732.956 321.531 732.357 320.07 731.934 318.578C731.608 317.428 731.4 316.242 730.973 315.122C730.549 314.007 729.88 313.01 728.841 312.378C727.71 311.691 726.414 311.329 725.172 310.897C723.941 310.469 722.732 309.946 721.778 309.038C721.568 308.838 721.365 308.626 721.196 308.391C721.062 308.206 720.931 307.85 720.728 307.733C720.412 307.55 719.951 308.026 719.678 308.198C718.331 309.051 717.208 310.241 716.301 311.54C715.4 312.833 714.661 314.076 714.06 315.519C713.614 316.589 713.336 317.96 712.552 318.837C712.202 319.229 709.6 319.466 708.758 319.124C707.915 318.782 706.971 317.894 706.688 317.338C706.398 316.768 706.329 316.143 706.453 315.519C706.526 315.152 706.674 314.81 706.755 314.45C706.824 314.147 706.886 313.861 707.034 313.584C707.314 313.058 707.792 312.681 708.369 312.523C707.769 311.971 707.271 311.311 706.927 310.573C706.569 309.806 706.266 308.874 706.18 308.032C706.11 307.348 706.218 306.64 706.593 306.053C706.987 305.437 707.685 305.035 708.288 304.65C707.366 303.931 706.577 303.057 705.929 302.089C704.668 300.206 703.888 297.833 704.528 295.588Z" fill="#191847"/>
<path fill-rule="evenodd" clip-rule="evenodd" d="M642.374 558.4C638.581 571.65 629.129 596.763 616.06 625.603L603.641 621.99C614.506 555.626 623.548 511.69 628.728 498.318C632.15 489.483 658.039 490.518 655.061 508.296C653.812 515.751 648.87 535.714 642.374 558.4ZM693.419 511.395C713.671 515.579 755.663 530.368 767.654 535.094C775.189 538.064 770.331 548.136 763.903 547.255C762.814 547.106 758.962 546.676 753.215 546.035C734.755 543.976 696.74 539.735 667.908 535.598C652.726 533.42 660.893 505.066 676.656 508.067C681.959 509.076 687.599 510.193 693.419 511.395Z" fill="#B28B67"/>
<path fill-rule="evenodd" clip-rule="evenodd" d="M627.934 490.829C630.005 484.092 724.127 460.178 724.127 460.178H731.84V467.345L666.982 500.264C667.068 501.327 667.015 502.449 666.806 503.633C667.275 528.038 656.799 546.27 646.427 564.32C639.645 576.124 632.907 587.851 629.303 601.176L605.474 597.631C606.168 595.861 607.265 587.881 608.766 576.969C612.55 549.455 618.897 503.308 627.801 491.098C627.832 491.056 627.863 491.014 627.895 490.972C627.907 490.924 627.92 490.876 627.934 490.829Z" fill="#B9A25D"/>
<path fill-rule="evenodd" clip-rule="evenodd" d="M726.45 519.816C732.385 518.631 737.85 517.574 742.527 516.756C772.732 511.474 781.541 495.353 776.333 460.178H720.679C711.588 462.782 664.342 482.537 639.829 493.044C623.605 499.998 628.719 525.067 637.907 531.591C637.956 531.992 638.122 532.264 638.416 532.386C673.25 546.78 702.955 545.706 722.03 545.017C730.019 544.728 736.144 544.506 740 545.517L746.041 526.516L726.45 519.816Z" fill="#AF9957"/>
<path fill-rule="evenodd" clip-rule="evenodd" d="M761.279 534.371C761.339 533.041 762.464 531.975 763.79 532.121C765.945 532.358 768.955 532.801 770.45 533.528C772.93 534.734 777.285 537.872 777.285 537.872C775.882 540.74 752.065 589.427 752.065 589.427C752.065 589.427 744.419 588.196 746.006 583.608C747.592 579.02 748.565 575.948 748.565 575.948L749.568 546.899C749.591 546.259 750.138 545.763 750.779 545.803L755.157 546.077C755.157 546.077 758.993 542.981 760.219 540.475C760.933 539.016 761.19 536.346 761.279 534.371Z" fill="#E4E4E4"/>
<path fill-rule="evenodd" clip-rule="evenodd" d="M618.951 619.219C620.171 618.692 621.617 619.232 622.067 620.483C622.798 622.519 623.72 625.414 623.72 627.073C623.72 629.824 622.8 635.102 622.8 635.102C619.6 635.102 565.271 635.102 565.271 635.102C565.271 635.102 563.028 627.71 567.86 627.121C572.691 626.531 575.887 626.056 575.887 626.056L602.518 614.219C603.102 613.959 603.786 614.233 604.031 614.824L605.703 618.869C605.703 618.869 610.176 620.95 612.972 620.95C614.605 620.95 617.131 620.005 618.951 619.219Z" fill="#E4E4E4"/>
<path fill-rule="evenodd" clip-rule="evenodd" d="M643.74 472.136L672.634 444.031L682.231 460.588L652.185 478.25C644.651 490.083 640.226 495.196 638.91 493.588C637.801 492.233 638.309 490.748 638.778 489.379C639.143 488.313 639.483 487.319 639.015 486.512C637.948 484.67 631.915 485.725 626.234 486.97C620.552 488.215 621.867 485.432 623.074 483.98C628.444 479.659 635.332 475.711 643.74 472.136ZM814.054 512.969C811.065 506.923 800.886 447.995 800.886 447.995L779.57 448.079C779.57 448.079 799.312 511.621 800.886 515.509C802.93 520.56 799.458 527.898 797.103 532.874C796.739 533.644 796.402 534.357 796.116 534.996C799.382 536.454 800.952 534.692 802.606 532.835C804.475 530.737 806.452 528.517 811.106 530.676C812.904 531.511 814.606 532.497 816.269 533.46C822.011 536.788 827.287 539.846 834.463 535.431C835.601 534.731 836.848 532.095 833.835 530.036C826.33 524.905 815.515 515.925 814.054 512.969Z" fill="#B28B67"/>
<path fill-rule="evenodd" clip-rule="evenodd" d="M740.311 358.816L731.491 357.308C716.306 395.13 689.794 429.497 651.955 460.407L680.548 495.043C718.382 451.03 741.703 405.621 740.311 358.816Z" fill="#191847"/>
<path fill-rule="evenodd" clip-rule="evenodd" d="M778.759 469.331H700.219C700.219 469.331 727.513 403.163 727.513 356.913L751.205 353.394C769.824 383.251 775.082 420.012 778.759 469.331Z" fill="#DDE3E9"/>
<path fill-rule="evenodd" clip-rule="evenodd" d="M814.459 502.892C805.87 406.273 751.725 353.394 751.725 353.394L751.707 353.41C751.704 353.405 751.7 353.399 751.697 353.394H750.151C747.375 353.489 741.695 353.737 741.695 353.737L735.97 370.049C735.062 399.881 725.361 490.288 725.361 490.288H776.771C776.683 494.433 776.489 498.637 776.178 502.892H814.459Z" fill="#2F3676"/>
<path fill-rule="evenodd" clip-rule="evenodd" d="M776.763 490.688C777.173 472.637 775.567 455.688 772.887 440.35C771.486 458.55 768.557 480.451 762.44 490.688H776.763Z" fill="black" fill-opacity="0.1"/>
<path fill-rule="evenodd" clip-rule="evenodd" d="M765.386 459.162L739.999 447.395V459.162H765.386Z" fill="white" fill-opacity="0.2"/>
</svg>
