<svg width="1040" height="713" viewBox="0 0 1040 713" fill="none" xmlns="http://www.w3.org/2000/svg">
<g opacity="0.504511">
<path fill-rule="evenodd" clip-rule="evenodd" d="M960.555 399.987C973.748 484.12 653.784 538.996 378.384 500.699C102.983 462.402 -23.3573 312.846 108.059 233.157C239.476 153.468 947.361 315.854 960.555 399.987Z" fill="#F2F2F2"/>
</g>
<g opacity="0.7">
<path fill-rule="evenodd" clip-rule="evenodd" d="M797.406 257.215C811.753 256.471 829.495 264.845 831.026 280.44C832.138 291.771 831.794 303.069 833.514 314.383C834.89 323.425 837.8 332.106 841.769 340.342C845.585 348.262 853.502 355.005 855.561 363.466C856.873 368.857 856.138 376.441 854.329 381.715C852.128 388.127 853.297 387.62 857.683 393C866.276 403.544 874.014 414.356 879.486 426.948C887.367 445.086 892.535 466.287 889.61 486.141C889.237 488.662 888.796 497.71 885.324 498.342C881.447 499.049 883.26 493.875 883.467 492.203C884.786 481.538 885.959 472.215 884.367 461.383C878.227 419.591 848.245 392.055 828.723 356.585C827.65 354.755 825.384 350.4 823.809 347.526C821.322 342.989 818.822 334.357 815.455 330.993C809.114 324.655 814.943 337.396 816.179 339.828C817.741 342.905 819.46 346.175 821.06 348.87C828.385 361.367 836.56 375.008 844.125 387.889C811.409 395.343 788.368 356.011 779.588 330.153C772.354 308.848 763.7 259.038 797.406 257.215Z" fill="#69A1AC"/>
<path fill-rule="evenodd" clip-rule="evenodd" d="M989.695 217.653C965.712 219.556 950.315 235.381 943.148 257.516C939.285 269.445 938.842 281.699 936.695 293.957C933.466 312.401 926.518 326.377 912.939 339.517C908.734 343.586 905.634 347.764 903.431 352.234C899.057 356.698 895.25 361.748 892.453 367.923C888.88 375.809 887.869 385.27 891.994 393.132C893.104 395.245 895.871 399.488 898.738 401.416C888.002 424.282 882.098 449.326 882.764 474.337C883.166 489.436 883.903 504.54 884.763 519.62C884.994 523.669 886.313 530.355 888.293 523.565C890.106 517.353 887.833 507.603 887.623 501.114C886.599 469.504 885.724 440.762 898.737 411.229C900.101 408.134 901.548 405.063 903.055 402.017C903.143 401.966 903.225 401.904 903.308 401.844C903.366 401.888 903.418 401.936 903.475 401.979C903.572 401.808 903.703 401.603 903.857 401.375C904.289 400.929 904.667 400.366 905.025 399.737C906.18 398.137 907.486 396.258 907.493 395.229C907.493 395.221 907.488 395.209 907.488 395.201C915.544 382.052 924.77 369.627 934.194 357.445C934.124 357.534 944.417 343.519 942.825 351.269C942.058 355.004 934.487 362.117 931.429 366.073C924.665 374.874 916.722 386.026 910.121 396.81C909.233 397.321 907.978 399.827 907.07 401.694C906.569 402.639 906.102 403.593 905.642 404.424C929.031 412.151 947.224 396.586 959.631 378.481C959.646 378.46 959.659 378.438 959.673 378.417C963.448 373.414 967.316 368.447 972.147 364.492C980.208 357.894 988.84 356.729 998.344 353.482C1024.26 344.627 1035.28 311.037 1038.78 286.114C1042.73 257.996 1023.42 214.88 989.695 217.653Z" fill="#89C5CC"/>
<path fill-rule="evenodd" clip-rule="evenodd" d="M942.319 138.912C917.705 164.531 905.813 200.064 896.396 233.469C885.879 270.778 878.933 308.664 878.666 347.455C878.491 372.94 877.798 398.585 879.286 424.041C879.813 433.082 880.715 442.139 882.147 451.082C882.266 451.817 885.472 471.786 888.539 467.133C890.284 464.487 885.253 446.418 884.873 443.408C882.734 426.458 882.237 409.382 882.342 392.308C882.513 364.198 881.684 336.231 884.533 308.224C884.958 304.042 885.294 299.65 886.288 295.559C887.342 291.21 885.999 293.109 889.434 291.387C892.772 289.713 896.897 289.952 900.36 287.852C914.097 279.522 921.125 258.125 926.594 244.086C932.85 228.032 936.652 210.912 939.688 194.016C941.918 181.603 943.512 169.265 944.414 156.692C944.699 152.729 944.716 148.586 945.494 144.689C945.704 143.638 946.757 141.779 946.719 140.848C946.638 138.878 945.449 137.72 945.351 136.065C944.321 136.992 943.309 137.942 942.319 138.912Z" fill="#89C5CC"/>
<path fill-rule="evenodd" clip-rule="evenodd" d="M808.103 480.236C808.103 522.603 842.448 556.948 884.814 556.948C927.181 556.948 961.526 522.603 961.526 480.236" fill="#89C5CC"/>
<path fill-rule="evenodd" clip-rule="evenodd" d="M937.386 413.072C956.371 411.672 977.574 426.989 986.732 442.928C994.115 455.779 992.871 472.655 988.311 486.308C985.257 495.449 978.593 508.481 967.479 508.608C953.574 508.767 952.904 491.582 952.635 481.535C952.278 468.179 950.59 456.543 940.065 447.439C938.766 446.315 937.402 445.263 936.039 444.211C934.828 443.278 933.618 442.344 932.453 441.36C932.267 441.203 932.08 441.046 931.892 440.888C928.171 437.76 924.262 434.475 923.786 429.319C923.096 421.847 927.314 420.503 933.754 421.891C933.961 421.935 934.526 422.149 935.293 422.44C938.582 423.687 945.6 426.347 944.272 423.167C943.772 421.969 941.947 421.019 939.642 420.308C933.679 419.66 926.568 418.907 924.523 419.357C902.46 424.197 893.87 454.759 891.588 474.176C891.342 476.272 891.143 478.375 890.969 480.481H886.916C887.197 475.395 887.569 470.319 888.419 465.29C891.671 446.056 901.838 417.807 924.137 414.685C924.96 414.569 927.986 414.549 931.652 414.764C933.389 413.794 935.335 413.207 937.386 413.072Z" fill="#69A1AC"/>
</g>
<g opacity="0.5">
<path fill-rule="evenodd" clip-rule="evenodd" d="M187.285 117.111C191.702 110.815 199.896 94.823 206.112 92.573C210.115 91.1238 208.948 106.115 208.997 108.973C209.19 120.032 208.113 131.021 206.784 141.987C204.388 161.764 196.556 179.377 185.813 196.209C180.285 204.871 173.801 213.637 164.821 219.041C160.687 221.53 155.713 221.947 151.631 224.091C146.877 226.587 149.466 224.569 147.323 229.523C144.348 236.402 143.396 245.276 142.019 252.616C135.698 286.308 120.394 464.416 123.047 498.688C123.283 501.726 119.047 502.452 118.836 498.744C117.712 479.081 127.437 342.915 132.344 298.385C137.25 253.854 142.215 214.514 147.194 199.108C153.234 180.417 164.142 157.94 173.222 140.51C177.44 132.413 182.037 124.594 187.285 117.111Z" fill="#69A1AC"/>
<path fill-rule="evenodd" clip-rule="evenodd" d="M220.062 335.513C231.553 327.076 243.991 342.998 233.593 351.436C227.845 356.1 221.835 354.441 218.452 350.554C216.256 353.231 214.2 356.03 212.225 358.395C206.207 365.599 200.519 372.976 195.083 380.524C183.791 396.206 174.113 412.774 163.995 429.039C154.01 445.091 144.104 461.226 135.054 477.685C127.386 491.63 117.167 508.035 114.542 523.323C118.525 490.9 133.638 459.736 151.635 431.153C169.485 402.805 189.971 371.846 217.61 349.474C214.797 345.337 214.719 339.433 220.062 335.513Z" fill="#C1DEE2"/>
<path fill-rule="evenodd" clip-rule="evenodd" d="M2.01048 256.439C8.44087 257.696 18.9481 272.243 24.2486 277.785C30.548 284.371 36.2631 291.391 41.6502 298.747C53.2476 314.579 63.6194 331.411 72.439 348.965C86.8173 377.58 98.3361 406.955 106.696 438.116C111.813 457.191 115.126 476.961 117.09 496.593C117.461 500.296 121.343 528.841 115.749 529.611C110.718 530.304 112.272 507.936 112.03 504.893C109.286 470.567 101.068 437.168 89.6357 404.813C87.1457 397.765 84.8324 389.133 80.8503 382.79C77.9826 378.222 80.8297 379.815 75.7901 378.086C71.4628 376.6 66.5324 376.963 62.1012 375.145C52.4747 371.197 44.7667 363.534 38.0101 355.825C24.8796 340.843 14.4744 324.636 9.05057 305.439C6.04181 294.795 3.27692 284.09 1.74258 273.117C1.34567 270.28 -2.13129 255.629 2.01048 256.439Z" fill="#69A1AC"/>
<path fill-rule="evenodd" clip-rule="evenodd" d="M27.3857 14.4135C51.6077 56.4204 71.5123 102.564 84.3649 149.3C92.152 177.618 97.5977 206.675 103.009 235.523C111.386 280.19 119.31 324.853 121.565 370.313C123.832 416.037 128.317 468.774 113.345 512.814C120.823 468.102 113.703 420.509 112.442 375.52C111.84 354.043 110.094 332.776 107.804 311.424C105.581 290.712 101.951 270.098 98.5697 249.549C96.9227 239.541 95.193 229.548 93.432 219.56C92.9062 216.581 92.6841 207.739 90.7939 205.703C88.8915 203.654 79.1851 202.819 76.1377 201.315C70.0013 198.287 64.2293 193.986 59.1208 189.441C49.3279 180.729 40.8085 169.345 34.0843 158.124C18.5264 132.159 12.3063 100.472 12.6207 70.4006C12.6811 64.5622 22.0706 1.69181 18.2996 0.826036C18.5266 0.560133 18.7414 0.28558 18.9439 0C21.7989 4.78008 24.6004 9.59255 27.3857 14.4135Z" fill="#89C5CC"/>
<path fill-rule="evenodd" clip-rule="evenodd" d="M288.822 165.915C289.196 165.376 291.628 161.627 290.403 161.867C292.897 161.379 286.973 166.001 293.187 163.165C290.237 165.951 291.939 169.571 291.979 173.321C292.043 179.41 291.024 185.449 289.877 191.408C288.065 200.826 285.366 209.983 281.447 218.743C272.907 237.833 258.405 256.211 241.189 268.146C232.69 274.039 224.361 276.045 214.667 278.758C208.545 280.472 208.059 283.639 204.809 289.58C198.043 301.955 191.397 314.285 185.43 327.077C178.305 342.353 171.388 357.645 164.864 373.189C142.884 425.548 124.994 479.793 115.599 535.932C115.369 502.85 123.022 468.778 132.675 437.245C139.707 414.271 148.862 392.124 158.626 370.202C160.992 364.891 164.577 358.06 165.582 352.196C166.286 348.088 164.135 344.137 163.15 339.809C159.311 322.956 159.585 304.076 162.957 287.133C166.674 268.45 177.425 259.778 195.611 257.132C202.262 256.164 210.715 256.519 216.814 253.683C223.458 250.595 226.199 240.444 229.977 233.928C240.125 216.425 252.183 199.639 266.028 184.891C269.861 180.807 273.984 177.039 278.358 173.547C281.116 171.344 286.942 168.629 288.822 165.915Z" fill="#89C5CC"/>
<path fill-rule="evenodd" clip-rule="evenodd" d="M79.7014 506.224C79.2335 503.051 81.6924 500.203 84.8994 500.203H149.439C152.646 500.203 155.105 503.051 154.637 506.224L149.649 540.049C148.128 550.361 139.28 558 128.857 558H105.482C95.0588 558 86.2104 550.361 84.6897 540.049L79.7014 506.224Z" fill="#C1DEE2"/>
</g>
<path fill-rule="evenodd" clip-rule="evenodd" d="M26.71 517.496C26.71 539.866 28.4753 558 52.1697 558C75.8642 558 77.6295 539.866 77.6295 517.496" fill="#F2F2F2"/>
<path fill-rule="evenodd" clip-rule="evenodd" d="M59.2182 503.539C58.3497 505.041 57.5752 506.572 56.8912 508.127C56.867 504.925 57.0441 501.7 57.5276 498.43C58.354 492.83 59.6162 487.259 60.8023 481.696C61.6548 477.699 61.6009 470.519 64.836 467.333C65.7231 466.645 65.9367 467.995 65.9367 468.582C65.9479 468.705 65.9342 466.189 65.0731 466.628C59.9549 469.271 58.2964 477.583 56.6578 481.744C54.267 487.819 52.2329 494.028 51.3953 500.348C51.1836 501.945 51.0684 503.541 51.0418 505.134C50.8679 504.708 50.7044 504.278 50.5237 503.854C47.5696 496.925 43.5829 490.165 38.6107 483.93C37.3869 482.396 21.998 467.259 20.7933 469.576C20.9121 469.912 21.161 470.191 21.5405 470.413C21.5628 470.439 21.5634 470.424 21.5504 470.387C22.4542 471.847 25.0239 474.102 25.8243 475.381C27.8387 478.6 29.4042 482.017 30.9952 485.368C34.3566 492.45 37.4748 499.603 40.4976 506.771C41.2014 508.441 41.935 510.101 42.6834 511.756C34.9682 500.628 24.676 490.526 10.5078 484.742C15.3469 487.204 18.5195 491.836 21.7875 495.382C25.729 499.66 29.8803 503.822 33.8292 508.095C38.4869 513.136 43.9673 518.444 48.4474 524.022C52.7869 533.132 57.0039 542.253 59.6069 551.83C58.5403 548.521 59.5234 543.948 59.3408 540.476C59.1959 537.711 58.8728 534.97 58.4301 532.234C58.9774 533.468 59.4491 534.703 59.6627 535.852C59.4677 533.925 59.243 532.01 59.0015 530.105C59.6212 528.322 60.2297 526.658 60.6408 525.287C62.7474 518.256 65.2558 511.345 68.6717 504.609C71.8325 498.379 75.4583 492.227 79.409 486.264C81.2519 483.483 83.1202 480.713 84.9768 477.938C86.1919 476.122 87.3489 473.213 89.0408 471.472C78.1047 481.471 66.1565 491.542 59.2182 503.539Z" fill="#F2F2F2"/>
<path fill-rule="evenodd" clip-rule="evenodd" d="M309.14 266.478C316.784 271.089 324.295 273.316 327.821 272.407C336.662 270.126 337.474 237.762 330.634 225.003C323.793 212.243 288.628 206.682 286.855 231.962C286.24 240.736 289.921 248.566 295.361 254.955L285.607 300.446H313.938L309.14 266.478Z" fill="#B28B67"/>
<path fill-rule="evenodd" clip-rule="evenodd" d="M333.308 230.733C333.028 229.079 332.342 227.242 331.788 225.677C331.075 223.66 329.995 221.842 328.807 220.128C326.57 216.901 323.886 213.987 320.923 211.568C315.511 207.15 308.622 204.602 301.847 205.429C298.427 205.847 295.106 207.153 292.28 209.326C289.726 211.29 287.27 214.18 283.964 214.388C280.366 214.614 277.068 211.436 274.183 209.474C270.929 207.261 267.469 205.649 263.666 205.022C257.297 203.973 251.313 206.126 246.923 211.356C242.252 216.921 238.856 225.082 241.924 232.456C242.494 233.826 243.228 234.982 244.28 235.94C245.246 236.818 246.721 237.752 247.112 239.156C247.528 240.647 246.286 242.572 245.804 243.918C245.114 245.846 244.547 247.87 244.749 249.966C245.08 253.408 247.241 256.694 249.524 258.957C251.847 261.259 254.706 262.579 257.759 263.188C259.798 263.594 261.882 263.818 263.954 263.666C264.982 263.59 265.89 263.304 266.887 263.077C267.856 262.855 268.398 263.113 269.22 263.645C273.04 266.116 277.147 267.072 281.558 266.705C285.281 266.395 289.572 265.492 292.608 262.939C295.981 260.105 295.914 256.196 295.12 252.019C295.961 252.436 298.287 252.694 296.897 251.032C296.347 250.374 295.306 250.106 294.6 249.719C293.777 249.268 292.942 248.685 292.303 247.95C289.723 244.981 292.329 238.938 295.571 237.942C300.387 236.463 301.466 243.28 304.904 245.043C306.882 246.057 308.95 244.671 310.431 243.256C312.415 241.361 313.767 238.85 314.935 236.294C315.897 234.19 316.792 232.056 317.772 229.962C318.229 228.984 319.814 226.22 319.018 225.114C322.468 224.425 326.311 225.86 329.282 227.742C330.51 228.519 331.447 229.377 332.102 230.75C332.242 231.044 332.548 231.919 332.931 231.955C333.646 232.022 333.379 231.148 333.308 230.733Z" fill="#191847"/>
<path fill-rule="evenodd" clip-rule="evenodd" d="M213.887 449.287C204.601 449.287 197.073 456.815 197.073 466.101V578.952C197.073 588.238 204.601 595.766 213.887 595.766H353.786C363.072 595.766 370.6 588.238 370.6 578.952V466.101C370.6 456.815 363.072 449.287 353.786 449.287H213.887ZM234.328 482.363C232.007 482.363 230.125 484.245 230.125 486.566V558.487C230.125 560.808 232.007 562.69 234.328 562.69H333.342C335.664 562.69 337.546 560.808 337.546 558.487V486.566C337.546 484.245 335.664 482.363 333.342 482.363H234.328Z" fill="#C5CFD6"/>
<path fill-rule="evenodd" clip-rule="evenodd" d="M487.652 589.86C464.379 561.42 448.631 540.336 440.41 526.607C426.333 503.101 414.811 482.184 411.176 474.194C402.505 455.141 431.136 446.22 437.615 455.107C447.422 468.557 468.367 510.883 500.45 582.084L487.652 589.86Z" fill="#B28B67"/>
<path fill-rule="evenodd" clip-rule="evenodd" d="M439.96 581.591L396.646 472.485C387.382 452.595 432.119 439.521 438.928 448.777C454.385 469.792 491.122 552.69 495.727 558.951L439.96 581.591Z" fill="#2F3676"/>
<path fill-rule="evenodd" clip-rule="evenodd" d="M324.601 559.71C333.039 547.394 363.728 505.958 380.444 488.814C385.247 483.887 389.934 479.159 394.367 474.752C407.543 461.655 433.782 483.669 420.63 495.599C387.876 525.308 340.087 565.415 336.094 568.991C330.498 574.003 319.299 567.45 324.601 559.71Z" fill="#B28B67"/>
<path fill-rule="evenodd" clip-rule="evenodd" d="M329.902 554.412C329.18 553.415 327.77 553.18 326.826 553.968C324.894 555.582 321.942 558.211 320.902 560.013C319.306 562.78 317.164 568.621 317.164 568.621C320.372 570.475 374.824 601.934 374.824 601.934C374.824 601.934 381.361 595.797 376.861 592.407C372.361 589.016 369.433 586.688 369.433 586.688L349.453 559.14C349.106 558.661 348.431 558.563 347.962 558.925L343.721 562.193C343.721 562.193 338.03 561.696 335.228 560.077C333.451 559.05 331.265 556.293 329.902 554.412Z" fill="#E4E4E4"/>
<path fill-rule="evenodd" clip-rule="evenodd" d="M480.655 584.177C479.531 583.675 478.193 584.176 477.769 585.332C476.902 587.696 475.659 591.449 475.659 593.53C475.659 596.726 476.723 602.856 476.723 602.856C480.427 602.856 543.303 602.856 543.303 602.856C543.303 602.856 545.898 594.27 540.306 593.585C534.715 592.901 531.017 592.349 531.017 592.349L499.95 578.489C499.409 578.248 498.775 578.501 498.55 579.049L496.51 584.001C496.51 584.001 491.333 586.418 488.097 586.418C486.046 586.418 482.775 585.124 480.655 584.177Z" fill="#E4E4E4"/>
<path fill-rule="evenodd" clip-rule="evenodd" d="M381.061 477.934C381.061 477.934 327.061 469.131 308.721 465.895C273.87 459.745 263.708 440.978 269.716 400.031L333.928 400.031C346.674 403.715 440.444 445.593 440.444 445.593C451.691 451.18 449.597 467.654 447.541 473.081C447.415 473.413 390.658 570.621 390.658 570.621L338.13 537.135L381.159 481.88C381.159 481.88 382.864 478.444 381.061 477.934Z" fill="#5D74B9"/>
<path fill-rule="evenodd" clip-rule="evenodd" d="M209.346 451.543C212.806 444.521 230.089 354.137 230.089 354.137L255.938 354.234C255.938 354.234 226.407 449.977 224.586 454.493C222.22 460.36 226.239 468.884 228.963 474.663C229.385 475.557 229.775 476.386 230.107 477.129C226.326 478.822 224.51 476.775 222.595 474.618C220.433 472.181 218.145 469.603 212.758 472.111C210.677 473.08 208.707 474.225 206.783 475.345C200.138 479.21 194.032 482.762 185.727 477.633C184.41 476.82 182.967 473.759 186.453 471.367C195.139 465.407 207.655 454.977 209.346 451.543ZM427.049 416.326L393.61 383.681L382.503 402.913L417.276 423.428C425.995 437.173 431.116 443.111 432.638 441.244C433.922 439.67 433.334 437.945 432.792 436.355C432.37 435.117 431.976 433.962 432.517 433.025C433.753 430.885 440.734 432.11 447.309 433.557C453.885 435.003 452.363 431.771 450.966 430.084C444.751 425.065 436.779 420.479 427.049 416.326Z" fill="#B28B67"/>
<path fill-rule="evenodd" clip-rule="evenodd" d="M308.855 280.758L319.063 279.006C335.143 335.887 417.761 374.659 422.833 395.923C424.693 403.721 419.085 407.663 421.982 410.038L408.714 419.757C406.467 417.134 401.672 421.933 391.66 418.576C381.647 415.219 308.855 348.11 308.855 280.758Z" fill="#AF9957"/>
<path fill-rule="evenodd" clip-rule="evenodd" d="M290.182 268.846C287.866 268.684 285.857 270.43 285.696 272.746L285.176 280.186C265.965 294.98 218.354 339.186 205.947 421.478C204.644 430.122 207.001 434.752 208.884 438.452C210.172 440.983 211.239 443.078 210.76 445.725L228.124 450.521C228.124 448.567 230.313 447.08 233.136 445.162C237.242 442.373 242.689 438.672 244.704 431.295C246.613 424.302 249.409 415.568 252.749 405.853C253.065 418.72 255.503 430.554 260.815 440.356C274.069 464.809 350.658 437.992 358.66 413.045C362.93 399.733 356.871 388.557 348.858 373.776C338.686 355.013 325.365 330.44 326.025 288.313L326.911 275.63C327.073 273.314 325.326 271.306 323.011 271.144L290.182 268.846Z" fill="#B9A25D"/>
<path fill-rule="evenodd" clip-rule="evenodd" d="M745.573 643.377C795.772 643.377 836.467 604.504 836.467 556.553C836.467 508.601 795.772 469.729 745.573 469.729C695.373 469.729 654.678 508.601 654.678 556.553C654.678 604.504 695.373 643.377 745.573 643.377Z" fill="#C5CFD6"/>
<path fill-rule="evenodd" clip-rule="evenodd" d="M715.701 313.598C708.329 318.037 701.085 320.182 697.685 319.306C689.159 317.111 688.375 285.955 694.972 273.672C701.569 261.389 735.482 256.036 737.192 280.372C737.785 288.818 734.235 296.355 728.989 302.506L738.396 346.299H711.073L715.701 313.598Z" fill="#B28B67"/>
<path fill-rule="evenodd" clip-rule="evenodd" d="M682.868 256.645C683.433 254.658 684.955 252.957 687.006 252.452C687.503 252.33 688.017 252.281 688.529 252.301C688.712 252.308 688.764 252.361 688.85 252.233C688.913 252.138 688.915 251.906 688.941 251.794C689.022 251.447 689.124 251.104 689.25 250.769C689.679 249.63 690.4 248.621 691.27 247.771C692.896 246.181 695.093 245.084 697.375 244.885C698.625 244.777 699.865 244.98 701.046 245.386C701.658 245.596 702.251 245.857 702.828 246.147C703.002 246.234 703.566 246.66 703.741 246.633C703.933 246.602 704.321 246.124 704.477 246.004C706.414 244.519 708.806 243.936 711.219 243.954C713.942 243.974 716.564 244.11 718.835 245.768C719.316 246.119 719.774 246.503 720.209 246.908C720.439 247.121 720.661 247.342 720.874 247.572C721.001 247.711 721.126 247.853 721.246 247.999C721.45 248.247 721.417 248.328 721.702 248.155C722.795 247.492 724.061 247.182 725.337 247.338C726.095 247.431 726.832 247.659 727.531 247.958C727.77 248.059 728.321 248.465 728.575 248.469C728.827 248.473 729.371 248.097 729.63 248.001C731.032 247.484 732.543 247.357 734.016 247.596C735.536 247.842 737.029 248.448 738.316 249.285C738.936 249.687 739.476 250.133 739.91 250.732C740.097 250.991 740.267 251.264 740.479 251.504C740.603 251.644 740.85 251.788 740.916 251.965C740.876 251.859 742.578 251.204 742.739 251.162C743.595 250.939 744.466 250.984 745.304 251.259C746.879 251.777 748.234 252.939 749.348 254.129C749.92 254.741 750.42 255.417 750.845 256.137C751.048 256.482 751.235 256.837 751.405 257.2C751.488 257.375 751.542 257.595 751.651 257.753C751.791 257.957 751.885 257.961 752.139 258.05C753.429 258.501 754.604 259.265 755.499 260.297C756.405 261.341 756.992 262.627 757.238 263.981C757.253 264.06 757.261 264.391 757.308 264.434C757.372 264.494 757.632 264.467 757.73 264.479C758.069 264.519 758.407 264.578 758.739 264.656C759.353 264.802 759.95 265.015 760.515 265.294C762.716 266.382 764.291 268.422 765.061 270.718C765.87 273.127 765.856 275.887 764.889 278.251C764.733 278.633 764.547 279.003 764.329 279.354C764.195 279.569 764.152 279.57 764.239 279.796C764.336 280.047 764.513 280.291 764.628 280.537C765.004 281.338 765.266 282.187 765.432 283.055C765.704 284.479 765.839 285.974 765.571 287.409C765.446 288.075 765.229 288.726 764.898 289.319C764.729 289.621 764.531 289.908 764.308 290.174C764.192 290.311 764.069 290.443 763.94 290.569C763.867 290.641 763.77 290.704 763.708 290.785C763.555 290.981 763.523 290.819 763.601 291.107C763.712 291.51 763.961 291.907 764.114 292.299C764.272 292.703 764.414 293.112 764.545 293.525C764.808 294.362 765.032 295.214 765.171 296.081C765.439 297.745 765.392 299.518 764.604 301.045C764.267 301.698 763.784 302.271 763.198 302.717C762.911 302.935 762.6 303.123 762.274 303.277C762.106 303.357 761.893 303.391 761.816 303.553C761.734 303.727 761.856 304.072 761.884 304.267C762.126 305.959 762.248 307.736 761.744 309.395C761.28 310.922 760.259 312.271 758.933 313.164C756.36 314.896 752.893 314.798 750.19 313.412C749.485 313.05 748.826 312.601 748.238 312.072C746.741 314.085 743.66 314.022 741.472 313.448C738.745 312.733 736.558 310.84 735.297 308.352C733.574 310.447 729.957 309.767 728.762 307.494C728.469 306.937 728.296 306.324 728.21 305.703C728.165 305.377 728.194 305.048 728.16 304.724C728.117 304.312 727.841 303.911 727.683 303.512C727.374 302.735 727.182 301.933 727.174 301.095C727.17 300.657 727.225 300.231 727.267 299.797C727.304 299.407 727.196 299.043 727.134 298.657C727.833 298.772 728.685 298.584 729.344 298.381C729.99 298.183 730.596 297.659 731.052 297.181C732.112 296.071 732.759 294.616 733.201 293.168C734.173 289.989 733.775 286.175 730.574 284.431C729.083 283.618 724.616 283.621 722.84 284.022C720.973 284.445 718.856 288.56 718.752 288.947C718.687 289.187 718.72 289.483 718.5 289.643C718.016 289.993 717.218 289.385 716.861 289.084C716.245 288.566 715.805 287.876 715.425 287.177C714.596 285.653 713.928 284.019 713.455 282.351C713.091 281.066 712.859 279.74 712.383 278.487C711.91 277.24 711.163 276.125 710.003 275.419C708.741 274.65 707.294 274.246 705.908 273.763C704.535 273.284 703.185 272.699 702.12 271.684C701.886 271.461 701.659 271.223 701.47 270.961C701.322 270.753 701.175 270.356 700.948 270.224C700.596 270.019 700.081 270.552 699.777 270.745C698.273 271.699 697.019 273.029 696.008 274.482C695.002 275.927 694.177 277.317 693.506 278.931C693.008 280.128 692.698 281.66 691.823 282.641C691.432 283.079 688.529 283.344 687.588 282.962C686.648 282.579 685.594 281.587 685.278 280.964C684.955 280.328 684.878 279.628 685.016 278.931C685.097 278.521 685.263 278.138 685.354 277.735C685.43 277.396 685.499 277.077 685.664 276.767C685.977 276.179 686.511 275.757 687.154 275.58C686.484 274.963 685.929 274.225 685.545 273.4C685.146 272.543 684.808 271.5 684.712 270.559C684.634 269.795 684.754 269.003 685.173 268.346C685.612 267.657 686.391 267.208 687.064 266.778C686.035 265.974 685.155 264.996 684.431 263.913C683.023 261.808 682.153 259.154 682.868 256.645Z" fill="#191847"/>
<path fill-rule="evenodd" clip-rule="evenodd" d="M613.498 550.513C609.264 565.329 598.715 593.41 584.129 625.658L570.268 621.618C582.395 547.412 592.486 498.284 598.267 483.331C602.086 473.452 630.982 474.609 627.658 494.488C626.264 502.824 620.748 525.146 613.498 550.513ZM670.469 497.954C693.073 502.632 739.939 519.169 753.322 524.453C761.733 527.774 756.311 539.036 749.135 538.051C747.92 537.884 743.621 537.404 737.207 536.687C716.604 534.385 674.175 529.643 641.996 525.017C625.051 522.581 634.166 490.877 651.759 494.232C657.678 495.361 663.974 496.61 670.469 497.954Z" fill="#B28B67"/>
<path fill-rule="evenodd" clip-rule="evenodd" d="M597.381 474.958C599.692 467.425 704.742 440.686 704.742 440.686H713.351V448.699L640.962 485.509C641.059 486.696 641 487.952 640.766 489.276C641.289 516.564 629.597 536.95 618.021 557.134C610.451 570.333 602.931 583.445 598.909 598.345L572.313 594.382C573.088 592.402 574.313 583.478 575.988 571.277C580.211 540.512 587.295 488.911 597.232 475.259C597.267 475.212 597.302 475.165 597.338 475.118C597.351 475.064 597.365 475.011 597.381 474.958Z" fill="#B9A25D"/>
<path fill-rule="evenodd" clip-rule="evenodd" d="M707.335 507.37C713.959 506.046 720.058 504.864 725.278 503.949C758.99 498.043 768.821 480.016 763.009 440.686H700.894C690.747 443.597 638.017 465.686 610.657 477.435C592.55 485.211 598.258 513.242 608.512 520.537C608.568 520.985 608.752 521.289 609.081 521.425C647.959 537.521 681.112 536.32 702.402 535.549C711.319 535.226 718.154 534.979 722.457 536.109L729.2 514.862L707.335 507.37Z" fill="#AF9957"/>
<path fill-rule="evenodd" clip-rule="evenodd" d="M746.219 523.354C746.272 522.024 747.396 520.96 748.72 521.1C751.138 521.357 754.706 521.859 756.443 522.705C759.211 524.054 764.071 527.562 764.071 527.562C762.505 530.769 735.923 585.209 735.923 585.209C735.923 585.209 727.389 583.833 729.16 578.703C730.931 573.573 732.017 570.137 732.017 570.137L733.141 537.518C733.164 536.877 733.71 536.381 734.35 536.422L739.374 536.737C739.374 536.737 743.656 533.275 745.024 530.473C745.857 528.767 746.132 525.584 746.219 523.354Z" fill="#E4E4E4"/>
<path fill-rule="evenodd" clip-rule="evenodd" d="M587.616 618.406C588.834 617.87 590.282 618.413 590.736 619.663C591.565 621.947 592.678 625.372 592.678 627.302C592.678 630.378 591.652 636.279 591.652 636.279C588.079 636.279 527.443 636.279 527.443 636.279C527.443 636.279 524.94 628.014 530.332 627.355C535.725 626.696 539.292 626.165 539.292 626.165L569.137 612.874C569.722 612.613 570.407 612.887 570.651 613.479L572.57 618.128C572.57 618.128 577.562 620.455 580.683 620.455C582.584 620.455 585.571 619.305 587.616 618.406Z" fill="#E4E4E4"/>
<path fill-rule="evenodd" clip-rule="evenodd" d="M615.022 454.055L647.271 422.629L657.982 441.142L624.447 460.892C616.038 474.123 611.1 479.84 609.632 478.043C608.393 476.527 608.961 474.866 609.484 473.336C609.891 472.144 610.271 471.032 609.749 470.13C608.557 468.07 601.824 469.25 595.483 470.642C589.142 472.035 590.609 468.923 591.957 467.299C597.95 462.468 605.638 458.053 615.022 454.055ZM805.109 499.714C801.773 492.953 790.412 427.061 790.412 427.061L766.622 427.155C766.622 427.155 788.656 498.206 790.412 502.554C792.693 508.201 788.818 516.407 786.19 521.97C785.784 522.831 785.407 523.629 785.088 524.344C788.734 525.974 790.485 524.004 792.332 521.927C794.417 519.581 796.624 517.099 801.819 519.514C803.826 520.446 805.725 521.549 807.58 522.626C813.99 526.348 819.878 529.767 827.887 524.83C829.157 524.047 830.549 521.1 827.186 518.797C818.81 513.06 806.74 503.019 805.109 499.714Z" fill="#B28B67"/>
<path fill-rule="evenodd" clip-rule="evenodd" d="M722.805 327.344L712.961 325.657C696.013 367.949 666.423 406.377 624.192 440.94L656.104 479.668C698.331 430.455 724.359 379.68 722.805 327.344Z" fill="#191847"/>
<path fill-rule="evenodd" clip-rule="evenodd" d="M765.717 450.92H678.059C678.059 450.92 708.521 376.932 708.521 325.217L734.963 321.281C755.744 354.667 761.613 395.772 765.717 450.92Z" fill="#DDE3E9"/>
<path fill-rule="evenodd" clip-rule="evenodd" d="M805.562 488.446C795.975 380.41 735.544 321.281 735.544 321.281L735.523 321.3C735.52 321.294 735.516 321.287 735.513 321.281H733.787C730.689 321.388 724.35 321.665 724.35 321.665L717.96 339.905C716.946 373.262 706.12 474.352 706.12 474.352H763.497C763.399 478.987 763.183 483.688 762.836 488.446H805.562Z" fill="#2F3676"/>
<path fill-rule="evenodd" clip-rule="evenodd" d="M763.489 474.801C763.947 454.617 762.154 435.665 759.164 418.514C757.599 438.865 754.331 463.354 747.504 474.801H763.489Z" fill="black" fill-opacity="0.1"/>
<path fill-rule="evenodd" clip-rule="evenodd" d="M750.791 439.549L722.457 426.391V439.549H750.791Z" fill="white" fill-opacity="0.2"/>
</svg>
