<svg width="50" height="51" viewBox="0 0 50 51" fill="none" xmlns="http://www.w3.org/2000/svg">
<path fill-rule="evenodd" clip-rule="evenodd" d="M25.0002 14.875C19.2472 14.875 14.5835 19.632 14.5835 25.5C14.5835 31.368 19.2472 36.125 25.0002 36.125C30.7531 36.125 35.4168 31.368 35.4168 25.5C35.4168 19.632 30.7531 14.875 25.0002 14.875ZM18.7502 25.5C18.7502 29.0208 21.5484 31.875 25.0002 31.875C28.4519 31.875 31.2502 29.0208 31.2502 25.5C31.2502 21.9792 28.4519 19.125 25.0002 19.125C21.5484 19.125 18.7502 21.9792 18.7502 25.5Z" fill="white"/>
<path d="M37.5002 10.625C36.3496 10.625 35.4168 11.5764 35.4168 12.75C35.4168 13.9236 36.3496 14.875 37.5002 14.875C38.6508 14.875 39.5835 13.9236 39.5835 12.75C39.5835 11.5764 38.6508 10.625 37.5002 10.625Z" fill="white"/>
<path fill-rule="evenodd" clip-rule="evenodd" d="M10.4168 2.125C5.81446 2.125 2.0835 5.93058 2.0835 10.625V40.375C2.0835 45.0694 5.81446 48.875 10.4168 48.875H39.5835C44.1859 48.875 47.9168 45.0694 47.9168 40.375V10.625C47.9168 5.93058 44.1859 2.125 39.5835 2.125H10.4168ZM39.5835 6.375H10.4168C8.11564 6.375 6.25016 8.27779 6.25016 10.625V40.375C6.25016 42.7222 8.11564 44.625 10.4168 44.625H39.5835C41.8847 44.625 43.7502 42.7222 43.7502 40.375V10.625C43.7502 8.27779 41.8847 6.375 39.5835 6.375Z" fill="white"/>
</svg>
