<svg width="334" height="83" viewBox="0 0 334 83" fill="none" xmlns="http://www.w3.org/2000/svg">
<path d="M2.15625 50V32.9375H7.19531C9.02344 32.9375 10.4102 33.3164 11.3555 34.0742C12.3008 34.8242 12.7734 35.9336 12.7734 37.4023C12.7734 38.2852 12.5312 39.0547 12.0469 39.7109C11.5703 40.3594 10.9141 40.8242 10.0781 41.1055C11.0703 41.3242 11.8672 41.8125 12.4688 42.5703C13.0781 43.3281 13.3828 44.2031 13.3828 45.1953C13.3828 46.7031 12.8945 47.8828 11.918 48.7344C10.9492 49.5781 9.59766 50 7.86328 50H2.15625ZM3.59766 41.7969V48.7812H7.92188C9.15625 48.7812 10.1328 48.4688 10.8516 47.8438C11.5781 47.2109 11.9414 46.3359 11.9414 45.2188C11.9414 44.1641 11.5938 43.332 10.8984 42.7227C10.2109 42.1055 9.25781 41.7969 8.03906 41.7969H3.59766ZM3.59766 40.5898H7.53516C8.73828 40.5664 9.66797 40.2852 10.3242 39.7461C10.9883 39.1992 11.3203 38.4062 11.3203 37.3672C11.3203 36.2734 10.9766 35.4688 10.2891 34.9531C9.60938 34.4297 8.57812 34.168 7.19531 34.168H3.59766V40.5898ZM17.4881 48.7812H25.9139V50H16.035V32.9375H17.4881V48.7812ZM38.9723 32.9375V44.5859C38.9645 45.7344 38.7106 46.7344 38.2106 47.5859C37.7106 48.4375 37.0036 49.0938 36.0895 49.5547C35.1833 50.0078 34.1403 50.2344 32.9606 50.2344C31.1637 50.2344 29.7223 49.7461 28.6364 48.7695C27.5583 47.7852 26.9997 46.4258 26.9606 44.6914V32.9375H28.3903V44.4805C28.3903 45.918 28.8005 47.0352 29.6208 47.832C30.4411 48.6211 31.5544 49.0156 32.9606 49.0156C34.3669 49.0156 35.4762 48.6172 36.2887 47.8203C37.1091 47.0234 37.5192 45.9141 37.5192 44.4922V32.9375H38.9723ZM51.5737 41.8203H43.5933V48.7812H52.7691V50H42.1519V32.9375H52.7105V34.168H43.5933V40.6016H51.5737V41.8203ZM54.9759 50V32.9375H60.015C61.8431 32.9375 63.2298 33.3164 64.1752 34.0742C65.1205 34.8242 65.5931 35.9336 65.5931 37.4023C65.5931 38.2852 65.3509 39.0547 64.8666 39.7109C64.39 40.3594 63.7337 40.8242 62.8978 41.1055C63.89 41.3242 64.6869 41.8125 65.2884 42.5703C65.8978 43.3281 66.2025 44.2031 66.2025 45.1953C66.2025 46.7031 65.7142 47.8828 64.7377 48.7344C63.7689 49.5781 62.4173 50 60.683 50H54.9759ZM56.4173 41.7969V48.7812H60.7416C61.9759 48.7812 62.9525 48.4688 63.6712 47.8438C64.3978 47.2109 64.7611 46.3359 64.7611 45.2188C64.7611 44.1641 64.4134 43.332 63.7181 42.7227C63.0306 42.1055 62.0775 41.7969 60.8587 41.7969H56.4173ZM56.4173 40.5898H60.3548C61.558 40.5664 62.4877 40.2852 63.1439 39.7461C63.808 39.1992 64.14 38.4062 64.14 37.3672C64.14 36.2734 63.7962 35.4688 63.1087 34.9531C62.4291 34.4297 61.3978 34.168 60.015 34.168H56.4173V40.5898ZM81.4641 42.3945C81.4641 43.9648 81.1906 45.3438 80.6438 46.5312C80.1047 47.7188 79.3313 48.6328 78.3234 49.2734C77.3156 49.9141 76.1516 50.2344 74.8313 50.2344C72.8391 50.2344 71.2297 49.5234 70.0031 48.1016C68.7766 46.6719 68.1633 44.7461 68.1633 42.3242V40.5664C68.1633 39.0117 68.4367 37.6367 68.9836 36.4414C69.5383 35.2383 70.3195 34.3164 71.3273 33.6758C72.3352 33.0273 73.4953 32.7031 74.8078 32.7031C76.1203 32.7031 77.2766 33.0195 78.2766 33.6523C79.2844 34.2852 80.0617 35.1797 80.6086 36.3359C81.1555 37.4922 81.4406 38.832 81.4641 40.3555V42.3945ZM80.0227 40.543C80.0227 38.4883 79.5578 36.8789 78.6281 35.7148C77.6984 34.5508 76.425 33.9688 74.8078 33.9688C73.2219 33.9688 71.9563 34.5547 71.0109 35.7266C70.0734 36.8906 69.6047 38.5195 69.6047 40.6133V42.3945C69.6047 44.418 70.0734 46.0234 71.0109 47.2109C71.9484 48.3906 73.2219 48.9805 74.8313 48.9805C76.4641 48.9805 77.7375 48.3984 78.6516 47.2344C79.5656 46.0625 80.0227 44.4336 80.0227 42.3477V40.543ZM96.96 50H95.5186L85.71 35.3984V50H84.2569V32.9375H85.71L95.5303 47.5508V32.9375H96.96V50ZM113.159 50H111.718L101.909 35.3984V50H100.456V32.9375H101.909L111.729 47.5508V32.9375H113.159V50ZM126.077 41.8203H118.096V48.7812H127.272V50H116.655V32.9375H127.214V34.168H118.096V40.6016H126.077V41.8203ZM141.292 34.168H135.444V50H134.003V34.168H128.167V32.9375H141.292V34.168ZM209.786 44.6797C209.59 46.4766 208.946 47.8516 207.852 48.8047C206.766 49.7578 205.317 50.2344 203.505 50.2344C202.239 50.2344 201.118 49.918 200.141 49.2852C199.173 48.6523 198.423 47.7578 197.891 46.6016C197.36 45.4375 197.09 44.1094 197.083 42.6172V40.4023C197.083 38.8867 197.348 37.543 197.88 36.3711C198.411 35.1992 199.173 34.2969 200.165 33.6641C201.165 33.0234 202.313 32.7031 203.61 32.7031C205.438 32.7031 206.88 33.1992 207.934 34.1914C208.997 35.1758 209.614 36.5391 209.786 38.2812H208.333C207.973 35.3828 206.399 33.9336 203.61 33.9336C202.063 33.9336 200.829 34.5117 199.907 35.668C198.993 36.8242 198.536 38.4219 198.536 40.4609V42.5469C198.536 44.5156 198.981 46.0859 199.872 47.2578C200.77 48.4297 201.981 49.0156 203.505 49.0156C205.012 49.0156 206.149 48.6562 206.915 47.9375C207.68 47.2109 208.153 46.125 208.333 44.6797H209.786ZM225.059 42.3945C225.059 43.9648 224.786 45.3438 224.239 46.5312C223.7 47.7188 222.926 48.6328 221.918 49.2734C220.911 49.9141 219.747 50.2344 218.426 50.2344C216.434 50.2344 214.825 49.5234 213.598 48.1016C212.372 46.6719 211.758 44.7461 211.758 42.3242V40.5664C211.758 39.0117 212.032 37.6367 212.579 36.4414C213.133 35.2383 213.915 34.3164 214.922 33.6758C215.93 33.0273 217.09 32.7031 218.403 32.7031C219.715 32.7031 220.872 33.0195 221.872 33.6523C222.879 34.2852 223.657 35.1797 224.204 36.3359C224.75 37.4922 225.036 38.832 225.059 40.3555V42.3945ZM223.618 40.543C223.618 38.4883 223.153 36.8789 222.223 35.7148C221.293 34.5508 220.02 33.9688 218.403 33.9688C216.817 33.9688 215.551 34.5547 214.606 35.7266C213.668 36.8906 213.2 38.5195 213.2 40.6133V42.3945C213.2 44.418 213.668 46.0234 214.606 47.2109C215.543 48.3906 216.817 48.9805 218.426 48.9805C220.059 48.9805 221.333 48.3984 222.247 47.2344C223.161 46.0625 223.618 44.4336 223.618 42.3477V40.543ZM239.606 32.9375V44.5859C239.598 45.7344 239.344 46.7344 238.844 47.5859C238.344 48.4375 237.637 49.0938 236.723 49.5547C235.817 50.0078 234.774 50.2344 233.594 50.2344C231.797 50.2344 230.356 49.7461 229.27 48.7695C228.192 47.7852 227.633 46.4258 227.594 44.6914V32.9375H229.024V44.4805C229.024 45.918 229.434 47.0352 230.254 47.832C231.075 48.6211 232.188 49.0156 233.594 49.0156C235 49.0156 236.11 48.6172 236.922 47.8203C237.743 47.0234 238.153 45.9141 238.153 44.4922V32.9375H239.606ZM255.488 50H254.047L244.238 35.3984V50H242.785V32.9375H244.238L254.059 47.5508V32.9375H255.488V50ZM268.641 45.8047C268.641 44.8594 268.309 44.1133 267.645 43.5664C266.98 43.0117 265.766 42.4883 264 41.9961C262.234 41.4961 260.945 40.9531 260.133 40.3672C258.977 39.5391 258.398 38.4531 258.398 37.1094C258.398 35.8047 258.934 34.7461 260.004 33.9336C261.082 33.1133 262.457 32.7031 264.129 32.7031C265.262 32.7031 266.273 32.9219 267.164 33.3594C268.062 33.7969 268.758 34.4062 269.25 35.1875C269.742 35.9688 269.988 36.8398 269.988 37.8008H268.535C268.535 36.6367 268.137 35.7031 267.34 35C266.543 34.2891 265.473 33.9336 264.129 33.9336C262.824 33.9336 261.785 34.2266 261.012 34.8125C260.238 35.3906 259.852 36.1484 259.852 37.0859C259.852 37.9531 260.199 38.6602 260.895 39.207C261.59 39.7539 262.703 40.2383 264.234 40.6602C265.766 41.0742 266.926 41.5078 267.715 41.9609C268.504 42.4062 269.098 42.9414 269.496 43.5664C269.895 44.1914 270.094 44.9297 270.094 45.7812C270.094 47.125 269.555 48.2031 268.477 49.0156C267.406 49.8281 265.992 50.2344 264.234 50.2344C263.031 50.2344 261.926 50.0195 260.918 49.5898C259.918 49.1602 259.156 48.5586 258.633 47.7852C258.117 47.0117 257.859 46.125 257.859 45.125H259.301C259.301 46.3281 259.75 47.2773 260.648 47.9727C261.547 48.668 262.742 49.0156 264.234 49.0156C265.562 49.0156 266.629 48.7227 267.434 48.1367C268.238 47.5508 268.641 46.7734 268.641 45.8047ZM281.793 41.8203H273.812V48.7812H282.988V50H272.371V32.9375H282.93V34.168H273.812V40.6016H281.793V41.8203ZM286.648 48.7812H295.074V50H285.195V32.9375H286.648V48.7812ZM298.769 50H297.328V32.9375H298.769V50ZM315.273 50H313.831L304.023 35.3984V50H302.57V32.9375H304.023L313.843 47.5508V32.9375H315.273V50ZM331.085 47.9727C330.585 48.6836 329.8 49.2383 328.73 49.6367C327.667 50.0352 326.476 50.2344 325.155 50.2344C323.82 50.2344 322.632 49.9141 321.593 49.2734C320.554 48.6328 319.749 47.7266 319.179 46.5547C318.609 45.3828 318.32 44.0391 318.312 42.5234V40.3672C318.312 38 318.909 36.1328 320.105 34.7656C321.3 33.3906 322.905 32.7031 324.921 32.7031C326.679 32.7031 328.093 33.1523 329.163 34.0508C330.234 34.9414 330.87 36.1719 331.073 37.7422H329.632C329.421 36.4922 328.909 35.5469 328.097 34.9062C327.292 34.2578 326.237 33.9336 324.933 33.9336C323.339 33.9336 322.077 34.5 321.148 35.6328C320.218 36.7656 319.753 38.3633 319.753 40.4258V42.4414C319.753 43.7383 319.972 44.8867 320.409 45.8867C320.855 46.8789 321.487 47.6484 322.308 48.1953C323.136 48.7422 324.085 49.0156 325.155 49.0156C326.398 49.0156 327.464 48.8203 328.355 48.4297C328.933 48.1719 329.362 47.8711 329.644 47.5273V43.1211H325.062V41.9023H331.085V47.9727Z" fill="#1B1B1B"/>
<path d="M154.005 49.0558C154.005 49.0558 153.392 50.3302 154.005 50.5999C154.618 50.8696 154.576 50.4651 154.882 50.5999C155.495 50.8696 154.663 51.5727 154.882 52.144C155.117 52.7536 155.84 52.8148 156.053 53.4307C156.218 53.9116 155.872 54.2407 156.053 54.7174C156.233 55.1941 156.93 55.7468 156.93 55.7468L156.053 56.7761C156.053 56.7761 152.352 62.3313 151.664 66.2978C151.216 68.8809 150.872 70.4704 151.664 72.9888C151.992 74.032 152.527 75.5434 152.834 76.5916C153.433 78.6353 150.478 81.6009 152.834 81.9958C153.283 82.071 153.568 81.0854 154.005 80.9664C155.249 80.6273 154.592 79.2526 154.882 78.1356C155.379 76.2271 155.76 73.1818 155.76 73.1818M154.005 49.0558C154.005 49.0558 154.005 47.9579 154.005 47.2544M154.005 49.0558L157.808 49.5705M154.005 47.2544C154.005 46.8524 154.005 46.627 154.005 46.225M154.005 47.2544C154.005 47.2544 154.545 47.1989 154.882 47.2544C155.385 47.3373 155.57 47.6204 156.053 47.7691C156.708 47.9714 157.113 48.0308 157.808 48.0265M152.834 43.909C152.834 44.2105 152.744 44.3901 152.834 44.681C153.004 45.2295 154.005 45.7104 154.005 45.7104C154.005 45.7104 154.049 46.028 154.005 46.225M152.834 43.909C151.228 43.5864 150.215 42.2493 150.494 40.8208C150.555 40.5076 150.787 40.0488 150.787 40.0488C151.58 38.8272 154.882 40.0488 154.882 40.0488L155.806 40.658M152.834 43.909C154.091 43.909 154.796 43.909 156.053 43.909M156.053 43.909C155.596 43.6075 155.138 43.5864 154.882 43.1369C154.627 42.6875 154.882 41.8502 154.882 41.8502C154.882 41.8502 156.488 41.2407 156.053 40.8208L155.806 40.658M156.053 43.909C156.813 43.8253 157.428 44.0956 157.808 44.681C158.148 45.2045 157.808 46.225 157.808 46.225M157.808 46.225C157.808 46.225 155.49 46.225 154.005 46.225M157.808 46.225C157.808 46.225 157.808 47.323 157.808 48.0265M157.808 46.225C158.608 46.225 160.441 45.453 160.441 45.453M157.808 49.0558C157.808 49.0558 157.808 48.4285 157.808 48.0265M157.808 49.0558V49.5705M157.808 49.0558C157.808 49.0558 158.25 49.6537 158.393 50.0852C158.617 50.7606 158.393 51.8866 158.393 51.8866C158.393 51.8866 158.191 53.1881 157.808 53.9454C157.537 54.4809 157.423 54.8374 156.93 55.2321C155.663 56.2474 158.556 51.8486 156.93 51.3719C156.388 51.213 155.467 51.8744 155.467 51.3719C155.467 50.9225 156.202 51.0916 156.638 50.8572C157.125 50.5952 157.665 50.5718 157.808 50.0852C157.865 49.8906 157.808 49.5705 157.808 49.5705M157.808 49.0558C157.808 49.0558 159.732 49.7717 160.148 49.0558C160.331 48.7418 160.441 47.2602 160.441 47.2602M156.93 58.7071C159.119 58.7986 160.279 51.5207 160.279 51.5207C160.279 51.5207 156.486 56.5891 156.93 56.0041C157.24 55.5967 154.742 58.6155 156.93 58.7071ZM156.93 58.7071C154.924 58.4103 154.418 59.3789 155.221 61.0231M156.93 58.7071C159.184 59.0404 157.144 62.2303 157.223 64.2391C157.286 65.8492 157.214 66.7675 157.515 68.3566C157.748 69.5827 157.951 70.2639 158.393 71.4447C158.857 72.6857 159.9 74.3456 160.441 75.5622C160.797 76.3618 161.319 78.1356 161.319 78.1356M160.441 45.453C160.441 45.453 160.786 44.3607 160.734 43.6516C160.679 42.9215 160.148 41.8502 160.148 41.8502M160.441 45.453C160.441 45.453 160.352 46.5509 160.295 47.2544M160.148 41.8502H158.978M160.148 41.8502C160.148 41.8502 160.358 41.0855 160.148 40.658C159.912 40.1756 159.16 40.2919 158.978 39.7915C158.874 39.5043 158.978 39.0194 158.978 39.0194V37.7327M158.978 41.8502C158.978 41.8502 158.265 41.8502 157.808 41.8502C156.894 41.8502 155.781 42.6053 155.467 41.8502C155.28 41.3995 155.806 40.658 155.806 40.658M158.978 41.8502L156.93 39.0194M153.42 36.1887C153.513 36.9496 153.735 37.4056 154.297 37.9901C154.829 38.5434 155.241 38.897 156.053 39.0194C156.39 39.0704 156.93 39.0194 156.93 39.0194M153.42 36.1887C153.42 35.4852 152.769 34.7961 153.42 34.3872C153.884 34.0952 154.359 33.8492 154.824 34.1413M153.42 36.1887C154.791 36.1887 156.93 36.1887 156.93 36.1887M154.824 34.1413C154.824 33.1363 151.489 35.6495 151.489 34.6445M154.824 34.1413C155.51 34.4427 155.972 35.4938 156.638 35.1593C157.332 34.8102 157.515 33.8724 157.515 33.8724L158.393 33.3579C158.393 33.3579 158.026 32.2633 157.515 31.8138C156.708 31.1032 152.631 34.6445 151.489 34.6445M151.489 34.6445C152.087 34.0885 153.997 28.9854 153.127 28.9829C152.556 28.9813 151.509 29.2402 151.372 29.755M151.372 29.755C150.915 30.8605 150.944 31.6751 150.787 32.8433C150.706 33.4421 151.584 34.5605 151.664 35.1593M151.372 29.755C150.915 31.4635 152.121 33.4508 151.664 35.1593M151.664 35.1593C151.664 36.9683 151.664 37.9825 151.664 39.7915M156.638 35.4166C156.866 35.7181 156.975 35.8995 157.223 36.1887C157.807 36.8692 158.978 37.7327 158.978 37.7327M158.978 37.7327L158.393 37.9901C158.393 37.9901 157.287 37.5977 156.93 37.9901C156.645 38.304 156.93 39.0194 156.93 39.0194M161.904 40.0488C161.904 40.0488 161.31 36.3072 160.734 35.4166C160.133 34.4883 158.393 33.6152 158.393 33.6152V32.3285C158.393 32.3285 158.95 31.4789 159.563 31.2991C159.997 31.172 160.337 31.0997 160.734 31.2991C161.177 31.5221 161.149 31.9047 161.319 32.3285C161.775 33.4657 160.018 35.0353 161.319 35.4166C161.752 35.5437 162.092 35.2172 162.489 35.4166C162.847 35.5964 163.22 36.9607 163.22 36.9607C163.22 36.9607 162.695 35.0067 163.074 34.3872C163.304 34.0118 163.502 33.7736 163.952 33.6152C164.376 33.4659 164.725 33.4158 165.122 33.6152C165.48 33.795 165.599 34.0377 165.707 34.3872C165.797 34.6781 165.707 35.1593 165.707 35.1593L165.268 35.4166M161.904 40.0488C161.904 40.0488 161.418 41.1238 161.319 41.8502C161.181 42.853 161.099 43.5196 161.611 44.4236C163.027 46.9247 172.443 41.6277 170.049 39.7913M161.904 40.0488V39.5341M170.049 39.7913C169.757 41.3354 161.528 41.4707 161.904 39.7915C162.032 39.2165 162.621 39.1912 163.074 38.762C163.463 38.3939 164.377 38.0396 164.829 37.7326C165.409 37.3395 165.898 36.9258 166.585 36.7033C167.335 36.4601 168.633 36.7033 168.633 36.7033C168.633 36.7033 169.257 36.932 169.51 37.218C170.001 37.7733 169.872 38.392 169.51 39.0194C169.179 39.5933 170.758 39.6333 170.049 39.7913ZM170.049 39.7913C170.735 39.9923 171.367 39.8004 171.805 40.306C172.486 41.0934 169.754 42.7971 168.633 42.8796M161.904 39.5341V39.0194L162.489 37.7327L163.952 36.1887L165.268 35.4166M161.904 39.5341C161.904 39.5341 164.956 37.3715 166.292 36.7033C167.643 36.0279 169.552 36.9546 170.095 35.674C170.335 35.109 169.079 35.1024 168.633 34.6446C168.112 34.1105 167.341 34.4148 166.585 34.6446C166.001 34.8222 165.268 35.4166 165.268 35.4166M168.633 42.8796C168.184 41.4211 164.468 41.639 164.244 43.1369C164.214 43.3362 164.231 43.451 164.244 43.6516C164.294 44.382 164.354 44.8523 164.829 45.453C165.247 45.9813 165.599 46.2778 166.292 46.4824C167.165 46.74 167.737 46.4162 168.633 46.225C169.581 46.0225 170.518 46.2125 170.973 45.453C171.293 44.9197 172.217 43.4826 172.217 42.8796M168.633 42.8796C168.519 43.1639 168.519 43.3673 168.633 43.6516C168.939 44.4157 171.706 43.5537 172.217 42.8796M172.217 42.8796C176.239 42.3649 178.444 39.0025 183.042 38.7621C183.84 38.7203 183.449 39.1807 183.846 39.7915C184.072 40.1405 183.927 40.4253 183.846 40.8208C183.641 41.8096 182.78 42.0784 182.09 42.8796C180.959 44.1936 180.733 45.3232 179.165 46.225C177.955 46.9206 176.987 46.7628 175.654 47.2544C174.476 47.689 173.859 48.018 172.728 48.5411C167.661 50.8864 161.272 54.7173 160.333 55.2321C159.393 55.7469 159.232 55.6913 159.515 54.8518M159.515 54.8518C159.748 54.7174 160.212 54.3352 160.441 53.4307M159.515 54.8518L160.441 47.2602M160.441 53.4307C160.441 53.4307 164.163 49.1987 167.462 48.0265C168.773 47.5609 169.568 47.386 170.973 47.2544M160.441 53.4307C160.192 52.9676 160.413 52.6558 160.441 52.144C160.521 50.664 163.61 49.5705 163.61 49.5705M170.973 47.2544C172.116 46.5509 172.707 46.0903 173.899 45.453C175.427 44.6358 176.498 44.5128 177.994 43.6516C179.488 42.7922 180.205 42.1536 181.505 41.0782C185.106 38.0994 175.086 44.8425 170.973 47.2544ZM160.295 47.2544C160.295 47.2544 160.92 47.2847 161.319 47.2544C162.398 47.1723 162.906 46.2315 163.952 46.4824C164.548 46.6254 164.904 46.5361 165.268 47.2544C165.632 47.9728 164.839 48.4682 164.244 49.0558C164.02 49.2772 163.61 49.5705 163.61 49.5705M160.295 47.2544C160.266 47.6062 160.441 47.2602 160.441 47.2602M159.986 50.3425C160.652 50.5435 163.61 49.5705 163.61 49.5705M160.723 55.2321C160.723 55.2321 168.481 51.9338 173.899 50.5999C175.927 50.1004 177.086 49.8689 179.165 49.5705C181.431 49.2452 182.737 49.3066 185.016 49.0558C186.619 48.8794 187.579 48.0917 189.112 48.5411C189.596 48.6833 190.071 48.6463 190.282 49.0558C190.557 49.5897 189.787 49.8627 189.404 50.3426C187.96 52.155 185.573 53.6439 184.431 53.9454C183.288 54.2469 182.648 54.4159 181.505 54.7174C180.363 55.0189 178.678 55.3821 176.824 55.5792C175.235 55.7482 174.329 55.723 172.728 55.7468C171.815 55.7603 171.298 55.6696 170.388 55.7468C168.981 55.866 168.261 56.2661 166.877 56.5188C165.516 56.7674 164.753 56.9477 163.367 57.0335C162.341 57.0969 160.734 57.0335 160.734 57.0335C160.734 57.0335 164.176 57.6628 166.292 58.3202C168.174 58.9046 169.372 59.0746 170.973 60.1216C172.01 60.7999 172.275 61.5029 173.314 62.1803C174.545 62.9837 175.494 63.0551 176.824 63.7244C177.76 64.195 178.251 64.5086 179.165 65.0111C180.993 66.0161 182.233 66.326 183.846 67.5846C185.487 68.8659 186.053 69.8912 187.356 71.4447C188.184 72.4319 190.164 72.9895 189.404 74.0181C188.83 74.7951 187.816 74.651 186.771 74.5328C185.758 74.4182 185.394 73.8026 184.431 73.5035C182.907 73.0304 181.881 73.4027 180.335 72.9888C179.014 72.6351 178.33 72.281 177.117 71.7021C174.465 70.4371 173.324 69.2468 170.973 67.5846C167.187 64.9074 164.866 63.5515 161.611 60.3789C160.906 59.6911 157.515 58.7979 157.515 58.7979M157.515 58.7979C157.515 58.7979 161.5 58.772 162.489 59.0922C163.458 59.4062 164.829 60.1758 164.829 60.1758M157.515 58.7979C157.515 58.7979 159.763 60.7757 159.856 62.1803C159.962 63.7981 160.193 64.6921 160.441 66.2978C160.752 68.3117 161.007 69.4308 161.319 71.4447C161.567 73.0504 161.391 74.0059 161.904 75.5622C162.357 76.9375 165.186 78.5486 163.61 78.9077C162.683 79.119 162.165 78.5307 161.319 78.1356M169.803 63.4671C168.032 62.2611 165.268 60.3789 165.268 60.3789L164.829 60.1758M169.803 63.4671C171.859 64.874 172.887 65.818 175.069 67.0699C176.612 67.9551 177.555 68.3404 179.165 69.1286C180.416 69.7412 181.12 70.0793 182.383 70.6727M169.803 63.4671C167.861 62.1817 164.829 60.1758 164.829 60.1758M182.383 70.6727C183.64 71.0747 184.466 71.0806 185.601 71.7021C186.359 72.1167 186.756 72.408 187.356 72.9888C188.835 74.419 184.325 71.5772 182.383 70.6727ZM161.319 78.1356C160.026 77.5324 158.393 76.0769 158.393 76.0769C158.393 76.0769 156.967 74.5084 156.053 73.5035C155.938 73.3778 155.76 73.1818 155.76 73.1818M155.221 61.0231C155.335 64.0381 155.265 65.3971 155.951 69.1286C156.638 72.8601 155.224 72.8122 155.028 72.2167C154.926 71.9077 155.467 72.8601 155.467 72.8601M155.221 61.0231C155.221 61.0231 152.802 67.5921 154.005 70.4153C154.435 71.4256 155.467 72.8601 155.467 72.8601M155.467 72.8601L155.76 73.1818" stroke="#5D74B9" stroke-width="0.686251"/>
<path d="M159.517 56.0038L161.272 54.9744C161.272 54.9744 174.327 51.7143 182.922 50.8569C184.063 50.7431 186.12 49.6184 185.847 50.5995C185.652 51.3035 184.84 51.3242 184.092 51.6289C183.337 51.9365 182.85 51.961 182.044 52.1436C180.352 52.5272 179.4 52.8206 177.656 52.9156C176.857 52.9591 176.402 52.8337 175.608 52.9156C174.423 53.0379 173.84 53.4343 172.682 53.6877C171.552 53.9351 170.896 53.9862 169.757 54.2023C166.642 54.7934 161.858 56.0038 161.858 56.0038L159.517 56.2611C159.081 56.3809 161.203 57.3928 161.272 57.0331" stroke="#5D74B9" stroke-width="0.686251"/>
<path d="M162.735 35.4165L164.49 30.5269M164.49 30.5269H166.831M164.49 30.5269C164.49 30.5269 166.57 27.8264 168.586 26.9241C169.552 26.4918 170.232 25.7582 171.219 26.1521C172.668 26.7305 170.881 28.5074 169.756 29.4976C168.267 30.8084 164.49 30.5269 164.49 30.5269ZM164.49 30.5269C164.49 30.5269 163.32 29.4976 162.735 29.4976C162.15 29.4976 161.272 28.4682 161.272 28.4682M166.831 30.5269C166.831 30.5269 167.432 32.5147 168.586 33.1004C169.774 33.703 170.815 33.5285 172.097 33.1004C173.016 32.7935 174.145 32.6782 174.145 31.8137C174.145 30.9491 172.993 30.8817 172.097 30.5269C170.221 29.7846 166.831 30.5269 166.831 30.5269ZM161.272 28.4682C161.272 28.4682 160.282 29.2284 159.517 29.4976C158.138 29.9828 156.829 30.3598 155.714 29.4976C154.817 28.8051 153.902 27.5773 154.836 26.9241C155.462 26.4862 156.084 26.9241 156.884 26.9241C157.912 26.9241 158.572 26.5678 159.517 26.9241C160.408 27.2601 161.272 28.4682 161.272 28.4682ZM160.687 27.4388C160.471 27.5536 158.679 24.829 158.932 24.0934M160.687 27.4388C160.687 27.4388 159.289 26.9148 158.639 26.1521C157.954 25.3481 157.545 23.8675 158.639 23.5787C158.967 23.492 158.589 24.0934 158.932 24.0934M160.687 27.4388C161.565 27.4388 162.164 26.9241 162.735 26.9241M160.687 27.4388C160.687 27.4388 161.39 24.832 160.394 24.0934C160.198 23.9474 159.846 23.7717 159.846 23.7717M158.932 24.0934C159.06 24.1687 159.846 23.7717 159.846 23.7717M162.735 26.9241C163.335 28.2812 164.272 30.3992 164.272 30.3992L164.49 25.6374M162.735 26.9241C162.315 24.0332 162.663 22.1072 162.735 22.292M162.735 22.292L160.394 21.7773M162.735 22.292L164.272 23.419M160.394 21.7773C160.394 21.7773 158.918 20.7357 158.346 20.2332M160.394 21.7773L159.846 23.7717M160.394 21.7773L163.32 22.292M158.346 20.2332C157.949 19.5022 158.458 19.2263 158.639 18.4318C158.71 18.1202 158.676 17.8845 158.932 17.6598C159.336 17.3045 159.834 17.5612 160.394 17.6598C161.146 17.792 161.534 18.0301 162.15 18.4318C162.669 18.7705 163.32 19.4612 163.32 19.4612M158.346 20.2332C158.346 19.4292 158.932 18.6891 158.932 18.6891C161.045 19.7648 162.038 20.3594 163.32 22.292M163.32 19.4612V21.0052V22.292M163.32 19.4612L163.905 18.4318L164.198 17.9171M163.32 22.292C162.442 22.292 164.611 20.6153 165.661 19.7185C166.301 19.1716 166.524 18.4209 167.416 18.4318C168.787 18.4486 167.416 21.5199 167.416 21.5199M163.905 21.7773C164.293 23.1927 164.49 21.0052 164.49 21.0052M164.49 21.0052L164.272 23.419M164.49 21.0052C166.246 20.2332 167.416 21.7773 167.416 21.7773V22.292M164.272 23.419C164.272 23.419 163.905 23.064 164.49 23.5787C165.075 24.0934 164.49 25.6374 164.49 25.6374M164.49 25.6374C164.49 25.6374 167.126 25.2373 167.416 24.0934C167.503 23.75 167.416 23.1927 167.416 23.1927M167.416 21.5199V22.292M167.416 21.5199L168.962 21.0665M169.171 19.4612C169.171 19.4612 169.793 20.7507 169.171 21.0052C169.093 21.0372 168.962 21.0665 168.962 21.0665M169.171 19.4612C169.171 19.4612 170.224 18.1948 170.927 17.4024C171.377 16.8951 171.378 15.9955 172.097 16.1157C172.807 16.2344 172.553 17.0344 172.682 17.6598C172.845 18.4508 172.888 18.9353 172.682 19.7185C172.543 20.2457 172.325 20.5027 172.097 21.0052M169.171 19.4612C169.09 20.0881 169.044 20.4396 168.962 21.0665M169.171 19.4612L168.962 16.1157M172.097 21.0052C170.954 21.5077 169.171 22.292 169.171 22.292M172.097 21.0052C172.178 20.3657 172.833 19.9048 173.56 19.9759C174.588 20.0764 174.105 21.7579 173.267 22.292C172.795 22.5927 171.804 22.5493 171.804 22.5493M169.171 22.292H167.416M169.171 22.292L171.804 22.5493M167.416 22.292V23.1927M167.416 23.1927C167.416 23.1927 167.413 24.9099 168.294 25.3801C168.602 25.545 168.812 25.6023 169.171 25.6374C169.889 25.7076 170.234 25.3035 170.927 25.1227C171.83 24.887 172.375 24.8742 173.267 24.608C173.85 24.4342 174.667 24.6317 174.73 24.0934C174.796 23.529 173.821 23.7091 173.267 23.419C172.674 23.1089 171.804 22.5493 171.804 22.5493M168.962 16.1157H166.831L164.49 17.4024L164.198 17.9171M168.962 16.1157C169.147 14.4459 167.035 14.2864 166.538 15.8584C166.372 16.3851 167.165 14.5717 167.165 14.5717M164.198 17.9171C164.198 17.9171 162.916 18.1179 162.15 17.9171C161.36 17.7102 160.949 17.424 160.394 16.8877C159.946 16.4541 159.732 16.1555 159.517 15.601C159.184 14.7451 159.246 14.1576 159.517 13.2849C159.842 12.2362 160.06 11.182 161.272 10.9688C161.608 10.9097 161.837 10.8459 162.15 10.9688C162.887 11.2587 161.857 12.0596 161.857 12.7702C161.857 13.4809 161.722 13.9688 162.15 14.5717C162.586 15.1864 163.027 15.601 163.905 15.601C164.783 15.601 163.905 17.4024 163.905 17.4024C163.905 17.4024 162.44 14.4175 163.32 12.7702C163.768 11.9317 165.075 10.9688 165.075 10.9688M165.075 10.9688C165.075 10.9688 166.145 10.9688 166.831 10.9688M165.075 10.9688C165.075 10.9688 163.031 6.53643 165.075 6.33666C165.303 6.31446 165.439 6.28791 165.661 6.33666C166.131 6.44007 166.195 6.80719 166.538 7.10869M166.831 10.9688C167.059 11.3708 167.416 11.9982 167.416 11.9982M166.831 10.9688C166.717 9.46136 166.652 8.61617 166.538 7.10869M167.416 11.9982V14.057L167.165 14.5717M167.416 11.9982C167.416 11.9982 168.632 10.6339 169.756 10.4542C170.206 10.3822 170.927 10.4542 170.927 10.4542L170.341 11.4835M167.416 11.9982L169.464 8.91009M167.416 11.9982L169.171 8.39541M167.165 14.5717L167.416 14.5966M170.341 11.4835C170.341 11.4835 170.957 11.7191 171.219 11.9982C171.802 12.6176 171.738 13.3951 171.219 14.057C170.841 14.5394 170.399 14.6738 169.756 14.829C168.869 15.0433 167.416 14.5966 167.416 14.5966M170.341 11.4835C170.341 11.4835 169.746 11.5421 169.464 11.7409C168.922 12.1232 169.485 12.7396 169.171 13.2849C168.765 13.9907 167.416 14.5966 167.416 14.5966M169.464 8.91009C169.464 8.91009 170.393 9.09048 170.927 8.91009C171.53 8.70601 171.681 8.31603 172.097 7.88072C172.627 7.32581 173.138 7.05245 173.267 6.33666C173.397 5.61402 172.91 5.23875 172.682 4.53526M169.464 8.91009C169.464 8.91009 171.425 6.24374 172.682 4.53526M172.682 4.53526C173.025 3.93226 173.56 2.99119 173.56 2.99119C173.56 2.99119 174.185 1.62789 173.56 1.18979C172.909 0.734162 172.087 1.1758 171.512 1.70448C171.086 2.09555 171.039 2.45904 170.927 2.99119C170.823 3.48529 171.065 3.79042 170.927 4.27791C170.803 4.71394 170.341 5.30729 170.341 5.30729M170.341 5.30729C170.341 5.30729 169.738 5.48818 169.464 5.30729C169.098 5.06609 169.829 4.51911 169.464 4.27791C169.19 4.09701 168.88 4.12279 168.586 4.27791C168.182 4.4911 168.408 4.90529 168.294 5.30729C168.179 5.70928 168.197 5.95968 168.001 6.33666C167.83 6.66631 167.416 7.10869 167.416 7.10869M170.341 5.30729L169.756 6.33666L169.171 8.39541M167.416 7.10869C167.416 7.10869 166.881 7.10869 166.538 7.10869M167.416 7.10869L169.171 8.39541" stroke="#5D74B9" stroke-width="0.686251"/>
</svg>
