<svg width="345" height="83" viewBox="0 0 345 83" fill="none" xmlns="http://www.w3.org/2000/svg">
<path d="M2.15625 50V32.9375H7.19531C9.02344 32.9375 10.4102 33.3164 11.3555 34.0742C12.3008 34.8242 12.7734 35.9336 12.7734 37.4023C12.7734 38.2852 12.5312 39.0547 12.0469 39.7109C11.5703 40.3594 10.9141 40.8242 10.0781 41.1055C11.0703 41.3242 11.8672 41.8125 12.4688 42.5703C13.0781 43.3281 13.3828 44.2031 13.3828 45.1953C13.3828 46.7031 12.8945 47.8828 11.918 48.7344C10.9492 49.5781 9.59766 50 7.86328 50H2.15625ZM3.59766 41.7969V48.7812H7.92188C9.15625 48.7812 10.1328 48.4688 10.8516 47.8438C11.5781 47.2109 11.9414 46.3359 11.9414 45.2188C11.9414 44.1641 11.5938 43.332 10.8984 42.7227C10.2109 42.1055 9.25781 41.7969 8.03906 41.7969H3.59766ZM3.59766 40.5898H7.53516C8.73828 40.5664 9.66797 40.2852 10.3242 39.7461C10.9883 39.1992 11.3203 38.4062 11.3203 37.3672C11.3203 36.2734 10.9766 35.4688 10.2891 34.9531C9.60938 34.4297 8.57812 34.168 7.19531 34.168H3.59766V40.5898ZM17.4881 48.7812H25.9139V50H16.035V32.9375H17.4881V48.7812ZM38.9723 32.9375V44.5859C38.9645 45.7344 38.7106 46.7344 38.2106 47.5859C37.7106 48.4375 37.0036 49.0938 36.0895 49.5547C35.1833 50.0078 34.1403 50.2344 32.9606 50.2344C31.1637 50.2344 29.7223 49.7461 28.6364 48.7695C27.5583 47.7852 26.9997 46.4258 26.9606 44.6914V32.9375H28.3903V44.4805C28.3903 45.918 28.8005 47.0352 29.6208 47.832C30.4411 48.6211 31.5544 49.0156 32.9606 49.0156C34.3669 49.0156 35.4762 48.6172 36.2887 47.8203C37.1091 47.0234 37.5192 45.9141 37.5192 44.4922V32.9375H38.9723ZM51.5737 41.8203H43.5933V48.7812H52.7691V50H42.1519V32.9375H52.7105V34.168H43.5933V40.6016H51.5737V41.8203ZM54.9759 50V32.9375H60.015C61.8431 32.9375 63.2298 33.3164 64.1752 34.0742C65.1205 34.8242 65.5931 35.9336 65.5931 37.4023C65.5931 38.2852 65.3509 39.0547 64.8666 39.7109C64.39 40.3594 63.7337 40.8242 62.8978 41.1055C63.89 41.3242 64.6869 41.8125 65.2884 42.5703C65.8978 43.3281 66.2025 44.2031 66.2025 45.1953C66.2025 46.7031 65.7142 47.8828 64.7377 48.7344C63.7689 49.5781 62.4173 50 60.683 50H54.9759ZM56.4173 41.7969V48.7812H60.7416C61.9759 48.7812 62.9525 48.4688 63.6712 47.8438C64.3978 47.2109 64.7611 46.3359 64.7611 45.2188C64.7611 44.1641 64.4134 43.332 63.7181 42.7227C63.0306 42.1055 62.0775 41.7969 60.8587 41.7969H56.4173ZM56.4173 40.5898H60.3548C61.558 40.5664 62.4877 40.2852 63.1439 39.7461C63.808 39.1992 64.14 38.4062 64.14 37.3672C64.14 36.2734 63.7962 35.4688 63.1087 34.9531C62.4291 34.4297 61.3978 34.168 60.015 34.168H56.4173V40.5898ZM81.4641 42.3945C81.4641 43.9648 81.1906 45.3438 80.6438 46.5312C80.1047 47.7188 79.3313 48.6328 78.3234 49.2734C77.3156 49.9141 76.1516 50.2344 74.8313 50.2344C72.8391 50.2344 71.2297 49.5234 70.0031 48.1016C68.7766 46.6719 68.1633 44.7461 68.1633 42.3242V40.5664C68.1633 39.0117 68.4367 37.6367 68.9836 36.4414C69.5383 35.2383 70.3195 34.3164 71.3273 33.6758C72.3352 33.0273 73.4953 32.7031 74.8078 32.7031C76.1203 32.7031 77.2766 33.0195 78.2766 33.6523C79.2844 34.2852 80.0617 35.1797 80.6086 36.3359C81.1555 37.4922 81.4406 38.832 81.4641 40.3555V42.3945ZM80.0227 40.543C80.0227 38.4883 79.5578 36.8789 78.6281 35.7148C77.6984 34.5508 76.425 33.9688 74.8078 33.9688C73.2219 33.9688 71.9563 34.5547 71.0109 35.7266C70.0734 36.8906 69.6047 38.5195 69.6047 40.6133V42.3945C69.6047 44.418 70.0734 46.0234 71.0109 47.2109C71.9484 48.3906 73.2219 48.9805 74.8313 48.9805C76.4641 48.9805 77.7375 48.3984 78.6516 47.2344C79.5656 46.0625 80.0227 44.4336 80.0227 42.3477V40.543ZM96.96 50H95.5186L85.71 35.3984V50H84.2569V32.9375H85.71L95.5303 47.5508V32.9375H96.96V50ZM113.159 50H111.718L101.909 35.3984V50H100.456V32.9375H101.909L111.729 47.5508V32.9375H113.159V50ZM126.077 41.8203H118.096V48.7812H127.272V50H116.655V32.9375H127.214V34.168H118.096V40.6016H126.077V41.8203ZM141.292 34.168H135.444V50H134.003V34.168H128.167V32.9375H141.292V34.168ZM221.235 44.6797C221.04 46.4766 220.396 47.8516 219.302 48.8047C218.216 49.7578 216.767 50.2344 214.954 50.2344C213.689 50.2344 212.568 49.918 211.591 49.2852C210.622 48.6523 209.872 47.7578 209.341 46.6016C208.81 45.4375 208.54 44.1094 208.532 42.6172V40.4023C208.532 38.8867 208.798 37.543 209.329 36.3711C209.86 35.1992 210.622 34.2969 211.614 33.6641C212.614 33.0234 213.763 32.7031 215.06 32.7031C216.888 32.7031 218.329 33.1992 219.384 34.1914C220.446 35.1758 221.064 36.5391 221.235 38.2812H219.782C219.423 35.3828 217.849 33.9336 215.06 33.9336C213.513 33.9336 212.278 34.5117 211.357 35.668C210.443 36.8242 209.985 38.4219 209.985 40.4609V42.5469C209.985 44.5156 210.431 46.0859 211.321 47.2578C212.22 48.4297 213.431 49.0156 214.954 49.0156C216.462 49.0156 217.599 48.6562 218.364 47.9375C219.13 47.2109 219.603 46.125 219.782 44.6797H221.235ZM236.509 42.3945C236.509 43.9648 236.235 45.3438 235.688 46.5312C235.149 47.7188 234.376 48.6328 233.368 49.2734C232.36 49.9141 231.196 50.2344 229.876 50.2344C227.884 50.2344 226.274 49.5234 225.048 48.1016C223.821 46.6719 223.208 44.7461 223.208 42.3242V40.5664C223.208 39.0117 223.481 37.6367 224.028 36.4414C224.583 35.2383 225.364 34.3164 226.372 33.6758C227.38 33.0273 228.54 32.7031 229.852 32.7031C231.165 32.7031 232.321 33.0195 233.321 33.6523C234.329 34.2852 235.106 35.1797 235.653 36.3359C236.2 37.4922 236.485 38.832 236.509 40.3555V42.3945ZM235.067 40.543C235.067 38.4883 234.602 36.8789 233.673 35.7148C232.743 34.5508 231.47 33.9688 229.852 33.9688C228.267 33.9688 227.001 34.5547 226.056 35.7266C225.118 36.8906 224.649 38.5195 224.649 40.6133V42.3945C224.649 44.418 225.118 46.0234 226.056 47.2109C226.993 48.3906 228.267 48.9805 229.876 48.9805C231.509 48.9805 232.782 48.3984 233.696 47.2344C234.61 46.0625 235.067 44.4336 235.067 42.3477V40.543ZM251.055 32.9375V44.5859C251.048 45.7344 250.794 46.7344 250.294 47.5859C249.794 48.4375 249.087 49.0938 248.173 49.5547C247.266 50.0078 246.223 50.2344 245.044 50.2344C243.247 50.2344 241.805 49.7461 240.72 48.7695C239.641 47.7852 239.083 46.4258 239.044 44.6914V32.9375H240.473V44.4805C240.473 45.918 240.884 47.0352 241.704 47.832C242.524 48.6211 243.637 49.0156 245.044 49.0156C246.45 49.0156 247.559 48.6172 248.372 47.8203C249.192 47.0234 249.602 45.9141 249.602 44.4922V32.9375H251.055ZM266.938 50H265.497L255.688 35.3984V50H254.235V32.9375H255.688L265.508 47.5508V32.9375H266.938V50ZM280.09 45.8047C280.09 44.8594 279.758 44.1133 279.094 43.5664C278.43 43.0117 277.215 42.4883 275.45 41.9961C273.684 41.4961 272.395 40.9531 271.582 40.3672C270.426 39.5391 269.848 38.4531 269.848 37.1094C269.848 35.8047 270.383 34.7461 271.454 33.9336C272.532 33.1133 273.907 32.7031 275.579 32.7031C276.711 32.7031 277.723 32.9219 278.614 33.3594C279.512 33.7969 280.207 34.4062 280.7 35.1875C281.192 35.9688 281.438 36.8398 281.438 37.8008H279.985C279.985 36.6367 279.586 35.7031 278.79 35C277.993 34.2891 276.922 33.9336 275.579 33.9336C274.274 33.9336 273.235 34.2266 272.461 34.8125C271.688 35.3906 271.301 36.1484 271.301 37.0859C271.301 37.9531 271.649 38.6602 272.344 39.207C273.04 39.7539 274.153 40.2383 275.684 40.6602C277.215 41.0742 278.375 41.5078 279.165 41.9609C279.954 42.4062 280.547 42.9414 280.946 43.5664C281.344 44.1914 281.543 44.9297 281.543 45.7812C281.543 47.125 281.004 48.2031 279.926 49.0156C278.856 49.8281 277.442 50.2344 275.684 50.2344C274.481 50.2344 273.375 50.0195 272.368 49.5898C271.368 49.1602 270.606 48.5586 270.082 47.7852C269.567 47.0117 269.309 46.125 269.309 45.125H270.75C270.75 46.3281 271.2 47.2773 272.098 47.9727C272.997 48.668 274.192 49.0156 275.684 49.0156C277.012 49.0156 278.079 48.7227 278.883 48.1367C279.688 47.5508 280.09 46.7734 280.09 45.8047ZM293.242 41.8203H285.262V48.7812H294.438V50H283.821V32.9375H294.379V34.168H285.262V40.6016H293.242V41.8203ZM298.098 48.7812H306.524V50H296.645V32.9375H298.098V48.7812ZM310.219 50H308.777V32.9375H310.219V50ZM326.723 50H325.281L315.473 35.3984V50H314.019V32.9375H315.473L325.293 47.5508V32.9375H326.723V50ZM342.535 47.9727C342.035 48.6836 341.25 49.2383 340.179 49.6367C339.117 50.0352 337.925 50.2344 336.605 50.2344C335.269 50.2344 334.082 49.9141 333.043 49.2734C332.004 48.6328 331.199 47.7266 330.629 46.5547C330.058 45.3828 329.769 44.0391 329.761 42.5234V40.3672C329.761 38 330.359 36.1328 331.554 34.7656C332.75 33.3906 334.355 32.7031 336.371 32.7031C338.129 32.7031 339.543 33.1523 340.613 34.0508C341.683 34.9414 342.32 36.1719 342.523 37.7422H341.082C340.871 36.4922 340.359 35.5469 339.547 34.9062C338.742 34.2578 337.687 33.9336 336.383 33.9336C334.789 33.9336 333.527 34.5 332.597 35.6328C331.668 36.7656 331.203 38.3633 331.203 40.4258V42.4414C331.203 43.7383 331.422 44.8867 331.859 45.8867C332.304 46.8789 332.937 47.6484 333.758 48.1953C334.586 48.7422 335.535 49.0156 336.605 49.0156C337.847 49.0156 338.914 48.8203 339.804 48.4297C340.383 48.1719 340.812 47.8711 341.093 47.5273V43.1211H336.511V41.9023H342.535V47.9727Z" fill="black"/>
<path d="M153.053 54.7344C151.74 54.3438 150.752 53.707 150.088 52.8242C149.424 51.9414 149.092 50.7695 149.092 49.3086V46.7188C149.092 44.6641 148.19 43.6367 146.385 43.6367V42.418C148.19 42.418 149.092 41.3984 149.092 39.3594V36.6758C149.1 35.2461 149.432 34.0898 150.088 33.207C150.744 32.3242 151.733 31.6836 153.053 31.2852L153.358 32.2109C151.451 32.8203 150.498 34.3477 150.498 36.793V39.2891C150.498 41.2109 149.78 42.457 148.342 43.0273C149.78 43.6289 150.498 44.8711 150.498 46.7539V49.4258C150.53 51.707 151.494 53.1641 153.393 53.7969L153.053 54.7344ZM156.068 50H154.662V32H156.068V50ZM158.275 43.4727C158.275 42.2539 158.51 41.1562 158.978 40.1797C159.455 39.2031 160.123 38.4453 160.982 37.9062C161.85 37.3594 162.83 37.0859 163.924 37.0859C165.611 37.0859 166.978 37.6797 168.025 38.8672C169.072 40.0469 169.596 41.6133 169.596 43.5664V43.8594C169.596 45.0859 169.357 46.1914 168.881 47.1758C168.412 48.1523 167.748 48.9062 166.889 49.4375C166.029 49.9688 165.049 50.2344 163.947 50.2344C162.268 50.2344 160.9 49.6445 159.846 48.4648C158.799 47.2773 158.275 45.707 158.275 43.7539V43.4727ZM159.682 43.8594C159.682 45.375 160.072 46.6211 160.853 47.5977C161.643 48.5664 162.674 49.0508 163.947 49.0508C165.213 49.0508 166.236 48.5664 167.018 47.5977C167.807 46.6211 168.201 45.3359 168.201 43.7422V43.4727C168.201 42.5039 168.021 41.6172 167.662 40.8125C167.303 40.0078 166.799 39.3867 166.15 38.9492C165.502 38.5039 164.76 38.2812 163.924 38.2812C162.674 38.2812 161.654 38.7734 160.865 39.7578C160.076 40.7344 159.682 42.0156 159.682 43.6016V43.8594ZM171.099 43.543C171.099 41.5586 171.537 39.9883 172.412 38.832C173.295 37.668 174.49 37.0859 175.998 37.0859C177.724 37.0859 179.037 37.7734 179.935 39.1484L180.006 37.3203H181.318V49.7422C181.318 51.375 180.861 52.668 179.947 53.6211C179.033 54.5742 177.795 55.0508 176.232 55.0508C175.349 55.0508 174.506 54.8516 173.701 54.4531C172.904 54.0625 172.275 53.5391 171.814 52.8828L172.599 52.0391C173.592 53.2578 174.771 53.8672 176.138 53.8672C177.31 53.8672 178.224 53.5195 178.881 52.8242C179.537 52.1367 179.877 51.1797 179.9 49.9531V48.3594C179.002 49.6094 177.693 50.2344 175.974 50.2344C174.506 50.2344 173.326 49.6484 172.435 48.4766C171.545 47.3047 171.099 45.7227 171.099 43.7305V43.543ZM172.517 43.7891C172.517 45.4062 172.842 46.6836 173.49 47.6211C174.138 48.5508 175.053 49.0156 176.232 49.0156C177.959 49.0156 179.181 48.2422 179.9 46.6953V40.8008C179.572 39.9883 179.099 39.3711 178.482 38.9492C177.865 38.5195 177.123 38.3047 176.256 38.3047C175.076 38.3047 174.158 38.7695 173.502 39.6992C172.845 40.6211 172.517 41.9844 172.517 43.7891ZM183.361 43.4727C183.361 42.2539 183.595 41.1562 184.064 40.1797C184.541 39.2031 185.209 38.4453 186.068 37.9062C186.935 37.3594 187.916 37.0859 189.009 37.0859C190.697 37.0859 192.064 37.6797 193.111 38.8672C194.158 40.0469 194.681 41.6133 194.681 43.5664V43.8594C194.681 45.0859 194.443 46.1914 193.966 47.1758C193.498 48.1523 192.834 48.9062 191.974 49.4375C191.115 49.9688 190.134 50.2344 189.033 50.2344C187.353 50.2344 185.986 49.6445 184.931 48.4648C183.884 47.2773 183.361 45.707 183.361 43.7539V43.4727ZM184.767 43.8594C184.767 45.375 185.158 46.6211 185.939 47.5977C186.728 48.5664 187.759 49.0508 189.033 49.0508C190.298 49.0508 191.322 48.5664 192.103 47.5977C192.892 46.6211 193.287 45.3359 193.287 43.7422V43.4727C193.287 42.5039 193.107 41.6172 192.748 40.8125C192.388 40.0078 191.884 39.3867 191.236 38.9492C190.587 38.5039 189.845 38.2812 189.009 38.2812C187.759 38.2812 186.74 38.7734 185.951 39.7578C185.162 40.7344 184.767 42.0156 184.767 43.6016V43.8594ZM195.025 53.7969C196.923 53.1641 197.888 51.707 197.919 49.4258V46.8008C197.919 44.8242 198.673 43.5703 200.181 43.0391C198.673 42.5078 197.919 41.2617 197.919 39.3008V36.8047C197.919 34.3359 196.966 32.8047 195.06 32.2109L195.365 31.2852C196.701 31.6836 197.693 32.332 198.341 33.2305C198.997 34.1211 199.326 35.293 199.326 36.7461V39.3594C199.326 41.3984 200.228 42.418 202.033 42.418V43.6367C200.228 43.6367 199.326 44.6641 199.326 46.7188V49.3086C199.326 50.7695 198.994 51.9414 198.33 52.8242C197.665 53.707 196.677 54.3438 195.365 54.7344L195.025 53.7969Z" fill="#C4C4C4"/>
<path d="M160.004 49.0558C160.004 49.0558 159.391 50.3302 160.004 50.5999C160.618 50.8696 160.576 50.4651 160.882 50.5999C161.495 50.8696 160.663 51.5727 160.882 52.144C161.116 52.7536 161.84 52.8148 162.052 53.4307C162.218 53.9116 161.872 54.2407 162.052 54.7174C162.233 55.1941 162.93 55.7468 162.93 55.7468L162.052 56.7761C162.052 56.7761 158.352 62.3313 157.664 66.2978C157.216 68.8809 156.872 70.4704 157.664 72.9888C157.992 74.032 158.527 75.5434 158.834 76.5916C159.433 78.6353 156.477 81.6009 158.834 81.9958C159.283 82.071 159.568 81.0854 160.004 80.9664C161.249 80.6273 160.591 79.2526 160.882 78.1356C161.379 76.2271 161.76 73.1818 161.76 73.1818M160.004 49.0558C160.004 49.0558 160.004 47.9579 160.004 47.2544M160.004 49.0558L163.808 49.5705M160.004 47.2544C160.004 46.8524 160.004 46.627 160.004 46.225M160.004 47.2544C160.004 47.2544 160.545 47.1989 160.882 47.2544C161.384 47.3373 161.57 47.6204 162.052 47.7691C162.708 47.9714 163.113 48.0308 163.808 48.0265M158.834 43.909C158.834 44.2105 158.744 44.3901 158.834 44.681C159.004 45.2295 160.004 45.7104 160.004 45.7104C160.004 45.7104 160.049 46.028 160.004 46.225M158.834 43.909C157.228 43.5864 156.214 42.2493 156.494 40.8208C156.555 40.5076 156.786 40.0488 156.786 40.0488C157.58 38.8272 160.882 40.0488 160.882 40.0488L161.806 40.658M158.834 43.909C160.091 43.909 160.796 43.909 162.052 43.909M162.052 43.909C161.595 43.6075 161.138 43.5864 160.882 43.1369C160.627 42.6875 160.882 41.8502 160.882 41.8502C160.882 41.8502 162.488 41.2407 162.052 40.8208L161.806 40.658M162.052 43.909C162.813 43.8253 163.427 44.0956 163.808 44.681C164.148 45.2045 163.808 46.225 163.808 46.225M163.808 46.225C163.808 46.225 161.49 46.225 160.004 46.225M163.808 46.225C163.808 46.225 163.808 47.323 163.808 48.0265M163.808 46.225C164.607 46.225 166.441 45.453 166.441 45.453M163.808 49.0558C163.808 49.0558 163.808 48.4285 163.808 48.0265M163.808 49.0558V49.5705M163.808 49.0558C163.808 49.0558 164.25 49.6537 164.393 50.0852C164.617 50.7606 164.393 51.8866 164.393 51.8866C164.393 51.8866 164.19 53.1881 163.808 53.9454C163.537 54.4809 163.422 54.8374 162.93 55.2321C161.663 56.2474 164.556 51.8486 162.93 51.3719C162.388 51.213 161.467 51.8744 161.467 51.3719C161.467 50.9225 162.201 51.0916 162.637 50.8572C163.125 50.5952 163.665 50.5718 163.808 50.0852C163.865 49.8906 163.808 49.5705 163.808 49.5705M163.808 49.0558C163.808 49.0558 165.732 49.7717 166.148 49.0558C166.331 48.7418 166.441 47.2602 166.441 47.2602M162.93 58.7071C165.118 58.7986 166.278 51.5207 166.278 51.5207C166.278 51.5207 162.486 56.5891 162.93 56.0041C163.239 55.5967 160.742 58.6155 162.93 58.7071ZM162.93 58.7071C160.924 58.4103 160.418 59.3789 161.22 61.0231M162.93 58.7071C165.183 59.0404 163.143 62.2303 163.223 64.2391C163.286 65.8492 163.213 66.7675 163.515 68.3566C163.748 69.5827 163.951 70.2639 164.393 71.4447C164.857 72.6857 165.899 74.3456 166.441 75.5622C166.796 76.3618 167.318 78.1356 167.318 78.1356M166.441 45.453C166.441 45.453 166.786 44.3607 166.733 43.6516C166.679 42.9215 166.148 41.8502 166.148 41.8502M166.441 45.453C166.441 45.453 166.352 46.5509 166.294 47.2544M166.148 41.8502H164.978M166.148 41.8502C166.148 41.8502 166.358 41.0855 166.148 40.658C165.911 40.1756 165.16 40.2919 164.978 39.7915C164.873 39.5043 164.978 39.0194 164.978 39.0194V37.7327M164.978 41.8502C164.978 41.8502 164.265 41.8502 163.808 41.8502C162.894 41.8502 161.781 42.6053 161.467 41.8502C161.28 41.3995 161.806 40.658 161.806 40.658M164.978 41.8502L162.93 39.0194M159.419 36.1887C159.513 36.9496 159.735 37.4056 160.297 37.9901C160.829 38.5434 161.24 38.897 162.052 39.0194C162.39 39.0704 162.93 39.0194 162.93 39.0194M159.419 36.1887C159.419 35.4852 158.769 34.7961 159.419 34.3872C159.884 34.0952 160.359 33.8492 160.824 34.1413M159.419 36.1887C160.79 36.1887 162.93 36.1887 162.93 36.1887M160.824 34.1413C160.824 33.1363 157.489 35.6495 157.489 34.6445M160.824 34.1413C161.509 34.4427 161.972 35.4938 162.637 35.1593C163.332 34.8102 163.515 33.8724 163.515 33.8724L164.393 33.3579C164.393 33.3579 164.026 32.2633 163.515 31.8138C162.707 31.1032 158.631 34.6445 157.489 34.6445M157.489 34.6445C158.087 34.0885 159.997 28.9854 159.127 28.9829C158.556 28.9813 157.509 29.2402 157.371 29.755M157.371 29.755C156.914 30.8605 156.943 31.6751 156.786 32.8433C156.706 33.4421 157.583 34.5605 157.664 35.1593M157.371 29.755C156.914 31.4635 158.121 33.4508 157.664 35.1593M157.664 35.1593C157.664 36.9683 157.664 37.9825 157.664 39.7915M162.637 35.4166C162.866 35.7181 162.974 35.8995 163.223 36.1887C163.807 36.8692 164.978 37.7327 164.978 37.7327M164.978 37.7327L164.393 37.9901C164.393 37.9901 163.287 37.5977 162.93 37.9901C162.645 38.304 162.93 39.0194 162.93 39.0194M167.904 40.0488C167.904 40.0488 167.31 36.3072 166.733 35.4166C166.132 34.4883 164.393 33.6152 164.393 33.6152V32.3285C164.393 32.3285 164.95 31.4789 165.563 31.2991C165.997 31.172 166.336 31.0997 166.733 31.2991C167.177 31.5221 167.148 31.9047 167.318 32.3285C167.775 33.4657 166.018 35.0353 167.318 35.4166C167.752 35.5437 168.092 35.2172 168.489 35.4166C168.846 35.5964 169.22 36.9607 169.22 36.9607C169.22 36.9607 168.695 35.0067 169.074 34.3872C169.304 34.0118 169.501 33.7736 169.951 33.6152C170.376 33.4659 170.725 33.4158 171.122 33.6152C171.479 33.795 171.598 34.0377 171.707 34.3872C171.797 34.6781 171.707 35.1593 171.707 35.1593L171.268 35.4166M167.904 40.0488C167.904 40.0488 167.418 41.1238 167.318 41.8502C167.181 42.853 167.099 43.5196 167.611 44.4236C169.027 46.9247 178.443 41.6277 176.049 39.7913M167.904 40.0488V39.5341M176.049 39.7913C175.756 41.3354 167.528 41.4707 167.904 39.7915C168.032 39.2165 168.62 39.1912 169.074 38.762C169.463 38.3939 170.377 38.0396 170.829 37.7326C171.408 37.3395 171.898 36.9258 172.584 36.7033C173.335 36.4601 174.632 36.7033 174.632 36.7033C174.632 36.7033 175.257 36.932 175.51 37.218C176.001 37.7733 175.872 38.392 175.51 39.0194C175.179 39.5933 176.758 39.6333 176.049 39.7913ZM176.049 39.7913C176.734 39.9923 177.366 39.8004 177.804 40.306C178.486 41.0934 175.754 42.7971 174.632 42.8796M167.904 39.5341V39.0194L168.489 37.7327L169.951 36.1887L171.268 35.4166M167.904 39.5341C167.904 39.5341 170.956 37.3715 172.292 36.7033C173.643 36.0279 175.552 36.9546 176.095 35.674C176.335 35.109 175.078 35.1024 174.632 34.6446C174.112 34.1105 173.34 34.4148 172.584 34.6446C172 34.8222 171.268 35.4166 171.268 35.4166M174.632 42.8796C174.184 41.4211 170.468 41.639 170.244 43.1369C170.214 43.3362 170.23 43.451 170.244 43.6516C170.294 44.382 170.354 44.8523 170.829 45.453C171.247 45.9813 171.598 46.2778 172.292 46.4824C173.165 46.74 173.737 46.4162 174.632 46.225C175.581 46.0225 176.517 46.2125 176.973 45.453C177.293 44.9197 178.217 43.4826 178.217 42.8796M174.632 42.8796C174.518 43.1639 174.518 43.3673 174.632 43.6516C174.939 44.4157 177.706 43.5537 178.217 42.8796M178.217 42.8796C182.239 42.3649 184.444 39.0025 189.041 38.7621C189.84 38.7203 189.449 39.1807 189.845 39.7915C190.072 40.1405 189.927 40.4253 189.845 40.8208C189.641 41.8096 188.78 42.0784 188.09 42.8796C186.959 44.1936 186.733 45.3232 185.164 46.225C183.955 46.9206 182.987 46.7628 181.654 47.2544C180.476 47.689 179.859 48.018 178.728 48.5411C173.661 50.8864 167.272 54.7173 166.332 55.2321C165.392 55.7469 165.232 55.6913 165.515 54.8518M165.515 54.8518C165.747 54.7174 166.212 54.3352 166.441 53.4307M165.515 54.8518L166.441 47.2602M166.441 53.4307C166.441 53.4307 170.163 49.1987 173.462 48.0265C174.772 47.5609 175.568 47.386 176.973 47.2544M166.441 53.4307C166.191 52.9676 166.413 52.6558 166.441 52.144C166.521 50.664 169.61 49.5705 169.61 49.5705M176.973 47.2544C178.115 46.5509 178.707 46.0903 179.898 45.453C181.426 44.6358 182.498 44.5128 183.994 43.6516C185.488 42.7922 186.205 42.1536 187.505 41.0782C191.106 38.0994 181.086 44.8425 176.973 47.2544ZM166.294 47.2544C166.294 47.2544 166.92 47.2847 167.318 47.2544C168.398 47.1723 168.906 46.2315 169.951 46.4824C170.548 46.6254 170.904 46.5361 171.268 47.2544C171.632 47.9728 170.838 48.4682 170.244 49.0558C170.02 49.2772 169.61 49.5705 169.61 49.5705M166.294 47.2544C166.266 47.6062 166.441 47.2602 166.441 47.2602M165.986 50.3425C166.652 50.5435 169.61 49.5705 169.61 49.5705M166.722 55.2321C166.722 55.2321 174.48 51.9338 179.898 50.5999C181.927 50.1004 183.085 49.8689 185.164 49.5705C187.431 49.2452 188.737 49.3066 191.016 49.0558C192.619 48.8794 193.579 48.0917 195.111 48.5411C195.596 48.6833 196.071 48.6463 196.282 49.0558C196.556 49.5897 195.786 49.8627 195.404 50.3426C193.96 52.155 191.573 53.6439 190.431 53.9454C189.288 54.2469 188.647 54.4159 187.505 54.7174C186.362 55.0189 184.678 55.3821 182.824 55.5792C181.234 55.7482 180.329 55.723 178.728 55.7468C177.814 55.7603 177.298 55.6696 176.388 55.7468C174.981 55.866 174.261 56.2661 172.877 56.5188C171.516 56.7674 170.753 56.9477 169.366 57.0335C168.341 57.0969 166.733 57.0335 166.733 57.0335C166.733 57.0335 170.175 57.6628 172.292 58.3202C174.173 58.9046 175.371 59.0746 176.973 60.1216C178.01 60.7999 178.275 61.5029 179.313 62.1803C180.544 62.9837 181.493 63.0551 182.824 63.7244C183.76 64.195 184.25 64.5086 185.164 65.0111C186.993 66.0161 188.233 66.326 189.845 67.5846C191.487 68.8659 192.053 69.8912 193.356 71.4447C194.184 72.4319 196.164 72.9895 195.404 74.0181C194.83 74.7951 193.816 74.651 192.771 74.5328C191.757 74.4182 191.394 73.8026 190.431 73.5035C188.907 73.0304 187.88 73.4027 186.335 72.9888C185.014 72.6351 184.33 72.281 183.117 71.7021C180.465 70.4371 179.324 69.2468 176.973 67.5846C173.186 64.9074 170.866 63.5515 167.611 60.3789C166.905 59.6911 163.515 58.7979 163.515 58.7979M163.515 58.7979C163.515 58.7979 167.5 58.772 168.489 59.0922C169.458 59.4062 170.829 60.1758 170.829 60.1758M163.515 58.7979C163.515 58.7979 165.763 60.7757 165.856 62.1803C165.962 63.7981 166.192 64.6921 166.441 66.2978C166.752 68.3117 167.007 69.4308 167.318 71.4447C167.567 73.0504 167.39 74.0059 167.904 75.5622C168.357 76.9375 171.186 78.5486 169.61 78.9077C168.682 79.119 168.165 78.5307 167.318 78.1356M175.803 63.4671C174.032 62.2611 171.268 60.3789 171.268 60.3789L170.829 60.1758M175.803 63.4671C177.859 64.874 178.886 65.818 181.069 67.0699C182.612 67.9551 183.555 68.3404 185.164 69.1286C186.415 69.7412 187.12 70.0793 188.383 70.6727M175.803 63.4671C173.86 62.1817 170.829 60.1758 170.829 60.1758M188.383 70.6727C189.639 71.0747 190.465 71.0806 191.601 71.7021C192.358 72.1167 192.756 72.408 193.356 72.9888C194.835 74.419 190.325 71.5772 188.383 70.6727ZM167.318 78.1356C166.026 77.5324 164.393 76.0769 164.393 76.0769C164.393 76.0769 162.966 74.5084 162.052 73.5035C161.938 73.3778 161.76 73.1818 161.76 73.1818M161.22 61.0231C161.335 64.0381 161.264 65.3971 161.951 69.1286C162.637 72.8601 161.223 72.8122 161.028 72.2167C160.926 71.9077 161.467 72.8601 161.467 72.8601M161.22 61.0231C161.22 61.0231 158.802 67.5921 160.004 70.4153C160.435 71.4256 161.467 72.8601 161.467 72.8601M161.467 72.8601L161.76 73.1818" stroke="black" stroke-width="0.686251"/>
<path d="M165.517 56.0038L167.272 54.9744C167.272 54.9744 180.327 51.7143 188.922 50.8569C190.062 50.7431 192.12 49.6184 191.847 50.5995C191.652 51.3035 190.839 51.3242 190.092 51.6289C189.337 51.9365 188.849 51.961 188.044 52.1436C186.351 52.5272 185.4 52.8206 183.655 52.9156C182.857 52.9591 182.402 52.8337 181.608 52.9156C180.423 53.0379 179.84 53.4343 178.682 53.6877C177.551 53.9351 176.895 53.9862 175.756 54.2023C172.641 54.7934 167.857 56.0038 167.857 56.0038L165.517 56.2611C165.08 56.3809 167.203 57.3928 167.272 57.0331" stroke="black" stroke-width="0.686251"/>
<path d="M168.735 35.4165L170.49 30.5269M170.49 30.5269H172.831M170.49 30.5269C170.49 30.5269 172.57 27.8264 174.586 26.9241C175.552 26.4918 176.232 25.7582 177.219 26.1521C178.668 26.7305 176.881 28.5074 175.756 29.4976C174.267 30.8084 170.49 30.5269 170.49 30.5269ZM170.49 30.5269C170.49 30.5269 169.32 29.4976 168.735 29.4976C168.15 29.4976 167.272 28.4682 167.272 28.4682M172.831 30.5269C172.831 30.5269 173.432 32.5147 174.586 33.1004C175.774 33.703 176.815 33.5285 178.097 33.1004C179.016 32.7935 180.145 32.6782 180.145 31.8137C180.145 30.9491 178.993 30.8817 178.097 30.5269C176.221 29.7846 172.831 30.5269 172.831 30.5269ZM167.272 28.4682C167.272 28.4682 166.282 29.2284 165.517 29.4976C164.138 29.9828 162.829 30.3598 161.713 29.4976C160.817 28.8051 159.902 27.5773 160.836 26.9241C161.462 26.4862 162.084 26.9241 162.884 26.9241C163.912 26.9241 164.572 26.5678 165.517 26.9241C166.408 27.2601 167.272 28.4682 167.272 28.4682ZM166.687 27.4388C166.471 27.5536 164.679 24.829 164.932 24.0934M166.687 27.4388C166.687 27.4388 165.289 26.9148 164.639 26.1521C163.954 25.3481 163.545 23.8675 164.639 23.5787C164.967 23.492 164.589 24.0934 164.932 24.0934M166.687 27.4388C167.565 27.4388 168.164 26.9241 168.735 26.9241M166.687 27.4388C166.687 27.4388 167.39 24.832 166.394 24.0934C166.198 23.9474 165.846 23.7717 165.846 23.7717M164.932 24.0934C165.06 24.1687 165.846 23.7717 165.846 23.7717M168.735 26.9241C169.335 28.2812 170.272 30.3992 170.272 30.3992L170.49 25.6374M168.735 26.9241C168.315 24.0332 168.663 22.1072 168.735 22.292M168.735 22.292L166.394 21.7773M168.735 22.292L170.272 23.419M166.394 21.7773C166.394 21.7773 164.918 20.7357 164.346 20.2332M166.394 21.7773L165.846 23.7717M166.394 21.7773L169.32 22.292M164.346 20.2332C163.949 19.5022 164.458 19.2263 164.639 18.4318C164.71 18.1202 164.676 17.8845 164.932 17.6598C165.336 17.3045 165.834 17.5612 166.394 17.6598C167.146 17.792 167.534 18.0301 168.15 18.4318C168.669 18.7705 169.32 19.4612 169.32 19.4612M164.346 20.2332C164.346 19.4292 164.932 18.6891 164.932 18.6891C167.045 19.7648 168.038 20.3594 169.32 22.292M169.32 19.4612V21.0052V22.292M169.32 19.4612L169.905 18.4318L170.198 17.9171M169.32 22.292C168.442 22.292 170.611 20.6153 171.66 19.7185C172.301 19.1716 172.524 18.4209 173.416 18.4318C174.787 18.4486 173.416 21.5199 173.416 21.5199M169.905 21.7773C170.293 23.1927 170.49 21.0052 170.49 21.0052M170.49 21.0052L170.272 23.419M170.49 21.0052C172.246 20.2332 173.416 21.7773 173.416 21.7773V22.292M170.272 23.419C170.272 23.419 169.905 23.064 170.49 23.5787C171.075 24.0934 170.49 25.6374 170.49 25.6374M170.49 25.6374C170.49 25.6374 173.126 25.2373 173.416 24.0934C173.503 23.75 173.416 23.1927 173.416 23.1927M173.416 21.5199V22.292M173.416 21.5199L174.962 21.0665M175.171 19.4612C175.171 19.4612 175.793 20.7507 175.171 21.0052C175.093 21.0372 174.962 21.0665 174.962 21.0665M175.171 19.4612C175.171 19.4612 176.224 18.1948 176.927 17.4024C177.377 16.8951 177.378 15.9955 178.097 16.1157C178.807 16.2344 178.553 17.0344 178.682 17.6598C178.845 18.4508 178.888 18.9353 178.682 19.7185C178.543 20.2457 178.325 20.5027 178.097 21.0052M175.171 19.4612C175.09 20.0881 175.044 20.4396 174.962 21.0665M175.171 19.4612L174.962 16.1157M178.097 21.0052C176.954 21.5077 175.171 22.292 175.171 22.292M178.097 21.0052C178.178 20.3657 178.832 19.9048 179.56 19.9759C180.588 20.0764 180.105 21.7579 179.267 22.292C178.795 22.5927 177.804 22.5493 177.804 22.5493M175.171 22.292H173.416M175.171 22.292L177.804 22.5493M173.416 22.292V23.1927M173.416 23.1927C173.416 23.1927 173.413 24.9099 174.294 25.3801C174.602 25.545 174.812 25.6023 175.171 25.6374C175.889 25.7076 176.234 25.3035 176.927 25.1227C177.83 24.887 178.375 24.8742 179.267 24.608C179.85 24.4342 180.667 24.6317 180.73 24.0934C180.796 23.529 179.821 23.7091 179.267 23.419C178.674 23.1089 177.804 22.5493 177.804 22.5493M174.962 16.1157H172.831L170.49 17.4024L170.198 17.9171M174.962 16.1157C175.147 14.4459 173.035 14.2864 172.538 15.8584C172.372 16.3851 173.165 14.5717 173.165 14.5717M170.198 17.9171C170.198 17.9171 168.916 18.1179 168.15 17.9171C167.36 17.7102 166.949 17.424 166.394 16.8877C165.946 16.4541 165.732 16.1555 165.517 15.601C165.184 14.7451 165.246 14.1576 165.517 13.2849C165.842 12.2362 166.06 11.182 167.272 10.9688C167.608 10.9097 167.837 10.8459 168.15 10.9688C168.887 11.2587 167.857 12.0596 167.857 12.7702C167.857 13.4809 167.722 13.9688 168.15 14.5717C168.586 15.1864 169.027 15.601 169.905 15.601C170.783 15.601 169.905 17.4024 169.905 17.4024C169.905 17.4024 168.44 14.4175 169.32 12.7702C169.768 11.9317 171.075 10.9688 171.075 10.9688M171.075 10.9688C171.075 10.9688 172.145 10.9688 172.831 10.9688M171.075 10.9688C171.075 10.9688 169.031 6.53643 171.075 6.33666C171.302 6.31446 171.439 6.28791 171.66 6.33666C172.131 6.44007 172.195 6.80719 172.538 7.10869M172.831 10.9688C173.059 11.3708 173.416 11.9982 173.416 11.9982M172.831 10.9688C172.716 9.46136 172.652 8.61617 172.538 7.10869M173.416 11.9982V14.057L173.165 14.5717M173.416 11.9982C173.416 11.9982 174.632 10.6339 175.756 10.4542C176.206 10.3822 176.927 10.4542 176.927 10.4542L176.341 11.4835M173.416 11.9982L175.464 8.91009M173.416 11.9982L175.171 8.39541M173.165 14.5717L173.416 14.5966M176.341 11.4835C176.341 11.4835 176.956 11.7191 177.219 11.9982C177.802 12.6176 177.738 13.3951 177.219 14.057C176.841 14.5394 176.399 14.6738 175.756 14.829C174.869 15.0433 173.416 14.5966 173.416 14.5966M176.341 11.4835C176.341 11.4835 175.746 11.5421 175.464 11.7409C174.922 12.1232 175.485 12.7396 175.171 13.2849C174.765 13.9907 173.416 14.5966 173.416 14.5966M175.464 8.91009C175.464 8.91009 176.393 9.09048 176.927 8.91009C177.53 8.70601 177.681 8.31603 178.097 7.88072C178.627 7.32581 179.138 7.05245 179.267 6.33666C179.397 5.61402 178.91 5.23875 178.682 4.53526M175.464 8.91009C175.464 8.91009 177.425 6.24374 178.682 4.53526M178.682 4.53526C179.025 3.93226 179.56 2.99119 179.56 2.99119C179.56 2.99119 180.185 1.62789 179.56 1.18979C178.909 0.734162 178.087 1.1758 177.512 1.70448C177.086 2.09555 177.039 2.45904 176.927 2.99119C176.823 3.48529 177.065 3.79042 176.927 4.27791C176.803 4.71394 176.341 5.30729 176.341 5.30729M176.341 5.30729C176.341 5.30729 175.738 5.48818 175.464 5.30729C175.098 5.06609 175.829 4.51911 175.464 4.27791C175.19 4.09701 174.88 4.12279 174.586 4.27791C174.182 4.4911 174.408 4.90529 174.294 5.30729C174.179 5.70928 174.197 5.95968 174.001 6.33666C173.83 6.66631 173.416 7.10869 173.416 7.10869M176.341 5.30729L175.756 6.33666L175.171 8.39541M173.416 7.10869C173.416 7.10869 172.881 7.10869 172.538 7.10869M173.416 7.10869L175.171 8.39541" stroke="black" stroke-width="0.686251"/>
</svg>
