<svg width="109" height="109" viewBox="0 0 109 109" fill="none" xmlns="http://www.w3.org/2000/svg">
<circle cx="54.5" cy="54.5" r="54.5" fill="#5D74B9"/>
<path d="M53.9998 55.0001H51.9998C51.9998 55.5305 52.2105 56.0392 52.5856 56.4143L53.9998 55.0001ZM53.9998 93.1334C32.9393 93.1334 15.8665 76.0606 15.8665 55.0001H11.8665C11.8665 78.2697 30.7302 97.1334 53.9998 97.1334V93.1334ZM92.1331 55.0001C92.1331 76.0606 75.0602 93.1334 53.9998 93.1334V97.1334C77.2694 97.1334 96.1331 78.2697 96.1331 55.0001H92.1331ZM53.9998 16.8668C75.0602 16.8668 92.1331 33.9396 92.1331 55.0001H96.1331C96.1331 31.7305 77.2694 12.8668 53.9998 12.8668V16.8668ZM53.9998 12.8668C30.7302 12.8668 11.8665 31.7305 11.8665 55.0001H15.8665C15.8665 33.9396 32.9393 16.8668 53.9998 16.8668V12.8668ZM51.9998 29.2001V55.0001H55.9998V29.2001H51.9998ZM52.5856 56.4143L69.7856 73.6143L72.614 70.7859L55.414 53.5859L52.5856 56.4143Z" fill="white"/>
</svg>
