<svg width="50" height="50" viewBox="0 0 50 50" fill="none" xmlns="http://www.w3.org/2000/svg">
<path d="M41.6563 13.9332C43.5238 12.8167 44.9212 11.0587 45.5875 8.9874C43.8326 10.0287 41.9126 10.7621 39.9104 11.1561C37.1346 8.21974 32.7365 7.50516 29.1738 9.41168C25.611 11.3182 23.7657 15.3738 24.6688 19.3124C17.4805 18.9515 10.7833 15.556 6.24378 9.97073C3.8747 14.057 5.08535 19.2807 9.01045 21.9082C7.59109 21.8626 6.20321 21.4783 4.96253 20.7874C4.96253 20.8249 4.96253 20.8624 4.96253 20.8999C4.96335 25.1565 7.96331 28.823 12.1354 29.6666C10.8189 30.0247 9.43796 30.0775 8.09795 29.8207C9.27128 33.4609 12.6262 35.9547 16.45 36.0291C13.283 38.5147 9.37186 39.8627 5.34587 39.8561C4.63226 39.8572 3.91922 39.8161 3.21045 39.7332C7.29876 42.3604 12.0571 43.7548 16.9167 43.7499C23.6776 43.7963 30.1751 41.1309 34.9557 36.3499C39.7363 31.5689 42.4012 25.0712 42.3542 18.3103C42.3542 17.9228 42.3452 17.5374 42.3271 17.1541C44.0781 15.8886 45.5892 14.321 46.7896 12.5249C45.1584 13.2479 43.4281 13.7227 41.6563 13.9332Z" fill="white"/>
</svg>
