<svg width="47" height="23" viewBox="0 0 47 23" fill="none" xmlns="http://www.w3.org/2000/svg">
<path d="M46.1528 12.5993C46.7082 11.9263 46.6656 10.8869 46.0375 10.275L36.5975 0.881077C35.9211 0.208108 34.8264 0.210412 34.1534 0.886837C33.4804 1.56326 33.4827 2.65799 34.1592 3.33096L40.6307 9.77141H2.18164C1.22635 9.77141 0.453125 10.5446 0.453125 11.4999C0.453125 12.4552 1.22635 13.2284 2.18164 13.2284H40.6307L34.1592 19.6689C33.4827 20.3419 33.4804 21.4366 34.1534 22.113C34.4911 22.453 34.9347 22.6223 35.3784 22.6223C35.8186 22.6223 36.2599 22.4553 36.5975 22.1188L46.0375 12.7249C46.0779 12.6857 46.117 12.6419 46.1528 12.5993C46.1574 12.5935 46.117 12.6419 46.1528 12.5993Z" fill="#5D74B9"/>
</svg>
